<?xml version="1.0" standalone="no"?>
<!DOCTYPE svg PUBLIC "-//W3C//DTD SVG 1.1//EN" "http://www.w3.org/Graphics/SVG/1.1/DTD/svg11.dtd" >
<svg xmlns="http://www.w3.org/2000/svg" xmlns:xlink="http://www.w3.org/1999/xlink" version="1.1">
<metadata>
Created by FontForge 20180930 at Mon Oct  8 19:07:15 2018
 By root
Typeface (c) Galdino Otten. 2017. All Rights Reserved
</metadata>
<defs>
<font id="CartoonTunesFlat" horiz-adv-x="1014" >
  <font-face 
    font-family="Cartoon Tunes Flat"
    font-weight="400"
    font-stretch="normal"
    units-per-em="2048"
    panose-1="2 0 5 0 0 0 0 0 0 0"
    ascent="1638"
    descent="-410"
    x-height="637"
    cap-height="1348"
    bbox="-248 -397.818 1966.27 1906.33"
    underline-thickness="150"
    underline-position="-292"
    unicode-range="U+0020-2122"
  />
    <missing-glyph />
    <glyph glyph-name="space" unicode=" " horiz-adv-x="508" 
 />
    <glyph glyph-name="space" unicode="&#xa0;" horiz-adv-x="508" 
 />
    <glyph glyph-name="exclam" unicode="!" horiz-adv-x="316" 
d="M80 92v0q-2 -9 -3 -19q6 2 11 -1v1l-1 1q-5 9 -7 18zM83 42v0q3 -5 8 -8q11 -7 24 -9q-17 7 -32 17zM209 64v0q12 14 12.5 38.5t-10.5 39.5q-13 16 -34 19.5t-41 2.5q-27 -16 -31 -46q-1 -19 9 -34.5t26 -24.5t35.5 -8.5t33.5 13.5zM180 526v0q30 445 6 890q-32 3 -64 -5
v0l-1 -1q4 -4 4 -11q7 -201 -18 -401q-2 -238 5 -475v0v0v-1v-1q1 -11 1 -23v-23q1 -5 1 -9v-10v-2v0v-5l2 -94q38 4 77 2q-5 1 -8 4.5t-4 10.5q-4 67 -2 136v0l-1 1q1 1 1 2v2v3v10v0h1z" />
    <glyph glyph-name="quotedbl" unicode="&#x22;" horiz-adv-x="0" 
d="M-241 1556v0q-6 -4 -7 -10q5 3 11 3v4q-1 3 -1 5v0q-2 -1 -3 -2zM-137 1387v0q7 81 18 162q-39 16 -80 16h-11q10 -149 22 -298q8 2 17 3l12 2h5q4 1 6.5 2t4.5 5q1 3 1 7.5v9.5v6q2 43 5 85zM-3 1545v0q-6 -5 -7 -11q5 4 11 3q0 3 -1 5v5q0 -1 -1 -1t-2 -1zM101 1376v0
q6 81 17 161q-38 16 -79 16q-5 1 -11 0q10 -149 22 -297q8 1 17 2l12 2q3 1 5 1q4 0 6.5 1t4.5 5q1 3 1 8v9v7q2 42 5 85z" />
    <glyph glyph-name="numbersign" unicode="#" horiz-adv-x="1070" 
d="M811 1339q-12 -16 -31 -172q-38 -164 -55 -164q-16 0 -36 -31h-13v6l7 12q-7 0 -7 6q0 -10 -207 -24q0 6 -6 6l42 354q-53 -18 -79 -18q-23 -366 -49 -366q-235 -26 -275 -68v-18l6 -12q20 18 220 36l12 -18v-37l-55 -317v-74q0 -47 -91 -55l-202 -49v-42l6 -12
q254 73 300 73l6 -12v-7q-20 0 -49 -244h30v6q0 40 37 196q0 73 134 73q25 11 165 43l7 -12q-37 -110 -68 -294v-49q34 7 49 7q55 355 74 378q24 0 201 31q9 0 86 6v55q-19 0 -19 6q-38 -18 -220 -37h-24q-12 0 -12 13q23 0 36 183q57 243 74 281h6q6 0 18 -6q158 12 281 49
v36h-18q-29 0 -263 -24q-6 12 -6 18q11 54 18 135q-6 23 -6 55q13 29 13 91zM719 929l6 -12q-24 -113 -61 -416l12 7q10 0 19 -19q0 -12 -147 -36q-49 -25 -208 -49l-12 18v6q12 110 61 312q17 153 37 153h43q148 12 250 36z" />
    <glyph glyph-name="dollar" unicode="$" horiz-adv-x="646" 
d="M244 1186v0q7 3 13.5 -1.5t6.5 -13.5q-13 -105 -12 -210q0 -7 -4 -10v-1v-1v1h-1q-6 -5 -14 -3t-9 12v4v3q-28 21 -46.5 51t-17.5 66q4 36 28 63.5t56 44.5v-3v-2zM202 1119v0q-22 -34 -7 -74q5 -12 12 -23q-4 48 1 95q-3 0 -6 2zM454 737v0q36 -82 42.5 -171t-34.5 -171
q-5 -35 -21 -67q-31 -57 -91 -81q-26 -10 -54 -15q1 14 1 28h2l1 1v14q-5 276 -9 552q0 7 3.5 10.5t9.5 4.5v1v1q1 -1 2 -1q1 -1 2 -1q4 -1 7 -4q14 -6 28 -14q50 -12 88 -52q13 -14 20 -31q2 -1 3 -4zM438 694v0q-4 13 -16 20q-3 1 -4 3q15 -31 25 -64q-1 21 -5 41z
M417 745v0q-8 1 -16 3q7 -12 14 -25q-1 4 1 8.5t5 6.5q-2 4 -4 7zM48 1009v0h3q-2 3 -3 5v2v-7zM385 1173v0l2 8q-25 6 -51 6q25 -5 49 -14zM27 248v0q-4 -9 -9 -17q5 8 9 17zM197 84v0q0 3 -1 6v10h-3h-2q1 -7 2 -15q2 0 4 -1zM212 -59v0q8 0 16 1l-1 1h-1q-6 3 -7 8.5
t1 10.5q-4 0 -8 2v-23zM295 118v0q39 -2 75 6q-7 3 -8 9q-33 -10 -67 -13v0v-2zM577 552v0v17q0 47 -3.5 95.5t-18.5 92.5q-18 45 -55 74t-81 47q-29 12 -59 22q-22 8 -44 17q-4 -5 -10 -6t-10.5 2t-5.5 10q-6 130 7 259v28q51 11 102 -3q0 1 1 2q-1 11 0 22q-1 5 1 9
q3 21 9 41q-39 6 -80 8v-1v0q-1 -8 -6.5 -10t-12 1t-8.5 10h-1t-2 -1l2 28h1h2q1 30 1 59q-13 4 -25 5q-1 1 -2 1q-3 0 -7 0.5t-7.5 0.5h-4.5q1 0 1 -1t0.5 -2.5t1 -3.5t0.5 -3v-1q2 -26 1 -51v-26q-1 -9 -8 -12.5t-13 -0.5q-37 -8 -70 -26q-48 -27 -76.5 -73t-24.5 -102
q1 -7 -3.5 -10.5t-9.5 -3.5q29 -96 108 -158q7 -6 4 -14v0q1 0 1 -1q39 -11 77 -26v-58v0h-1h-2l-1 1v0v0v0h-1v0q9 -139 -6 -278q-14 -138 -6 -275h11v-6v-22q-4 0 -8 1v0q-2 -8 -8 -10.5t-12.5 0.5t-7.5 11v0v1h-3h-2q-5 -3 -10.5 -2.5t-8.5 5.5q-33 5 -65 11l-58 10
q-9 -31 -29 -55q99 -49 208 -55q-1 -22 -2 -45v-4v-2q-6 1 -12 1h-1q3 -52 7 -103q20 3 40 5l-4 122q0 7 5 10.5t10.5 3.5t9.5 -4v4q1 7 1 14q76 7 143 50q84 61 114 157.5t27 196.5zM217 683v0q1 -1 2 -3q2 47 -1 93v-4q-2 -32 -2 -65q0 -10 1 -21z" />
    <glyph glyph-name="percent" unicode="%" horiz-adv-x="1001" 
d="M114 83v0q-1 1 -1 2q0 -1 -1 -1q0 -1 -1 -2q2 1 3 1zM121 49v0q-2 -1 -4 -3q6 -3 11 -6q-4 4 -7 9zM672 1066v0q28 61 55 123q28 62 55 124q-4 0 -7 4q-6 6 -15 7.5t-18 1.5q-7 1 -13 1q-6 1 -12 3q-5 -5 -12 -3q0 -2 -1 -3t-2 -3q-2 -4 -6 -5q-61 -136 -121 -272
q-211 -478 -409 -962q23 -5 46 -11q10 -2 19 -4q75 124 138 253q58 120 105 244q24 62 44 125q21 64 45 127q36 91 78 180q15 35 31 70zM103 784v0v0v0q-20 2 -39 7q19 -6 39 -7zM-90 1063v0q4 10 9 19q-6 -6 -11 -13zM7 810v0q2 2 4 3q-8 4 -16 9zM-89 919v0v0v0
q-12 28 -15 58q-4 38 9 74v0l-1 -1q-12 -9 -13 -25t1 -30l1 -1q3 -34 11 -67q1 -1 1 -2t1 -2q3 0 5 -4zM267 904v0q15 48 0 95.5t-52 80.5q-41 34 -93.5 44.5t-104.5 0.5q-4 -1 -8 1q-52 -22 -73 -73t-6 -104q17 -53 59.5 -88t96.5 -46q15 -3 31 -4q4 4 10 4h2q5 0 8 -3
q43 4 78.5 27.5t51.5 64.5zM158 1061v0q31 -17 57 -47.5t21 -66.5l-4 -14l1 -1v-2q1 -5 -1.5 -9t-6.5 -7q-25 -52 -89 -50q-79 5 -129 66q-19 28 -18.5 62t24.5 59q-6 8 -2 16q11 14 33 16.5t38 0.5q41 -4 76 -23zM811 173v0v0v1q-20 1 -39 6q19 -6 39 -7zM975 294v0
q15 47 0.5 94.5t-52.5 80.5q-41 35 -93.5 45t-104.5 0q-4 -1 -8 1q-52 -22 -73 -72.5t-6 -104.5q17 -52 59.5 -87.5t96.5 -46.5q15 -3 31 -3q4 3 10 3q1 0 2 1q5 0 8 -3q43 4 78.5 27t51.5 65zM866 450v0q31 -16 57 -47t21 -67q-2 -7 -4 -13q1 -1 1 -2v-2q1 -5 -1.5 -9
t-6.5 -6q-25 -52 -89 -51q-79 6 -129 66q-19 28 -18.5 62t24.5 60q-6 7 -1 15q10 15 32 17t38 0q41 -3 76 -23z" />
    <glyph glyph-name="ampersand" unicode="&#x26;" horiz-adv-x="689" 
d="M536 116v-4h8v4h-8zM272 940v-4l8 4h8q72 -42 72 -200q0 -61 -40 -112h-12q-4 0 -4 4l-8 -4h-20q-84 29 -84 124q0 8 -8 48l4 8l-4 24v8q0 52 68 96zM429 580q19 26 19 64v84l-4 20h4q-4 10 -8 40l4 16q-20 168 -44 168q-17 24 -36 24v4q-4 0 -4 -4l-16 4q-5 0 -32 -12
q-12 4 -12 8l-8 -4l-16 12q-9 0 -16 -4q-7 4 -16 4q-46 -9 -84 -52q-64 -83 -64 -176h-4q0 -108 68 -196q19 -12 44 -20q16 4 16 20h8q8 -1 8 -8v-20q-8 -10 -20 -40q-97 0 -160 -236q0 -20 -4 -60l12 8q4 -24 8 -24l-4 -20v-28q1 -8 8 -8l12 8h16v-8l-12 -16q18 -28 40 -28
v12h4q34 -40 60 -40q7 0 80 8l4 -8q-9 -9 -48 -16v-4q32 -8 76 -8h28l-8 12q0 8 12 8q13 -8 24 -8h16q57 21 68 36l12 -8q36 29 36 36q-6 0 -12 12v8q0 6 16 16h12q0 20 28 20q17 -47 64 -68l48 -16q6 0 20 24q0 64 -56 64q-80 41 -80 60v4q47 21 68 76l40 76q-46 20 -60 20
q-8 -9 -16 -64q-15 -32 -20 -32l4 -8v-4q0 -6 -24 -24h-16q-40 40 -40 80q8 13 8 20q-22 41 -36 80q-46 30 -80 32l-4 8q2 8 4 14q-2 2 -3 6q5 17 68 56zM280 488h20l52 -28q104 -80 104 -196q0 -138 -112 -164h-12q-108 0 -152 28q-60 64 -60 132h4l-4 8v40q31 132 56 132
q50 41 104 48z" />
    <glyph glyph-name="quotesingle" unicode="'" horiz-adv-x="229" 
d="M58 1621v0q-6 -5 -8 -11q5 4 11 3v5q0 2 -1 4v0q-1 -1 -2 -1zM161 1452v0q7 81 18 161q-38 16 -80 16q-5 1 -11 0q10 -149 22 -297q9 1 17 2l12 2q3 1 5 1q4 0 6.5 1t4.5 5q1 3 1 8v9v7q2 42 5 85z" />
    <glyph glyph-name="parenleft" unicode="(" horiz-adv-x="487" 
d="M433 1526q-128 -103 -241 -294q-118 -234 -118 -425v-213q0 -51 62 -267q33 -220 242 -458q49 -50 74 -108l105 27q0 9 -99 131q-217 343 -217 462q-37 67 -37 254v212q24 244 68 290q0 28 198 267q8 31 44 64v4q-50 54 -81 54z" />
    <glyph glyph-name="parenright" unicode=")" horiz-adv-x="489" 
d="M-173 1539q87 -70 144 -179q36 -108 96 -187q76 -128 117 -321q39 -55 75 -499q0 -81 -68 -279q13 -2 13 -10q-27 -8 -96 -119q-137 -155 -137 -160l96 -41q208 165 240 275q89 201 89 384v51q0 265 -109 645l-55 115q-48 93 -131 151l-103 133l-75 82h-14
q-82 -33 -82 -41z" />
    <glyph glyph-name="asterisk" unicode="*" horiz-adv-x="129" 
d="M319 1308h4v28l4 20h-20q-38 0 -156 -16q-22 0 -56 -4l-8 16q6 14 38 39q32 41 66 79q-39 30 -52 30q-32 -50 -60 -86l-17 -27q0 -7 -5.5 -10.5t-10.5 -1.5q-2 0 -4 1h-7q-6 0 -36 60l-60 81q-10 -2 -20 -6q-8 -3 -14 -5l-19 -5l-6 -1q52 -52 93 -113l22 -34q1 -3 1 -5
q4 -6 7 -12v-12q0 -8 -8 -8h-8q-77 23 -123 34q-41 4 -82 4l-7 -50q14 -4 26 -7q32 -2 63 -4q48 -3 95 -7q11 -1 12 -9q1 -6 -4 -11v-6q-13 -9 -23 -19q-6 -5 -11 -10q-25 -27 -34 -59q0 -7 -22 -35q-5 -6 -10 -13v-4q7 0 60 -24q2 8 4 15l12 -6q45 73 89 147q3 4 6 5
q3 5 8.5 6.5t10.5 -3.5q34 -40 68 -81q2 -3 5 -5l36 -42l41 20l16 8q-21 32 -36 52q-19 19 -39 37q-37 15 -37 19v9q-2 4 0 8q0 7 6.5 11t14.5 -1q25 2 51 3l54 4q9 0 18 1l41 2q4 1 8 1q6 1 12 1q2 0 3 1zM-202 1265q-12 2 -21 5q2 -1 4 -4q2 0 4 -1h13z" />
    <glyph glyph-name="plus" unicode="+" horiz-adv-x="354" 
d="M-138 757v0l1 -1q0 -3 0.5 -4l0.5 -1v3v16v16q-1 -4 -1.5 -10.5t-0.5 -11.5v-7zM221 727v0l1 -1h1v0q0 1 1 1q2 1 5 3q2 1 4 3q-1 -1 -3 -1q-6 0 -13 -1v-4h4zM249 731v0q23 3 46 4q-25 0 -49 -2q2 -1 3 -2zM117 853v0h-1v-3v-4h1h1v1v0v1v5v0h-1zM109 1040v0l-8 -6
q5 -34 8 -69q1 38 0 75zM117 718v0v3v3v0v0q0 -3 -2 -6h2zM189 739v0q0 7 4.5 10.5t9.5 2.5q4 6 11 7q104 10 207 -6v0v0q-1 21 1 42q1 3 2 5q-57 6 -114 13q-53 6 -107 12q-9 2 -12 10t2 14v1v2v0v0v0v0q-14 100 -10 200h-4q-16 1 -32 0q-1 -107 -1 -214q0 -6 -3 -9.5
t-7 -4.5q-4 -4 -10 -5q-117 -13 -234 -22v-10v-21q118 -10 236 -8q6 0 9.5 -4t4.5 -10q5 -3 4 -11q-10 -115 -9 -231q29 0 57 -2q-1 60 -3 120q-1 60 -2 119z" />
    <glyph glyph-name="comma" unicode="," horiz-adv-x="183" 
d="M-21 -103v0l30 46q-16 -22 -31 -46h1v0zM128 -21v0q4 5 7 9q32 38 50.5 79.5t-9.5 88.5q-17 26 -41 41t-55 11q-3 0 -5 -1v0q-3 -5 -10 -6q-30 -3 -48.5 -24t-10.5 -51q9 -28 38 -36q8 -3 17 -4q16 -2 30 -9q17 -14 8.5 -35.5t-21.5 -38.5q-4 -7 -7 -12q-25 -42 -51 -82
h1q1 -1 2 -1q6 -1 16 -6q9 -5 17.5 -8t14.5 0q3 1 5.5 5.5t4.5 8.5q1 3 3 6q7 12 15 25q14 21 29 40z" />
    <glyph glyph-name="hyphen" unicode="-" horiz-adv-x="334" 
d="M161 767v0q-27 2 -54 5q-75 12 -149 2q7 -32 9 -66q10 -2 23 -2h19h2h63q42 0 84 -1h42h50h76h10h19.5t18.5 -2v0v0q12 30 -8 56q-1 2 -1 3q-102 -2 -204 5zM133 678v0q0 -1 -1 -2l222 -4q-2 3 -2 6q-8 0 -15 -1h-7h-35h-45h-22q-48 0 -95 1zM-68 702v0q-1 1 -3 1
q0 -5 1 -10v-5h2q5 1 10 1q-7 6 -10 13z" />
    <glyph glyph-name="hyphen" unicode="&#xad;" horiz-adv-x="334" 
d="M161 767v0q-27 2 -54 5q-75 12 -149 2q7 -32 9 -66q10 -2 23 -2h19h2h63q42 0 84 -1h42h50h76h10h19.5t18.5 -2v0v0q12 30 -8 56q-1 2 -1 3q-102 -2 -204 5zM133 678v0q0 -1 -1 -2l222 -4q-2 3 -2 6q-8 0 -15 -1h-7h-35h-45h-22q-48 0 -95 1zM-68 702v0q-1 1 -3 1
q0 -5 1 -10v-5h2q5 1 10 1q-7 6 -10 13z" />
    <glyph glyph-name="period" unicode="." horiz-adv-x="209" 
d="M191 74v0q16 25 22.5 54.5t-8.5 57.5q-17 27 -46 41q-13 9 -24 11l-4 -2q-31 -9 -64 -29t-46 -51q-5 -17 -1.5 -36.5t12.5 -34.5q20 -28 53 -40v0q15 -8 33 -13.5t34 1.5q13 7 22 18.5t17 22.5z" />
    <glyph glyph-name="slash" unicode="/" horiz-adv-x="538" 
d="M-31 35v0q0 1 -1 3q0 -2 -1 -4q1 1 2 1zM-24 -4v0q-2 -1 -3 -2q5 -4 11 -8zM527 1153v0q39 97 77 194q17 43 34 87q-4 0 -8 4q-6 7 -15 9t-18 2q-7 0 -13 1t-12 3q-4 -6 -11 -4l-2 -2l-2 -4q-2 -4 -5 -6q-61 -154 -121 -309q-212 -543 -409 -1094q18 -5 36 -9
q15 -4 29 -8q74 141 137 288q58 136 106 277q23 71 43 143q21 72 45 144q36 104 78 205q16 39 31 79z" />
    <glyph glyph-name="zero" unicode="0" horiz-adv-x="756" 
d="M186 1171l4 -8l-40 -192l4 -8q-8 -39 -8 -44q4 -79 4 -104q-4 -101 -12 -136q0 -4 4 -4q-16 -133 -16 -152l4 -8q-4 -7 -4 -16v-12q0 -9 4 -16q-4 -7 -4 -16q1 -40 8 -40q0 -4 -4 -12q0 -20 8 -120h-4q16 -90 40 -120q57 -46 108 -52q0 -4 4 -4q0 4 4 4q0 -12 132 -24
q89 0 160 112q48 114 48 120q-8 24 -8 60l4 8q0 4 -4 4q12 110 12 136v88q8 68 8 76v16q0 4 4 4q0 4 -4 4q4 116 20 208v84q0 17 4 44l-4 8l8 60l-4 8q0 4 4 4l-4 48v40q0 4 4 4q-11 104 -32 104l-32 40l8 12q-8 0 -44 32q-48 16 -88 16h-20q-117 0 -244 -176zM502 1347
q57 0 108 -100q8 -43 8 -56v-28q0 -79 -12 -116l4 -8l-8 -16q0 -4 4 -4q-7 -68 -20 -68q-11 -20 -12 -100v-20q0 -4 -4 -4l4 -8v-12q0 -35 -20 -216q4 -8 4 -12q-21 -117 -28 -132q0 -4 4 -4q-16 -113 -16 -124q8 -13 8 -20q-58 -92 -112 -92q0 -4 -16 -12h-32q-7 8 -72 16
q-68 50 -68 76q-4 12 -16 100h4q0 4 -4 4q14 157 20 168q0 4 -4 4l4 20v28q0 4 4 4q0 4 -4 4l4 40v8q0 9 -4 16q4 7 4 16v12q0 9 -4 16q4 44 8 44l-4 8v4q0 4 4 4l-4 8v24q0 13 4 20l-4 16l4 56l-4 8q36 192 36 204q-4 7 -4 16q27 112 72 140q83 48 124 48q21 20 40 20z" />
    <glyph glyph-name="one" unicode="1" horiz-adv-x="336" 
d="M85 1201v-4q8 -10 12 -40h8q7 13 52 72q12 48 24 48h8q9 0 16 -28q-4 -12 -8 -12l4 -8v-16l-4 -24q4 -7 4 -20q0 -4 -4 -4l4 -8q-13 -100 -16 -100q0 -4 4 -4q-4 -67 -12 -104q4 -8 4 -12h-4q4 -8 4 -12q0 -28 -4 -104l4 -8q-9 -92 -12 -92q4 -8 4 -12q-10 -112 -16 -112
q0 -4 4 -4q-16 -120 -16 -124v-40q-9 -64 -12 -64l4 -8q-8 -39 -12 -128q4 0 4 -4q-11 0 -20 -140q33 4 40 8q7 -4 16 -4q8 0 8 8t-8 40h4l-4 8q12 20 12 32q0 13 -4 20q4 27 4 44v76q0 4 4 4q0 4 -4 4q8 33 12 64q0 4 -4 4q4 80 16 148q-4 8 -4 12q14 0 24 220q8 0 8 40
q0 4 -4 12l4 8q-4 8 -4 12h4q0 4 -4 4q4 104 12 164q0 4 -4 4q12 61 12 76v20q0 4 4 4q0 4 -4 4q8 53 8 104v8q0 9 4 16q-4 8 -4 12h4l-4 8q0 4 4 4q0 4 -4 4l4 20q0 9 -4 16q4 7 4 16q0 7 -8 20q4 8 4 12q-4 0 -4 4q-30 -3 -68 -48q-29 -44 -72 -84z" />
    <glyph glyph-name="two" unicode="2" horiz-adv-x="484" 
d="M135 1187q6 -16 12 -16q7 0 28 56q33 46 76 64l8 -4q1 8 8 8h12q107 0 136 -60q20 -30 20 -60q4 0 4 -4q-8 -13 -8 -20l4 -24q-5 0 -24 -68q-37 -61 -84 -116q-35 -65 -96 -144q-80 -142 -80 -164q-13 -53 -36 -108l4 -8q-3 -16 -8 -16q0 -4 4 -4q-21 -91 -24 -96l4 -8
q-32 -113 -32 -184v-36l-4 -8q8 -1 8 -8v-4q0 -8 -8 -8l4 -8q0 -4 -4 -4q0 -4 4 -4q-4 -52 -8 -52l8 -36l8 4q49 0 180 16q30 0 44 4l8 -4q7 4 16 4v-4l8 4h28l28 -4q0 16 8 16l-4 8l8 16q-16 3 -16 8q-4 0 -4 -4l-20 4h-20q-9 0 -16 -4q-28 4 -28 8l-8 -4h-4q-4 0 -4 4
l-8 -4h-44l-24 -4q-7 4 -20 4h-8l-20 -4q0 4 -4 4q0 -8 -8 -8h-16l-12 8q5 71 8 76q0 4 -4 4l4 20v40q13 167 20 196l-4 8q7 15 20 116q73 194 120 248q0 11 72 92q76 99 76 120q23 72 36 152l-4 20v32q0 81 -88 96q-48 8 -52 8q-99 -22 -132 -60q-39 -49 -44 -92h-4z" />
    <glyph glyph-name="three" unicode="3" horiz-adv-x="416" 
d="M323 1376q-9 0 -16 4q-22 -4 -36 -4q-16 0 -72 4q-4 0 -4 -4l-20 4h-40q-8 0 -20 -52l40 12h44q17 0 44 4q24 -4 24 -8l8 4h4q4 0 4 -4q15 8 32 8h8q8 -1 8 -8v-20q-39 -58 -84 -196q-136 -317 -136 -360h12q118 0 172 -100q24 -10 48 -60v-12l-20 -144
q-21 -79 -128 -224q-80 -72 -140 -72v4q-4 0 -4 -4q-22 0 -80 48q0 -8 -4 -8q0 -4 4 -4l-4 -20q56 -63 88 -68q7 4 16 4v-4q205 0 288 432q0 8 -4 8l4 28v24q-30 148 -68 148q-46 52 -56 52h-20q-12 0 -32 -12q-24 8 -24 16q16 25 32 100q8 0 24 68q145 343 180 408q4 0 4 4
q-4 7 -4 16q-20 0 -72 -12z" />
    <glyph glyph-name="four" unicode="4" horiz-adv-x="620" 
d="M31 486h16q40 0 88 -13q22 4 36 4q32 -1 32 -9q18 9 52 9q29 -9 32 -9q8 0 72 9q0 -4 4 -4q-8 -42 -8 -125v-74q0 -4 -4 -4l4 -8v-74q0 -9 -4 -17l4 -9q-4 -56 -8 -56q4 -8 4 -13q-8 -14 -8 -25v-48l56 22l8 -5q12 76 12 156h4l-4 8v26q0 4 4 4q0 5 -4 5q0 4 4 13
q-4 23 -4 34l4 9l-8 30q4 29 4 47v43l8 13v18l-8 13q8 19 16 21h12q8 -1 8 -9q44 9 44 18l20 -5q68 5 68 18q-8 32 -8 43q-69 4 -72 8q-4 0 -4 -4q-32 3 -32 9q-38 -13 -40 -13q-12 16 -12 26q20 44 20 64l-4 22h4l-4 8l16 113q-4 8 -4 12q4 30 8 39q-4 9 -4 13h4l-4 9v4
q0 4 4 4q-4 26 -8 26l4 22v39q0 9 -4 17l4 9l-4 8q8 47 8 99v9q0 4 4 4l-4 9l4 17l-4 9l4 8l-4 18l4 8l-4 9q3 47 8 47q0 5 -4 5q8 29 12 90q-8 47 -8 60h4l-4 9v43q0 8 -52 17q-32 -7 -52 -60q0 -18 -48 -138q-80 -218 -108 -271l-148 -427zM411 1335l8 -13v-9
q-8 -43 -12 -43l4 -8v-56q0 -10 4 -18q-4 -7 -4 -17v-8q0 -10 4 -18q0 -4 -4 -4l4 -22q0 -10 -4 -64q4 -8 4 -17h-4q0 -5 4 -5q-9 -159 -16 -159q4 -7 8 -56l-4 -9l4 -9q-7 -17 -24 -172l4 -9v-13q0 -4 -4 -4l4 -8q0 -32 -12 -35h-12l-16 13q-13 -9 -20 -9q-20 0 -20 9
l-20 -4h-36q-58 0 -132 -9l-12 17v5q31 39 112 228q32 78 76 224q42 138 112 302h4zM303 59v-22h4v22h-4zM283 -23v-4h8v4h-8z" />
    <glyph glyph-name="five" unicode="5" horiz-adv-x="492" 
d="M131 1298q-16 -270 -28 -324q0 -4 4 -4q-8 -63 -8 -72l4 -20l-4 -16l4 -16q-8 -40 -8 -48l4 -20q-4 0 -4 -4h8q35 24 108 24q4 0 4 -4l8 4h40q100 -41 100 -108q8 0 8 -16h-4q12 -47 12 -80q0 -114 -80 -332q-37 -64 -120 -64q-51 0 -88 48q-52 -31 -52 -52v-4
q46 -60 100 -60q108 20 108 44q116 39 116 80q46 60 68 216q5 16 8 16l-4 8q20 55 20 120l-4 16q4 34 4 52q-5 84 -60 172q-60 36 -96 36q-121 0 -148 -44l-8 -4l-4 8q24 401 24 420q16 8 24 8q0 -4 16 -12q4 0 4 4l20 -4h100q29 0 68 -12v48h-4q-22 0 -76 4q-4 0 -12 -4
q-36 8 -96 8h-16l-28 -8q0 8 -8 8q-18 -12 -24 -12z" />
    <glyph glyph-name="six" unicode="6" horiz-adv-x="693" 
d="M106 637q0 -4 4 -4q-2 -36 -8 -36q0 -4 4 -4q-9 -106 -16 -132q0 -4 4 -4q-8 -46 -8 -96q0 -83 108 -188q19 -18 100 -36q4 0 4 4l20 -4h36q4 0 4 -4q67 8 160 36l88 104q27 42 52 176l-4 8v4q0 4 4 4q0 4 -4 4l4 20q-4 21 -4 24h4q-26 111 -88 160q-23 37 -128 64
q-145 0 -240 -164q-7 -4 -16 -4q-12 4 -12 24l36 128q0 4 -4 4q42 191 104 332q19 49 80 88q34 52 48 52q29 24 32 24q0 -4 4 -4q0 7 76 24q46 0 76 -28q20 30 20 52v8l-40 20q-13 -8 -20 -8q0 8 -48 20q-108 -24 -140 -56q-8 -12 -64 -52q-66 -63 -112 -176
q-64 -133 -92 -260q-12 -88 -24 -124zM362 673h24q120 0 184 -120q12 0 28 -56h-4l4 -8v-52q0 -4 -4 -4l4 -8v-4q0 -4 -4 -4q0 -4 4 -4q-30 -116 -60 -116q-39 -36 -48 -36l-36 -4l-8 4q-16 -8 -44 -8h-20q-4 0 -4 4l-8 -4q-4 0 -4 4q-4 0 -4 -4q-77 9 -144 72
q-19 18 -32 64q-6 0 -12 12v12q7 92 28 92q24 23 60 88q79 80 100 80z" />
    <glyph glyph-name="seven" unicode="7" horiz-adv-x="535" 
d="M58 1217q-8 4 -12 4q-12 -15 -12 -24q0 -18 44 -28h56q9 0 16 -4l8 4l164 -24q7 4 16 4v-4q4 0 64 16l20 -4q1 8 8 8h20q9 0 12 -20q-67 -105 -104 -236q-35 -45 -80 -168q-69 -131 -112 -300q-116 -244 -116 -252q-14 -19 -52 -108q-4 0 -4 -4v-8h4q49 0 76 92
q72 144 116 256q100 210 176 408q36 90 136 280q21 67 56 112q-8 0 -8 4l-8 -4h-40q-152 3 -152 12q-4 0 -4 -4q-42 8 -172 12q-55 0 -116 -20z" />
    <glyph glyph-name="eight" unicode="8" horiz-adv-x="740" 
d="M145 1189l8 -68q-4 -22 -4 -32q30 -125 96 -176l48 -44v-8q-37 -23 -64 -56q0 8 -8 8l-44 -64q12 0 12 -8q-53 -77 -76 -256v-20q39 -243 64 -272q89 -160 224 -160h20q108 33 160 100q0 3 60 116q36 127 36 228q-4 8 -4 12q4 8 4 12q-4 8 -4 12h4l-4 8v4q0 43 -28 168
q-36 97 -72 120q-50 56 -84 56l-8 -4h-4q-12 0 -16 32q0 33 48 68q64 102 64 172v48q-22 184 -44 184q0 29 -104 76h-60q-69 -9 -144 -76q0 -6 -48 -64q-28 -67 -28 -116zM377 1377h4q96 -27 96 -64q12 0 32 -88q-31 -239 -64 -280l-32 -28l-8 4q-21 -24 -52 -24
q-96 27 -96 72q-19 27 -40 84q8 16 8 24q-12 42 -12 84q35 192 96 192q25 24 68 24zM445 845q56 -8 88 -36q80 -69 80 -156q5 0 12 -24q-3 -16 -8 -16l4 -8q0 -4 -4 -4l4 -20v-36q0 -12 -4 -12l4 -20q0 -200 -60 -280q-11 -48 -20 -48q-12 0 -60 -56l-80 -32q-72 0 -136 104
q-46 63 -68 228q23 272 60 272q36 87 80 108q6 0 40 16q15 0 48 16q8 -4 12 -4q1 8 8 8z" />
    <glyph glyph-name="nine" unicode="9" horiz-adv-x="596" 
d="M75 1155l4 -8q-23 -38 -28 -80q-13 0 -16 -88v-8h4v20h8q14 -148 84 -148q22 -27 112 -68l8 4q38 -4 44 -8q27 4 44 4h64l8 -4q-4 -40 -8 -40l4 -8q-4 -138 -104 -376q-25 -81 -136 -200q-88 -90 -132 -96q0 -12 -32 -12q0 -33 32 -52v-4q88 0 296 264q41 71 92 172
q56 155 100 332l40 132v36q0 78 -8 136h4q-20 115 -72 164q-41 52 -92 52v4l-8 -4h-16q-4 0 -4 4l-8 -4l-24 4q-78 0 -200 -60q0 -6 -60 -60zM319 1219q12 0 44 -20q0 10 16 12q26 0 80 -64q0 -4 4 -12l-4 -8q4 -16 12 -28q0 -4 -4 -4q16 -41 16 -44q-8 -32 -8 -52l4 -8
q-20 -100 -72 -152q0 -6 -16 -16q-8 0 -8 8l-28 -12q-134 0 -196 76q-18 0 -40 60q-8 0 -12 36h4q-8 13 -8 24v4q0 100 56 124q66 76 160 76z" />
    <glyph glyph-name="colon" unicode=":" horiz-adv-x="281" 
d="M165 74v0q16 25 22.5 54.5t-8.5 57.5q-17 27 -46 41q-13 9 -24 11l-4 -2q-31 -9 -64 -29t-46 -51q-5 -17 -1.5 -36.5t12.5 -34.5q20 -28 53 -40v0q15 -8 33 -13.5t34 1.5q13 7 22 18.5t17 22.5zM165 860v0q16 25 22.5 54.5t-8.5 57.5q-17 27 -46 41q-13 9 -24 11l-4 -2
q-31 -9 -64 -29t-46 -51q-5 -17 -1.5 -36.5t12.5 -34.5q20 -28 53 -40v0q15 -8 33 -13.5t34 1.5q13 7 22 18.5t17 22.5z" />
    <glyph glyph-name="semicolon" unicode=";" horiz-adv-x="270" 
d="M-69 -103v0l30 46q-16 -22 -31 -46h1v0zM80 -21v0q4 5 7 9q32 38 50.5 79.5t-9.5 88.5q-17 26 -41 41t-55 11q-3 0 -5 -1v0q-3 -5 -10 -6q-30 -3 -48.5 -24t-10.5 -51q9 -28 38 -36q8 -3 17 -4q16 -2 30 -9q17 -14 8.5 -35.5t-21.5 -38.5q-4 -7 -7 -12q-25 -42 -51 -82h1
q1 -1 2 -1q6 -1 16 -6q9 -5 17.5 -8t14.5 0q3 1 5.5 5.5t4.5 8.5q1 3 3 6q7 12 15 25q14 21 29 40zM143 860v0q16 25 22.5 54.5t-8.5 57.5q-17 27 -46 41q-13 9 -24 11l-4 -2q-31 -9 -64 -29t-46 -51q-5 -17 -1.5 -36.5t12.5 -34.5q20 -28 53 -40v0q15 -8 33 -13.5t34 1.5
q13 7 22 18.5t17 22.5z" />
    <glyph glyph-name="semicolon" unicode="&#x37e;" horiz-adv-x="270" 
d="M-69 -103v0l30 46q-16 -22 -31 -46h1v0zM80 -21v0q4 5 7 9q32 38 50.5 79.5t-9.5 88.5q-17 26 -41 41t-55 11q-3 0 -5 -1v0q-3 -5 -10 -6q-30 -3 -48.5 -24t-10.5 -51q9 -28 38 -36q8 -3 17 -4q16 -2 30 -9q17 -14 8.5 -35.5t-21.5 -38.5q-4 -7 -7 -12q-25 -42 -51 -82h1
q1 -1 2 -1q6 -1 16 -6q9 -5 17.5 -8t14.5 0q3 1 5.5 5.5t4.5 8.5q1 3 3 6q7 12 15 25q14 21 29 40zM143 860v0q16 25 22.5 54.5t-8.5 57.5q-17 27 -46 41q-13 9 -24 11l-4 -2q-31 -9 -64 -29t-46 -51q-5 -17 -1.5 -36.5t12.5 -34.5q20 -28 53 -40v0q15 -8 33 -13.5t34 1.5
q13 7 22 18.5t17 22.5z" />
    <glyph glyph-name="less" unicode="&#x3c;" horiz-adv-x="534" 
d="M470 890q-25 -9 -70 -22q-133 -56 -340 -156q-100 -43 -108 -56q29 -35 64 -52q1 8 8 8q51 -36 208 -80q14 -19 152 -76q29 -8 32 -8l28 8h36l12 -8q8 32 12 32l-4 8l4 8q-64 23 -116 56l-136 40l-8 -4h-12q-180 20 -180 48v12q47 64 152 64q102 40 188 60q2 7 124 48
l4 8v4q0 12 -4 24h-4q-8 0 -16 32q-18 0 -26 2z" />
    <glyph glyph-name="equal" unicode="=" horiz-adv-x="513" 
d="M188 829q-4 0 -4 4q-94 -8 -120 -20v4q-33 0 -40 -52v-20l4 -8l8 4h4q4 0 4 -4q4 0 4 4l16 -4q57 15 180 24v-4l8 4q4 0 4 -4l48 12v-4q25 7 92 12l8 -4q17 7 72 16q0 56 -68 56l-8 -4h-56q-19 0 -40 4q-5 0 -116 -16zM200 569l-8 4q-16 -8 -24 -8v4q-20 -8 -64 -12l-8 4
q-7 -4 -16 -4q-4 0 -4 4q-32 0 -72 -28q-12 -27 -12 -36h4q36 5 36 12q81 -4 108 -8q31 12 88 16v-4l8 4q4 0 4 -4q4 0 4 4l20 -4h16q69 0 108 8q24 -4 24 -8l8 4q9 0 16 -4q4 0 4 4l20 -4h44l8 4q-42 76 -124 76q-93 -8 -188 -24z" />
    <glyph glyph-name="greater" unicode="&#x3e;" horiz-adv-x="559" 
d="M49 875l8 -12q-7 -20 -20 -20v-28h24q33 0 196 -36h20q22 -17 128 -44q0 -4 4 -4l8 4q23 -6 36 -20v-4q0 -23 -32 -32q-77 -45 -192 -88q-108 -61 -196 -84q-20 -10 -20 -16q4 -7 4 -16l-12 -8q-8 4 -12 4q-4 -8 -4 -12q0 -17 20 -32q35 12 40 12v-4q174 92 204 92
q57 35 180 80q143 73 156 96q0 4 4 4q-13 53 -48 80q-9 0 -24 12q-4 0 -4 -4q-76 9 -76 12q-4 0 -4 -4q-65 13 -84 24q-4 0 -4 -4q-135 8 -300 52z" />
    <glyph glyph-name="question" unicode="?" horiz-adv-x="449" 
d="M-39 1210q16 0 83 -24v10q0 163 147 229q22 10 63 10q42 0 103 -44q44 -44 44 -103v-73q0 -179 -196 -351q-53 -65 -53 -391q0 -48 10 -83l24 5h19v5q14 439 54 439q5 10 108 78q127 135 127 332q0 84 -39 181q-63 83 -137 83q-20 5 -34 5q-194 0 -284 -127
q-24 -42 -39 -181zM157 266q-10 -11 -20 -88q5 -40 10 -48q73 8 73 73q0 43 -63 63z" />
    <glyph glyph-name="at" unicode="@" horiz-adv-x="939" 
d="M885 752v0q30 170 -7 339q-14 76 -50 145q-38 62 -106 88q-66 26 -141 25.5t-143 -18.5q-62 -16 -118 -47.5t-95 -83.5q-42 -62 -65 -134q-28 -75 -49 -152q-41 -154 -49 -313q-8 -79 22 -151q34 -66 82 -122q49 -58 122 -82q73 -21 149 -23q153 -6 297 41q2 1 4 1
q-3 8 -5 16q-4 13 -9 25q-70 -30 -144 -46.5t-150 -8.5q-70 8 -130.5 40t-101.5 90q-38 55 -52.5 120.5t-12.5 131.5q5 130 29 260l6 36q10 65 32 125.5t63 112.5q82 100 206 128q126 24 234 -34t149 -181q18 -71 12 -145q-3 -68 -12 -135q-16 -138 -85 -258q-5 -7 -12 -6.5
t-12 6.5q-56 6 -75 62q-19 71 -24 146q0 3 -1 5q-14 155 9 308q-21 2 -43 5q0 -9 -1 -17q-1 -16 -2 -31q-1 -6 -4 -9q-3 -7 -11.5 -9t-14.5 5q-27 34 -69 41.5t-79 -13.5q-36 -25 -54 -69t-27 -86q-1 -3 -1 -5q-26 -94 -15 -191q6 -48 26 -92q18 -47 68 -52q44 -3 88 7
t78 40q5 5 11.5 4.5t10.5 -6.5q19 -41 51 -78t83 -28q6 2 10 -1q30 19 49.5 48.5t32.5 62.5q31 79 46 163zM591 671v0q3 -26 -11 -48q-30 -39 -78.5 -44.5t-86.5 24.5q-38 34 -47.5 84.5t-3.5 98.5q5 50 26 95.5t64 74.5q7 4 12 1q34 19 72 9q54 -20 53 -78l-2 -54
q-2 -44 -1 -88q0 -32 2 -63q1 -6 1 -12zM559 758v0q0 53 3 106v4q3 24 -3 45q-2 -130 4 -260q2 18 -1 37q-1 9 -1 17q-1 25 -2 51z" />
    <glyph glyph-name="A" unicode="A" horiz-adv-x="904" 
d="M361 1316q4 -8 4 -12q-22 -41 -32 -76q-9 0 -24 -100h-4l4 -8v-4q0 -6 -12 -12l4 -8v-4q-20 -51 -36 -268l-16 -28l8 -12v-4q-9 -20 -40 -20h-48q-21 0 -36 -4q-21 4 -40 4h-52v-12l-16 -52q0 -4 16 -24q123 20 144 20h8q24 -2 24 -12v-8q0 -96 -28 -220l4 -8
q-24 -72 -44 -184q-40 -117 -52 -188h-4q11 -52 44 -52h12q17 0 40 68l-4 8v32q0 9 -4 16q8 24 12 24q-4 8 -4 12q24 58 56 260q24 72 36 164q-4 7 -4 16q10 28 16 28l-4 8q0 44 68 44q52 0 224 24q72 -125 72 -224q36 -140 96 -324q-4 -8 -4 -12q48 -104 64 -104l8 4
l20 -12h4q14 0 32 16q1 -8 8 -8q8 10 8 16q-16 44 -20 44l4 8v8l-4 28h4q-14 71 -88 180q0 43 -12 76h4q0 29 -48 156h4q-20 71 -88 248q-18 68 -32 68l4 8v4q-12 18 -12 28q4 0 4 4q-8 0 -20 60q-17 14 -52 160q-5 0 -8 16l4 8q-10 43 -36 100q4 0 4 4q-8 0 -8 8q4 0 4 4
q-9 0 -16 44q-34 52 -52 52q-68 -17 -68 -76zM429 1240h12q11 0 16 -52q-4 -8 -4 -12q24 -42 32 -100h-4l4 -8v-36q8 -8 20 -100q4 0 4 -4q-4 -8 -4 -12q0 -12 8 -32l-4 -8q8 -34 16 -48l-4 -8q8 -18 8 -40q-9 0 -172 -32l-12 16v44l-4 48l8 4l-4 8v12h8v12q0 9 4 16
q-4 8 -4 12q7 0 12 28l-4 24v28q0 4 4 4l-4 8q15 57 32 172l-4 8v4q0 13 28 16v4l-8 12z" />
    <glyph glyph-name="B" unicode="B" horiz-adv-x="713" 
d="M168 1432h-28q-55 0 -102 -64l195 -1368q23 12 61 12h23l33 16q4 0 4 -4q81 25 89 48q135 100 135 172q-5 7 -5 16q7 0 14 12v4q-23 3 -23 12l9 20q-4 0 -4 4q26 0 60 156l-5 8q10 15 19 60q-23 176 -51 176q-108 92 -126 92q-38 -7 -51 -16q-28 4 -28 12v12q0 7 56 44
q19 18 60 148q0 4 -4 4q0 4 4 32l-4 28q4 16 4 32q-4 8 -4 12h4q-6 24 -14 24l5 8v8l-9 12l4 8q0 8 -9 28l5 8q-12 67 -65 124q-39 68 -89 68q-26 13 -84 28l-9 -4q-60 6 -60 12zM234 1408q23 -32 72 -32q36 -54 60 -128q32 -70 52 -96q0 -23 4 -28q-4 -8 -4 -12q4 -8 4 -12
h-4q0 -4 4 -4q0 -140 -88 -240q-31 -11 -108 -84q-21 0 -24 12v24q0 9 4 16q-28 65 -28 148q0 3 4 24q-4 7 -4 20h4l-16 68q0 4 4 4l-8 88h4q0 4 -4 4q8 39 8 76l-4 16h4l-4 8q0 11 8 24l-8 4q21 40 40 40q-8 13 -8 24q22 36 36 36zM358 748q105 0 152 -176q8 -30 8 -40h-4
q4 -8 8 -36l-4 -8q4 -8 4 -12h-4l4 -8q0 -4 -4 -4q4 -8 4 -12q0 -39 -8 -68l4 -8q-38 -156 -88 -220q-71 -63 -104 -64q-4 -12 -24 -12q-24 5 -24 88q-4 11 -24 176l4 8q-4 27 -4 44q0 4 4 4q0 4 -4 4q0 3 4 24q-4 22 -4 32h4l-4 8v24l-4 28h4q0 4 -4 4l4 28v64l4 24
q-4 8 -4 12q4 8 4 12q-8 15 -8 32l20 20q4 0 4 -4q9 0 40 24v-4q22 12 36 12q0 -4 4 -4z" />
    <glyph glyph-name="C" unicode="C" horiz-adv-x="586" 
d="M114 1043q3 -8 2 -12q-5 -7 -6 -12q-1 -4 3 -4l-8 -27l-11 -67l9 -18l-1 -8q-15 -16 -17 -30q-4 -98 11 -131l-4 1q-1 -4 3 -5l-6 -15q-13 -82 26 -361l4 -1l1 8l8 -1q13 -70 23 -162q7 -75 188 -189l73 -20q33 -5 107 84q20 -3 32 68q5 33 -47 64l-8 2q-6 1 -43 -66
q-52 -53 -98 -57q-20 3 -19 11l-17 -5q-17 5 -53 118q-4 1 -24 52l5 8q-45 97 -51 308q-1 87 -26 166q-14 84 -24 101l10 11q-8 1 -7 9q3 8 10 7q-7 31 -4 53q6 15 11 14v25q5 30 21 110q37 20 55 60q6 -1 85 51q22 8 42 5l11 -2q20 -3 93 -52q2 11 59 88l1 8
q-31 17 -110 46l-8 -2q-4 0 -11 6q-144 23 -252 -130q-10 -57 -38 -107zM118 349l-2 -12h4l2 12h-4z" />
    <glyph glyph-name="D" unicode="D" horiz-adv-x="657" 
d="M257 1279h-16q-144 0 -144 -40q4 -41 4 -64l8 -12q0 -4 -4 -4q4 -24 8 -24l-4 -20q0 -37 8 -76q0 -4 -4 -4q13 -115 16 -116q0 -4 -4 -12q4 -124 4 -196v-20q0 -4 -4 -4q0 -4 4 -4q-4 -40 -4 -60v-48q0 -4 -4 -4q0 -4 4 -4l-4 -36l20 -140h-4l4 -8v-32q0 -9 4 -16
q-4 -7 -4 -20q0 -34 12 -96l-4 -8l4 -20q0 -4 -4 -4l4 -20v-60q-8 -28 -8 -32v-56q0 -24 -16 -24v-32q0 -6 -16 -16q-20 12 -20 24h-4q4 -12 4 -48q185 66 304 256q31 55 56 120q124 230 124 440v68q0 25 -12 76h4l-4 8q0 4 4 4q-50 225 -124 308q-91 80 -180 80zM264 1195
h19q7 0 82 -36q1 8 9 8l4 -8q-9 -1 -9 -8q40 0 82 -84l14 -64q0 -4 -5 -4q5 -40 5 -60v-44q0 -13 -5 -20q0 -4 5 -12q-7 -220 -14 -220q0 -4 5 -4q-63 -436 -105 -436q-32 -58 -128 -128h-4q-14 15 -14 28v12q9 9 18 52l-13 36q15 19 22 44l-4 8q15 112 18 112l-5 8q0 4 5 4
q-6 55 -9 68l4 8l-9 36h5q-5 24 -9 24l4 20v48q0 26 -9 56q5 8 5 12t-5 4l5 20v44q0 9 -5 16l5 8q0 8 -5 8l5 28v104q0 4 4 4q0 4 -4 4l4 20v16l-4 20h4l-4 8v4q0 4 4 4l-4 8v56l-5 20h5q-5 3 -5 36l-9 -4q-9 0 -9 8v4q0 4 5 4l-5 8l14 16l-5 8l5 20q-9 0 -9 8q0 19 45 24
q0 16 9 16z" />
    <glyph glyph-name="E" unicode="E" horiz-adv-x="489" 
d="M204 1369h-4q-4 0 -4 4q-24 -12 -104 -24q0 -6 -12 -12l4 -8q0 -12 -12 -32q8 -19 20 -128h-4q0 -4 4 -4q-4 -40 -4 -60v-20q0 -4 -4 -4l8 -40l-4 -8q4 -8 4 -12h-4q4 -11 12 -72l-4 -8q27 -106 36 -328v-12h-4l4 -8q0 -43 8 -92h-4q16 -59 24 -204h-4q12 -57 20 -132
q0 -4 -4 -4q12 -63 12 -72h20q4 0 4 -4l8 4h24q4 0 4 -4l8 4h68q90 0 112 8l8 -4q44 12 44 40q-54 44 -64 44q-44 -16 -60 -16h-4q-9 0 -16 4l-8 -4q-16 4 -28 4l-8 -4q-28 0 -56 108q4 54 4 92v8l4 8q-8 0 -8 12q0 22 -4 56l8 64q-4 70 -4 88q3 64 8 64q-4 8 -12 64h4l-4 8
v12q0 9 4 16q-8 25 -8 32q4 0 4 4q-16 7 -16 28q16 4 16 16h8q39 -8 44 -8q57 24 60 24v-4q56 22 60 40v24q0 7 -56 16q-4 0 -4 -4l-20 4h-24q-12 -12 -64 -28q0 -8 -8 -8h-12q-20 11 -20 16q0 4 4 12q-8 80 -16 80q4 8 4 12l-32 200l4 8l-4 20l4 8q-6 23 -12 36
q23 25 44 28v20q1 8 8 8h4q9 0 20 -32q38 0 88 12l-4 8l4 20q-8 40 -16 40h-12q-43 0 -84 -24z" />
    <glyph glyph-name="F" unicode="F" horiz-adv-x="377" 
d="M242 1378v4q-47 -12 -80 -12l-28 8l-16 -4q-8 4 -12 4l-4 -8q4 -22 4 -36h-12l-8 24h-4q-4 -33 -8 -40q16 -82 16 -108v-4q0 -12 -4 -12l4 -20v-52q12 -178 12 -268h-4l4 -8q0 -9 -4 -16q4 -43 8 -52l-4 -8l20 -132q-4 -7 -4 -20l4 -20h-4q16 -89 16 -124q-4 -41 -4 -48
q4 -8 4 -12l-8 -4q16 -94 28 -232q4 0 4 -4q-4 -8 -4 -12q0 -16 44 -20l-4 8q4 12 24 12q4 -8 4 -12h8q11 0 16 44l-8 16q4 8 4 12q-15 0 -28 80h4l-24 132q0 4 4 4q-4 41 -12 64h4q0 4 -4 4l4 20v12q0 9 -4 16l4 8l-4 16l4 8l-8 44q4 35 4 60q0 9 -4 16q4 8 4 12
q-4 29 -4 32l4 8q-4 7 -4 16t4 16l-4 20q0 8 4 8l-4 28v44q0 14 -4 36q0 14 28 20q4 0 4 -4l20 4h72q9 0 16 -4q8 4 12 4q0 -4 4 -4q0 8 12 8v8q-6 16 -28 16h-16q-18 0 -52 -24q-69 0 -88 80v48q0 9 -4 16q4 7 4 16q-8 0 -8 8v4q0 20 -4 60h4l-4 8q8 46 8 68q0 4 -4 32
q4 8 4 12q-8 13 -8 24q0 16 16 28q40 -4 60 -4h16l28 4v-4l8 4q59 -8 92 -8q16 6 16 12v20q-12 28 -52 28q-14 0 -92 -28z" />
    <glyph glyph-name="G" unicode="G" horiz-adv-x="721" 
d="M465 1386h-5q-41 38 -47 39q-139 -3 -166 -29l1 -20q-14 -6 -21 -5q1 8 -7 9q-1 -9 -43 -47q-15 -24 -16 -34q5 -15 3 -32l-11 -76q-11 -79 -22 -102q-1 -3 3 -4l-7 -19l-5 -36q-1 -8 -9 -7l3 -8v-4l-8 -23l3 -9l-5 -7l3 -9l-7 -23q-2 -9 1 -16q-5 -7 -6 -16l-2 -11
q-1 -9 2 -17q-12 -25 -20 -82q3 -8 3 -12h-4l11 -94l-5 -8q19 -292 51 -407q19 -57 53 -84q8 -15 109 -52q63 -41 80 -68l8 3l52 -7q-6 14 -5 25q2 7 9 6h4q9 -11 48 -35q52 17 87 72l54 130l-1 20l2 12q1 4 4 4q-8 29 -8 227q-1 16 -8 29h4q-3 7 -3 37l4 -1l-5 78l-8 -3
l-8 1q-4 0 -4 4q-71 1 -142 -8q-7 5 -11 6q-8 1 -29 -4q-7 5 -12 6l-6 -48q10 -26 16 -26q10 8 108 17q2 7 9 6l15 -2q4 0 4 -4l8 2q4 0 4 -4l8 3l8 -1q12 -23 12 -59q9 -1 1 -80l-1 -8q-2 -9 -7 -16q3 -7 2 -16h-4q3 -6 1 -52h-4l3 -8l-5 -7l2 -9q-5 -6 -6 -15q0 -4 4 -5
q-11 -43 -15 -42q0 -4 4 -5q-9 -64 -50 -69q-18 -2 -43 -18l3 -9q-9 -15 -15 -14l-8 1q-7 1 -6 13l-61 -3q-48 6 -149 118q-19 65 -28 169h4q-10 131 -8 405l1 4q1 4 4 3l-2 65h4q-9 22 -6 105q7 22 9 32q0 3 -4 4q47 183 74 179q3 21 68 51l20 2l12 -2q4 -1 4 -5l8 3
q78 -11 94 -78q29 -44 38 -46q32 27 37 64q-3 7 -1 16q0 5 5 12q-3 34 -23 48q-2 -2 -6 -2h-8q-13 0 -39 18h-7q-2 4 -3 7q-10 8 -21 17z" />
    <glyph glyph-name="H" unicode="H" horiz-adv-x="705" 
d="M408 1300q0 -137 12 -156l-4 -8q20 -123 28 -220q4 0 12 -32q-16 -6 -16 -28v-4q8 -10 8 -16q0 -23 -132 -36q-18 -12 -64 -12q-31 0 -56 116h4q-8 16 -20 120h4l-4 8v20q0 28 -8 44l4 8l-36 180h4q-10 76 -24 76h-4q-40 0 -40 -36h4l8 -4q-13 -40 -16 -40q0 -4 4 -4
q0 -4 -4 -12q4 -22 4 -36v-4q0 -4 -4 -4l4 -8l20 -204v-56q0 -15 16 -92h-4l20 -116h-4q16 -133 28 -200l-4 -28q11 0 40 -312l-4 -8q17 -200 32 -200l20 -4q13 8 24 8q8 0 8 -12h12q0 9 4 16l-8 84h4q-8 20 -8 28h4l-4 8v20q0 20 -4 60h4l-4 8v12q0 4 4 4q0 4 -4 4
q0 4 4 12q-12 69 -16 76l4 8q-8 17 -16 112v28q0 9 -4 16l4 8q-12 27 -12 44v52q0 9 -4 16q4 7 4 16q0 7 -8 24q3 16 8 16q-4 36 -16 60q209 40 264 40q1 -8 8 -8l-4 -20l4 -8q0 -4 -4 -4q5 -37 8 -48l-4 -24q24 -247 40 -316h-4q32 -159 40 -228q-4 -8 -4 -12q4 -8 4 -12
q-4 0 -4 -4q24 -3 24 -8l8 4h24q4 0 4 -4q16 8 28 8v20q0 9 -4 16l4 8q-24 49 -36 140q-14 0 -56 332h4q-8 22 -12 56q4 7 4 20l-4 8q0 4 4 4l-12 96h4q-20 89 -32 208h4q-11 72 -20 280q-18 124 -32 124q-10 0 -32 4q-24 0 -24 -92zM536 284h8q0 -8 -8 -8v8z" />
    <glyph glyph-name="I" unicode="I" horiz-adv-x="357" 
d="M140 1332q0 4 -4 4q-3 -20 -32 -20h-4q-8 0 -8 12h-4v-144q0 -9 -4 -16q4 -7 4 -16v-72q0 -4 -4 -4q0 -4 4 -4l-4 -20q4 -8 4 -12h-4q4 -8 4 -12q0 -46 8 -76q0 -4 -4 -4l16 -104l-4 -8q16 -91 56 -480q11 -59 20 -148h-4l4 -8v-80h8q70 28 72 36v4q0 9 -4 16l4 8
q-7 69 -12 72l4 24q-28 186 -44 464v140q0 9 -4 16q0 4 4 4l-4 20v252q0 14 4 36q0 4 -4 4l4 28v80q0 4 4 4q-5 19 -16 20q-50 -16 -56 -16z" />
    <glyph glyph-name="J" unicode="J" horiz-adv-x="630" 
d="M359 1362q0 -69 16 -116h-4l12 -56h-4q3 -9 8 -52h-4l4 -8v-4q0 -20 4 -60q-4 0 -4 -4q8 0 12 -40l-8 -4l4 -8v-20q0 -4 -4 -4l4 -8v-28l4 -20h-4l4 -8v-60q0 -20 12 -92q0 -4 -4 -4l4 -20v-36l4 -24l-4 -8q4 -8 4 -12h-4q12 -34 12 -124v-36q0 -9 4 -16l-4 -8
q4 -8 4 -12h-4l4 -8v-8l-4 -24q4 -8 4 -12h-4q0 -4 4 -4q4 -80 4 -108q0 -74 -16 -124l4 -8q-21 -88 -44 -88q-12 -14 -44 -28h-44q-132 92 -132 132v84q0 4 4 4l-4 8q0 4 4 4l-4 8v12q0 4 4 4l-4 8q3 32 8 32q0 4 -4 4l4 20q-8 43 -8 56v16l-4 8q-100 -24 -100 -36l-12 -12
q4 -8 4 -12h-4l4 -8v-72q0 -4 -4 -4q16 -108 56 -236q35 -84 96 -84q1 -5 40 -16q4 0 4 4q48 -4 48 -8q4 0 4 4l20 -4h12q83 40 116 100l12 8l4 -8q0 -25 -32 -64q20 -12 32 -12h4q68 0 68 132v36q0 14 -4 36q4 5 4 28q0 4 -4 12l4 8q0 72 -24 184q0 33 -4 36l4 8
q-12 101 -12 108h4q-8 15 -20 132q0 4 4 4l-24 160q0 4 4 4q-20 310 -20 364l4 16q-8 39 -8 108v20q-58 -19 -72 -32z" />
    <glyph glyph-name="K" unicode="K" horiz-adv-x="555" 
d="M519 19q-3 9 -3 22l4 8q-51 91 -64 132q-32 61 -48 136q-56 138 -100 308q-4 0 -20 36q-44 32 -44 60q12 8 24 48q-4 8 -4 12q72 267 124 372q7 37 68 176q52 142 52 180q-14 0 -44 20q0 -6 -28 -44q-34 -99 -40 -104l4 -8q-27 -43 -60 -184q-9 -2 -24 -60h-4l4 -8
l-20 -60l4 -8q-68 -239 -84 -260h-16q-8 2 -16 20q4 22 4 36l-8 12q0 4 4 4q-4 24 -8 24q4 37 12 64q-4 145 -12 216q4 50 4 52l-16 140h4l-8 36q4 7 4 16l-12 72q4 7 4 16l-8 4h-8q-12 -20 -20 -20v-44q0 -9 -4 -16q4 -8 4 -12q-4 -28 -4 -32q4 -8 4 -12l-4 -8q0 -4 4 -4
l-4 -16l4 -24q-4 -21 -4 -24l8 -64q0 -4 -4 -4l4 -20v-20q12 -127 12 -156v-136q0 -9 4 -16q-4 -7 -4 -16v-92q0 -9 4 -16q-4 -7 -4 -16v-84q0 -14 4 -36l-4 -8l8 -48h-4l4 -8v-4q0 -4 -4 -4q4 -8 8 -36q-4 -8 -4 -12l4 -8l-4 -8l8 -92l-4 -8q0 -4 4 -4l-4 -20v-8l4 -40h-4
l4 -8l-4 -56q8 -50 8 -84v-36q12 0 12 -8q-8 -25 -8 -28l4 -8q-4 -8 -4 -12q16 -23 16 -28q-12 -22 -12 -44l8 -4q20 0 48 8q0 -4 4 -4q12 17 12 56q-4 84 -4 116l-4 8q0 4 4 4l-8 52h4q0 4 -4 4l4 48v20q0 4 4 4l-4 8v68q0 4 4 4l-4 8l4 8q0 8 -4 8l4 28v76l-4 28q4 0 4 4
q-8 0 -8 8v20q0 9 20 12q24 -10 24 -24q0 -4 -4 -12q2 -56 80 -240l24 -84q-4 0 -4 -4l28 -48q-4 0 -4 -4q8 -10 68 -148q0 -13 20 -52q15 4 32 36h4q1 -2 3 -4q2 8 4 14z" />
    <glyph glyph-name="L" unicode="L" horiz-adv-x="460" 
d="M152 1567v-8q0 -10 -8 -36l4 -8q-2 -31 -20 -48v-20q0 -34 4 -72l-4 -20q4 -21 4 -48q0 -4 -4 -4q3 -16 8 -16l-4 -20v-36q0 -4 -4 -4l4 -8v-4q0 -4 -4 -4q8 -25 8 -76q0 -4 -4 -12q4 -7 4 -16h-4l4 -8v-36q0 -25 -4 -60q4 -30 8 -40q0 -4 -4 -4q4 -40 4 -60v-32l4 -28
h-4l4 -8v-24q0 -4 -4 -4l4 -8q-4 -21 -4 -24l4 -8q-4 -7 -4 -16l4 -20q-4 -8 -4 -12q4 -8 4 -12h-4l4 -8l-4 -8q0 -4 4 -12q-4 -22 -4 -32q4 -8 4 -12h-4l4 -8v-20l-4 -8l8 -4q-5 -36 -8 -44q4 -7 4 -16q0 -4 -4 -4l4 -8l-4 -8q3 -16 8 -16l-8 -80l4 -8l-4 -20l4 -8
q-4 -8 -4 -12l4 -8q-4 -8 -4 -12l4 -8l-4 -8q8 -56 8 -76l-4 -8q4 -7 4 -16v-4q0 -4 -4 -4l4 -8q0 -13 -4 -20q5 -37 8 -48l-4 -8q0 -8 4 -8l-4 -28v-16l4 -20q-4 0 -4 -4l8 -4q30 8 72 12q44 -4 92 -12q54 4 92 4h12q17 0 28 16q-8 15 -8 32h4q-16 39 -16 60h-4l-100 -28v4
l-8 -4q-16 8 -24 8q-7 -4 -16 -4v4l-8 -4q-24 3 -24 8l-8 -4q-32 0 -40 24l4 20v28q0 4 4 4q0 4 -4 4l4 20v124l-4 24q4 7 4 20q0 12 -4 12l4 20v24l-4 20h4q-4 8 -4 12t4 12l-4 20q4 8 4 12q-4 8 -4 12h4q0 4 -4 4l4 20v68q0 9 -4 16q4 24 8 24q0 4 -4 4l4 28v32
q0 17 -8 32q4 24 8 24q-4 8 -4 12q0 43 4 172l-4 16q4 7 4 20l-4 8l4 8q0 4 -4 12q0 8 4 8l-4 40v20q0 90 -8 112q4 7 4 16v8l-4 20h4q-8 48 -20 252q4 7 4 16l-4 24q-10 -12 -32 -12z" />
    <glyph glyph-name="M" unicode="M" horiz-adv-x="1000" 
d="M576 1119q0 -4 4 -4l-8 -52q20 -30 20 -44q-9 0 -12 -48q4 -73 4 -92q-9 -88 -12 -88l4 -8q-16 -28 -20 -60l4 -48q0 -31 -4 -56q4 -42 4 -92v-16l-4 -24l8 -36q-4 -40 -8 -40l4 -8v-8q0 -8 -8 -8q0 -4 4 -4q-14 -80 -16 -80l4 -8l-8 -12q4 0 4 -4l-8 -4h-20
q-17 0 -48 192q-12 52 -20 64q0 4 4 4q-24 116 -72 296q-8 0 -8 8h4q-12 33 -16 68h4q-16 57 -44 124q0 50 -36 172q0 42 -60 164q0 84 -64 112h-40q-8 -1 -8 -8q0 -9 4 -16q-8 -16 -8 -44v-4l4 -28h-4q7 -37 12 -124l-4 -8q4 -22 4 -36t-4 -36l4 -8l-4 -8q4 -7 4 -16h-4
l4 -8q0 -4 -4 -4l4 -8v-12l-4 -24l4 -8l-4 -8q8 -64 16 -212l-4 -8q4 -10 12 -108l-4 -8q16 -244 28 -328l-4 -16q4 -75 8 -92q-4 -8 -4 -12l24 -196h-4q16 -41 16 -52l-4 -8q0 -25 20 -48l8 4h8q4 0 4 -4q16 0 20 28h4q16 -6 16 -24h20l20 4q0 -4 4 -4v8l-84 292l-52 340
q8 41 20 144q-4 7 -4 16h4l-4 8v4q0 4 4 4q0 4 -4 4q4 48 4 72q0 5 -4 40h4q-4 8 -4 12q0 59 -20 152q4 0 4 4l-8 4q0 4 4 4q-4 36 -8 44q4 7 4 16q-6 0 -12 12q0 7 8 24q-8 0 -8 8q8 24 16 24l8 -4q8 4 12 4q10 -13 20 -48q45 -41 68 -164q-4 0 -4 -4q7 0 44 -172
q6 -5 24 -96l-4 -8q28 -84 76 -348h-4q12 -35 24 -100h-4l16 -48l-4 -20q9 -74 24 -88l-20 -32h8q0 10 20 24h4l8 -4q10 28 16 28h4q8 -1 8 -8q-9 -56 -28 -56l-4 -20q4 -13 16 -16q84 16 92 36v24q0 14 4 36q0 4 -4 4q5 164 12 164q0 4 -4 4q5 36 8 44l-4 8q12 70 12 88v28
q0 4 4 4q-4 8 -4 12q8 43 8 56v48q0 23 4 64q-4 7 -4 16q4 7 4 16l-4 8q4 12 8 12q0 4 -4 4q16 74 24 148q0 4 -4 4l4 48v52q0 9 4 16l-4 8q0 4 4 4l-4 20v24q0 9 4 16q0 4 -4 4l4 20v40q0 9 4 16l-4 8q0 94 52 180h4q20 -10 20 -16q0 -4 -4 -4l4 -8q0 -4 -4 -4
q8 -23 20 -104q4 0 4 -4v-4l-8 -12q8 -28 8 -48v-28q0 -9 4 -16q-4 -7 -4 -16v-4l4 -20h-4l4 -8v-16q0 -4 -4 -4l4 -8q-4 -71 -4 -116v-16q0 -4 -4 -4q0 -4 4 -4l-4 -20v-64q0 -26 -4 -52l8 -76h-4l4 -8v-4l-4 -24q4 -8 4 -12h-4l4 -8v-32q0 -4 -4 -4q0 -4 4 -4
q-4 -20 -8 -76q4 -53 4 -112q0 -9 4 -16l-8 -76q0 -4 4 -4l-4 -20v-44q0 -9 4 -16q-4 -7 -4 -20l4 -28l-4 -8l12 -88h-4q4 -8 4 -12t-4 -12l4 -24v-24h8q0 30 20 48q0 4 8 4q21 -4 24 -4q68 23 68 44q4 25 4 56v4l-28 224h4q-8 16 -8 24h4q0 4 -4 4q0 4 4 12q-12 98 -12 116
h4l-4 8q0 4 4 12q-12 80 -12 100h4l-4 8v28l-4 20h4l-4 8v28q0 19 4 40q-8 43 -8 100h4q0 4 -4 4l4 24q-4 76 -4 128l-4 16h4q0 4 -4 4q4 47 4 68v4q0 26 -4 80h4q0 4 -4 4l4 20v52l4 24q0 4 -4 4l4 20v32q0 34 -4 72q4 16 4 28q0 57 -60 132q0 4 4 32q-145 -29 -148 -36
q0 -24 -36 -240q-24 -209 -24 -212z" />
    <glyph glyph-name="N" unicode="N" horiz-adv-x="801" 
d="M122 1369q0 -8 4 -8q-4 -21 -4 -24q0 -39 8 -108q-12 -141 -12 -160q4 -7 4 -16h-4l4 -8v-72q0 -9 -4 -16q4 -7 4 -20q-8 -102 -8 -120v-12q0 -12 4 -12l-4 -20v-44q0 -19 4 -40q-4 -15 -8 -84q4 -8 4 -12h-4l4 -8v-4q0 -4 -4 -4q4 -8 4 -12t-4 -12q0 -8 4 -8l-4 -40v-4
q0 -17 4 -44l-4 -8q0 -4 4 -12q-3 -52 -8 -52q0 -4 4 -4l-4 -28v-56q0 -12 -4 -12l4 -20v-140q0 -4 -4 -4q4 -15 28 -24l24 8q20 -7 20 -20q-4 -8 -4 -12h8q0 9 4 16q0 4 -4 4q9 173 16 236q-4 54 -4 92v44q0 14 -4 36q4 6 4 24l-4 8l8 32q-4 7 -4 16l4 8l-4 8l4 8l-4 8
q0 4 4 4l-4 20v84l-4 24q4 6 4 24q0 10 -4 32q5 36 8 44q0 4 -4 4l4 40q0 18 -4 88l4 8q-8 16 -8 24q6 32 20 32q7 4 16 4l16 -44l-4 -16q32 -126 64 -228h-4q68 -181 112 -352h-4l28 -96q4 0 4 -4q-4 0 -4 -4q9 0 28 -156q11 -32 28 -144q9 -28 36 -52l-8 -12v-4h20
q13 0 28 -12l8 4q7 -4 16 -4q0 5 40 16q1 8 8 8l-4 8l4 16l-4 8l4 8q-4 8 -4 12h4q0 4 -4 4l8 68l-4 8l8 52q0 4 -4 4q12 96 24 280q-16 82 -16 92q8 18 8 52v24q0 4 4 4q0 4 -4 4q12 73 20 224q0 9 -4 44l4 24q0 4 -4 4l4 20v36q0 9 -4 16q4 36 8 36l-4 20v4q0 34 -4 72
q4 16 4 32l-4 8q0 4 4 4l-4 20v56q0 9 4 16l-4 8q4 7 4 16l-4 8q0 4 4 4l-8 52l4 8q0 52 -28 52q-33 0 -76 -16v-40q0 -9 4 -16q-4 -7 -4 -16q0 -4 4 -12q-4 -8 -4 -12q0 -10 4 -32q-4 -28 -4 -32q8 -60 8 -100v-100q12 -180 12 -200q-4 -8 -4 -12l4 -8q-4 -27 -4 -44
q0 -9 4 -44q0 -4 -4 -4q0 -4 4 -12q-5 -145 -8 -168q4 -21 4 -40v-12q0 -119 8 -172l-8 -148q8 -1 8 -8q0 -13 -4 -20l4 -24v-4q0 -7 -28 -24h-8q-6 0 -16 28l8 20q-4 8 -4 12l4 16l-8 16q4 7 4 16l-4 8l4 8q-9 41 -24 92h4q-40 147 -48 156q0 4 4 4l-28 84q0 4 4 4
q-40 167 -72 232h4q-23 45 -52 192q-35 91 -64 208q-25 35 -72 236q-2 32 -12 32h-8l-56 -44v-4z" />
    <glyph glyph-name="O" unicode="O" horiz-adv-x="750" 
d="M377 1452l-8 4q-30 -12 -44 -12v-8l4 -8l-8 -4l-28 4l-28 -16l-20 4q-59 -68 -60 -84l8 -16q0 -11 -32 -48q-28 -73 -28 -76l4 -8q-2 -16 -12 -16q0 -43 -20 -72q0 -12 -4 -12q0 -4 4 -4l-20 -160q4 -7 4 -16q-4 -21 -4 -24q4 -8 4 -12h-4q0 -4 4 -4l-4 -20
q8 -140 20 -196h-4q9 -83 16 -100q0 -4 -4 -4q20 -128 20 -180q8 0 32 -120q43 -133 88 -148q68 -76 108 -76h32q80 13 160 116q0 9 40 64q12 62 52 200q0 4 -4 4l4 20q-4 70 -4 84h4q0 4 -4 4l4 20q0 13 -4 20q4 16 4 28q-7 9 -16 120q-8 0 -8 28h4l-4 8q0 12 4 12l-24 216
l4 16q-35 270 -76 340q-32 72 -96 132q-12 0 -12 8q-39 -8 -44 -8zM305 1356q74 -8 104 -28q80 -42 80 -80l8 -64q-4 0 -4 -4q6 0 24 -92q-4 -7 -4 -16l8 -12v-4q0 -4 -4 -4l4 -8v-24l4 -28q-4 0 -4 -4q8 -1 8 -8v-16q0 -18 12 -88h-4l8 -16q-4 -7 -4 -16q4 -8 4 -12h-4
q8 -29 12 -72q-4 -7 -4 -16v-12q1 -40 8 -40l-4 -20q0 -32 -4 -84l4 -8l-4 -8q4 -7 4 -16q-4 -12 -8 -12l4 -8v-8q0 -4 -4 -4q0 -4 4 -4l-8 -112l4 -8q-40 -232 -96 -232q0 -8 -24 -8q-4 0 -12 4l-24 -4h-12q-46 0 -120 92l-28 52v4q0 4 4 4q-16 31 -32 108v36q0 5 -8 44
q0 4 4 4q-44 258 -44 340l12 108l-4 8l16 80l-4 8q18 79 24 92q-4 8 -4 12l4 8q-4 8 -4 12q7 0 24 80q51 104 88 104z" />
    <glyph glyph-name="P" unicode="P" horiz-adv-x="488" 
d="M44 1474l16 -120h-4q6 -40 12 -40l-4 -20l28 -172h-4q48 -228 80 -452q11 -19 28 -160h-4q8 -55 24 -116h-4q4 -6 16 -96h-4q4 -7 8 -36h-4l12 -44h-4q8 -29 16 -96q-4 0 -4 -4q7 0 12 -24l-4 -24l8 4h12l8 -4q9 20 20 20h12q0 12 8 12q8 -13 8 -20q8 0 12 40
q-4 39 -28 128q0 4 4 4q0 20 -40 128v4q4 0 4 4q-36 61 -36 96l4 8l-4 8l4 8l-20 100q0 4 4 4q-9 118 -28 160q14 28 20 28h8q6 0 12 -12v-8q0 -4 -4 -4q5 -28 12 -28q73 0 176 200q44 164 44 180v28q0 9 -4 16q4 7 4 16q-10 81 -76 160q-66 83 -84 88q-103 60 -160 60
q-8 0 -8 8q-28 0 -104 -32zM212 1374q90 -55 92 -64q64 -76 64 -184v-24l-16 -96l4 -8v-32q-32 -34 -32 -44q-35 -72 -40 -72l-20 4q-16 -40 -28 -44h-4q-16 5 -24 28q4 44 8 44l-16 84q0 4 4 4q-16 101 -48 260l4 8q0 10 -24 24l-8 16q0 19 28 20l-12 16v8q0 9 28 20
q10 32 40 32z" />
    <glyph glyph-name="Q" unicode="Q" horiz-adv-x="810" 
d="M119 1275q4 -7 4 -16q-15 -19 -40 -184l4 -8q-4 -7 -4 -16q0 -4 4 -12q-4 -8 -4 -12l4 -8q-3 -16 -8 -16l4 -8l-4 -8l4 -8q0 -4 -4 -12q4 -22 4 -36q0 -9 -4 -16q4 -7 4 -16v-16l-8 -28q8 -1 8 -8v-8q0 -4 -4 -4q0 -4 4 -4q-4 -22 -4 -32q4 -8 4 -12h-4q3 -16 8 -16
l-4 -16q56 -408 112 -532q64 -158 152 -188q32 -12 40 -12q1 8 8 8h12q32 -14 32 -36q-6 0 -12 -12v-8q24 0 24 -16q-4 -16 -16 -16q47 -123 64 -136q42 12 84 16q0 -4 4 -4q1 8 8 8q-10 60 -32 60q-19 0 -36 60q8 0 8 8v16q0 5 -8 44q25 0 44 52q44 18 96 148q32 48 56 212
v12q-4 8 -4 12h4l-4 8v4q0 37 -48 292l4 8q-16 59 -32 100h4q-60 254 -76 300q-5 0 -28 68q-63 134 -116 144q0 16 -52 28q-4 0 -4 -4q-42 4 -52 16l-8 -4q-42 36 -56 36q-37 0 -80 -60q-32 -39 -56 -112zM267 1315h4q70 0 120 -60q21 -14 72 -100q52 -81 52 -212
q9 0 32 -184h-4q24 -79 36 -264l-4 -8q4 -7 4 -16q0 -4 -4 -4l4 -8v-16q0 -4 -4 -4l4 -8l-4 -8q0 -4 4 -4q-23 -148 -52 -148q-24 -52 -56 -52q-15 -23 -108 -36h-12q-53 12 -88 68q-26 31 -48 196l-8 16q0 4 4 4q-8 40 -12 84h4l-4 8v12q0 4 4 4q-12 34 -12 48v64
q0 20 -8 48h4l-4 8v72q0 4 4 4l-4 8q0 4 4 4q-4 9 -8 36q3 16 8 16l-8 24q0 4 4 4l-4 28v12q0 15 12 92q0 4 -4 12q8 92 40 212q34 48 40 48z" />
    <glyph glyph-name="R" unicode="R" horiz-adv-x="659" 
d="M62 1511v-16q0 -12 4 -12l-4 -20v-68q0 -13 4 -20l-4 -24q0 -118 40 -224h-4q8 -13 8 -20h-4q11 -51 28 -208h4l-4 -16l16 -112l-4 -8l48 -392q28 -148 48 -288q4 0 4 -8q0 -4 -4 -4q8 -61 24 -100h92q-28 163 -68 328h4q-32 124 -64 364h4l-8 16q4 7 4 16l-8 12l12 16
q40 0 56 -64h-12q0 -20 32 -48q32 -35 116 -320q105 -185 128 -268l20 -28l-4 -8q7 0 24 -40l88 36q0 6 -92 172q-7 27 -16 40q0 4 4 4q-60 152 -136 276q-60 117 -60 120l-56 108q-28 14 -28 44h-4q0 28 48 32q40 25 40 52q34 23 76 156l8 44q-9 122 -32 172
q-18 57 -76 136q-97 148 -160 148q-28 15 -88 24h-44zM166 1379q20 0 84 -80q56 -41 84 -104l52 -156v-24l-24 -124h-4l-8 4q0 -13 -36 -64q0 -28 -36 -28q0 -5 -44 -48q-28 10 -28 16v112q0 4 4 4q-4 6 -8 44h4q-30 161 -36 164l4 20v12l-4 20h4l-12 68q4 7 4 16l-8 16
q0 8 4 8q-5 66 -16 76v8q8 40 20 40z" />
    <glyph glyph-name="S" unicode="S" horiz-adv-x="685" 
d="M33 1096v-16q0 -89 92 -112q13 -8 24 -8l8 4q30 -11 32 -16l8 4q90 -32 176 -108q71 -61 100 -184q9 -52 16 -72q-4 -8 -4 -12l4 -20q0 -4 -4 -4l4 -28v-16q0 -271 -116 -356q0 -23 -112 -76h-4q-24 12 -28 12q-8 -4 -12 -4v4q-56 -16 -60 -16v4q-48 -11 -52 -16l-20 4
h-24q0 -68 60 -68h44v-4q12 4 12 8l16 -4q56 0 152 44q71 33 144 152q53 86 60 128q9 0 36 80l8 8l-4 8q24 67 32 176q-24 236 -68 236q0 15 -124 92l-8 -4q-123 64 -224 92q0 8 -44 24q-40 16 -40 84v8q48 94 76 100q0 27 100 56q0 12 88 12q0 -4 4 -4v4q-32 48 -80 80
q-47 -15 -60 -24q-107 -47 -160 -112q-32 -48 -48 -140z" />
    <glyph glyph-name="T" unicode="T" horiz-adv-x="421" 
d="M260 1567q0 -7 -8 -7h-12q-4 0 -4 3q-25 -7 -32 -7q-38 4 -72 4h-8l-24 -4q-7 4 -20 4q-8 -4 -12 -4v4l-8 -4q-8 4 -12 4q-8 -4 -12 -4v4l-8 -4h-8q-4 0 -4 4l-8 -4h-40q-4 0 -4 4l-52 -11v-4q4 0 12 -3q-12 -29 -12 -36l4 -7q-4 -7 -4 -11h8q52 25 64 25h16q4 0 4 -4
l8 4h12q4 0 4 -4l8 4h8l8 -4q1 8 8 8q8 -2 8 -8q4 4 68 8q16 -6 16 -11l-4 -18q4 -7 4 -15q-12 -3 -12 -21q20 -160 20 -177l-4 -14q16 -129 20 -274q-4 -67 -4 -144v-68q0 -20 -4 -51l4 -7q0 -4 -4 -4l4 -18v-7q0 -15 -4 -39q0 -4 4 -4l-4 -18q-4 -88 -4 -101h-4q0 -3 4 -3
l-4 -18v-54q0 -9 -4 -15q0 -3 4 -3q0 -4 -4 -11l4 -25l-4 -18q4 -24 4 -47v-7q0 -13 -4 -18l4 -22v-22q0 -28 -4 -50q4 -19 4 -36l-4 -22l8 -86q0 -4 -4 -4q5 -79 20 -79h56q16 0 16 54l-4 7q4 7 4 15l-4 14h4q0 4 -4 4q0 3 4 86q0 18 -4 54q4 20 4 33q0 3 -4 10q4 20 4 33
v32q0 4 4 4l-4 7q0 4 4 4l-8 79l4 21q-4 20 -4 29l4 7q-4 7 -4 11h4l-4 7v4q0 4 4 4q0 3 -4 3l4 18q0 4 -4 4l8 43q-8 78 -24 158l4 18q0 3 -4 22q0 4 4 11q-4 19 -4 32v26q0 8 -4 14q0 4 4 4l-8 54h4q-7 13 -12 61q4 7 4 11q-3 46 -8 46l4 18v33l-4 25h4l-4 7v11
q0 47 -8 65q4 6 4 14q0 4 -4 11l4 7l-4 22v3q0 4 4 4l-4 7q3 25 8 25l-4 8v7q8 72 12 72q-13 84 -28 90q8 43 20 43h12l12 -7h44q96 -2 96 -11q4 0 4 4l56 -11l8 4q4 0 12 -4q16 4 28 4q0 68 -24 68q-38 0 -84 14l-8 -3h-4q-8 0 -8 7l-8 -4h-80z" />
    <glyph glyph-name="U" unicode="U" horiz-adv-x="760" 
d="M492 1495l4 -7v-4h-12v4q1 7 8 7zM136 1363v-4q0 -8 4 -15q-8 -14 -8 -25l4 -8q-4 -22 -8 -22l4 -7v-63q0 -3 -4 -3l4 -8q-8 -25 -12 -25l4 -8v-7q0 -4 -4 -4q4 -29 8 -29q-8 -78 -16 -103l4 -7l-4 -22q0 -4 4 -4l-4 -26v-69l4 -23q-4 -6 -4 -18v-4l4 -44h-4l4 -7v-73
l4 -19h-4l4 -7v-8q0 -3 -4 -3l4 -8v-3q0 -4 -4 -4q0 -4 4 -4q0 -8 -4 -14q4 -53 4 -59q0 -24 -4 -73q0 -161 60 -349q48 -100 84 -100q6 -10 164 -62q0 -13 28 -44h12q13 7 24 7h4v-4l-4 -7h4q68 20 68 29q0 12 28 67q40 105 40 371q4 0 4 36q-4 103 -8 147h4l-4 8v3
q0 9 4 15q0 4 -4 4q0 8 4 14l-8 202q4 7 4 15q0 4 -4 4q4 69 16 150q0 4 -4 4q4 19 8 74l-8 113l4 8q-8 31 -8 37l4 33q-3 39 -12 47l4 22q-9 0 -12 19h-36q-13 -11 -24 -11l8 -33h-4q8 -19 8 -66v-129q0 -8 -4 -15q4 -6 4 -18l-16 -276q4 -5 4 -22h-4l4 -7v-4q0 -8 -4 -14
q4 -7 4 -15v-4q0 -8 -4 -14q0 -4 4 -4l-4 -18v-67l4 -36h-4l4 -8v-22q0 -3 -4 -3l4 -8v-11q0 -63 4 -139q0 -4 -4 -30q4 -22 4 -55q0 -7 -8 -51l4 -8q-40 -128 -88 -172q0 -15 -40 -15q-108 0 -212 110q-24 48 -40 96l4 18v41q0 8 -4 14l4 8q-4 11 -8 11q4 25 8 33q0 3 -4 3
l4 15l-4 26h4l-4 7v44q0 4 4 4l-4 7v8q0 8 4 14l-4 8l4 7q-4 7 -4 11h4l-4 7v8q0 3 4 3l-4 8q0 6 4 66l-4 15l4 7l-4 22v4q0 3 4 3l-4 8q4 67 4 84h4l-4 7v22q0 48 8 67q0 3 -4 3l8 44q0 4 -4 4l4 18v44q0 4 4 4l-4 8q8 26 8 40q0 7 -4 7q24 148 24 162q4 0 4 4l-4 7l12 44
q0 4 -4 4q4 32 20 77q0 12 -76 26v3q-25 0 -32 -73z" />
    <glyph glyph-name="V" unicode="V" horiz-adv-x="614" 
d="M3 1408v-7q32 -148 44 -171l-4 -7q64 -248 64 -299q76 -264 76 -377q108 -371 148 -617q4 0 4 -3q0 -4 -4 -4q4 -7 4 -10q56 45 56 164q11 0 36 258q-4 32 -4 62v39l40 167q0 88 36 230q0 67 64 317l36 262h-8q-9 0 -16 -4l-8 4q-36 0 -36 -21v-35q-40 -168 -40 -237
q-24 -117 -44 -185q4 -7 4 -10q-6 0 -20 -63q0 -4 4 -4q-16 -79 -16 -101l4 -7q-4 -21 -8 -21q0 -3 4 -3l-12 -52q0 -4 4 -4q-8 -89 -40 -209q0 -3 4 -3q-8 -31 -16 -147l4 -7q-4 -7 -4 -10l4 -35q-15 -11 -28 -11h-8q-9 0 -24 56h4q-16 41 -20 122q-20 42 -80 380h4
l-68 286l4 7q-28 59 -52 258q-8 0 -8 7q4 7 4 10l-36 35l-8 -3q-4 0 -4 3q-4 0 -4 -3q-24 2 -24 7q-8 -4 -12 -4z" />
    <glyph glyph-name="W" unicode="W" horiz-adv-x="894" 
d="M35 1452l4 -17l-8 -3l32 -162q3 0 12 -27q0 -49 24 -132h-4q8 -10 8 -16h-4q3 -7 8 -37h-4q12 -28 28 -179q10 0 20 -98h-4q48 -147 48 -276q8 0 8 -17h-4l32 -145h-4q8 -50 16 -77h-4l4 -7v-3q0 -47 12 -78q0 -3 -4 -3q22 -152 32 -152q0 12 48 196l-4 6l40 270
q0 3 -4 3q36 113 36 192h4q0 4 -4 4q3 40 8 40q0 4 -4 4l4 16q0 4 -4 10q20 92 20 105l-4 7q8 39 20 64l-4 20q17 10 32 10l12 -13v-17q0 -41 44 -186q0 -55 68 -350q32 -182 64 -323q7 0 16 -31h4q12 22 12 54v17q0 3 4 3l-4 7q7 8 12 27q0 3 -4 3q48 450 76 590l-4 7
q12 17 12 104h4q0 4 -4 4q28 157 48 343q-4 18 -4 34q0 3 4 10q0 3 -4 3q4 42 12 68q0 3 -4 3q7 68 20 78h-8q-14 -9 -60 -21v-6q-24 -137 -40 -263q0 -110 -44 -256l4 -7l-4 -7q4 0 4 -3q-16 0 -20 -98h-4l4 -6q-12 -37 -24 -135q0 -12 4 -57h-4q-15 14 -40 124
q-20 37 -100 290q-8 0 -48 121v30q0 8 -32 14q-51 -138 -72 -233l4 -6l-20 -105q0 -3 4 -3q-16 -74 -28 -158h-4q0 -4 4 -4q-3 -20 -8 -20q0 -3 4 -3q-13 -85 -16 -91l4 -7v-3q0 -7 -8 -7h-28q-6 0 -12 10q12 11 12 57q-13 120 -32 216q-7 4 -32 91h4l-4 7l4 6q-8 17 -8 24
h4q-3 13 -8 13l4 17l-4 31h4q-7 9 -16 90q4 6 4 21l-4 17h4l-4 6v10q0 4 4 4q-4 8 -8 33h4l-12 54h4q-4 7 -8 31h4q-60 180 -60 185h-4l4 24v6q0 23 -16 34q-66 -18 -68 -20z" />
    <glyph glyph-name="X" unicode="X" horiz-adv-x="892" 
d="M578 1332h-44l-3 -20q-1 -8 -9 -8q-1 -4 3 -4q-24 -62 -42 -124l3 -8q-24 -58 -37 -116q3 -7 2 -16h-4q-1 -4 3 -4q-13 -38 -15 -48q3 -8 3 -12h-4l2 -8v-4q-1 -4 -5 -4q0 -4 4 -4l-7 -20l-1 -4v-28q-4 0 -26 -16h-8l-14 12q0 4 4 4q2 13 -29 128q1 8 -78 208
q-2 49 -15 60q-48 0 -55 -44l4 -28h-4q83 -225 113 -324q0 -4 -4 -4q-3 -17 26 -36l-7 -20q12 -11 9 -52q-42 -92 -57 -116q-20 -37 -81 -200l-35 -72q-22 0 -37 -64l-25 -36q-1 -4 3 -4q-28 -55 -39 -132v-4q-2 -8 -10 -8l-7 4l-58 -120l37 -24q20 0 74 176q3 0 26 44
q1 4 -3 4q33 89 87 188q86 182 150 292h4l-2 8l17 36l-3 8l1 8q20 24 36 24q-3 -18 70 -120q84 -173 145 -324q13 0 81 -188q29 -38 62 -124q17 -16 31 -56l81 32q5 36 -99 308q-50 89 -71 148q-47 74 -91 172q-34 109 -134 232q-21 20 -19 36q10 10 26 40l3 16q6 40 13 40
q1 4 -3 4q16 52 20 52l-3 8q6 24 11 24q1 4 -3 4l76 220q-19 9 -18 12l-9 -4q-4 0 -3 4z" />
    <glyph glyph-name="Y" unicode="Y" horiz-adv-x="501" 
d="M406 1401q0 -16 -8 -16q0 -4 4 -4q-29 -143 -52 -216q0 -4 4 -4q-8 -35 -8 -56q8 -1 8 -8q0 -28 -20 -28v-84q-11 -24 -32 -24q-68 132 -200 300q-34 38 -104 136h-8q-44 -12 -44 -24q43 -80 60 -80q65 -135 112 -168q62 -90 76 -100q10 0 40 -68q36 -17 36 -68
q-8 -15 -8 -32v-28q0 -4 -4 -4q0 -4 4 -4l-4 -20l4 -8l-4 -8q0 -4 4 -4l-4 -36q0 -6 4 -48h-4l4 -8v-24q0 -4 -4 -4l4 -8v-52l4 -28h-4l4 -8v-8q0 -9 -4 -16q0 -4 4 -4l-4 -28v-20l4 -20h-4l4 -8v-12q0 -9 -4 -16q0 -4 4 -4l-4 -48v-48q0 -32 -4 -76q4 -7 4 -20h-4l4 -8v-12
q0 -4 -4 -4q0 -4 4 -4q-5 -60 -12 -60l4 -8q0 -4 -4 -4l4 -8v-20q0 -4 -4 -4l4 -8q0 -4 -4 -4q0 -4 4 -4q-16 -85 -16 -124h72v20q0 8 12 8l-4 8v8q0 9 4 16q-4 7 -4 16v16l8 12q4 138 4 188q0 4 -4 12q4 8 4 12l-4 20q4 8 4 12l-4 8l4 8q0 4 -4 4q8 50 16 156q0 4 -4 4
l8 72l-4 8q9 196 32 296l-4 8q28 136 56 352q28 90 28 116q-4 8 -4 12h4q-23 44 -48 44z" />
    <glyph glyph-name="Z" unicode="Z" horiz-adv-x="577" 
d="M531 1404v4q-89 -19 -256 -32v4l-8 -4l-20 4q-45 -3 -56 -16l4 -8l-8 -12q4 -8 4 -12h-4q4 -8 4 -12h16q76 12 100 12h16q9 0 16 -4l44 12q16 -3 16 -8l8 4l16 -8l40 12q0 -7 24 -12q1 8 8 8q21 0 36 -24q-138 -275 -180 -408q-44 -125 -56 -172l4 -8v-4q0 -4 -4 -4l4 -8
v-12q0 -6 -16 -16l-20 4q-72 -201 -120 -312q-52 -127 -84 -180q-25 -83 -72 -192q0 -8 88 -16h72q80 0 180 16q8 -4 12 -4q8 4 12 4v-4l8 4h8q4 0 4 -4l8 4h12q74 0 84 36l-4 8v16l4 8l-8 4h-24q-9 0 -16 -4l-8 4q-64 -4 -76 -4q-19 0 -108 12l-8 -4l-8 4l-8 -4
q-14 8 -36 8l-44 -12l-8 4l-36 -8l-28 24q100 158 176 388q26 99 52 136l-4 8l56 108q12 1 52 104q28 52 64 172q23 47 60 164l20 40l-4 8q85 112 100 196l-8 4q-15 0 -92 -16z" />
    <glyph glyph-name="bracketleft" unicode="[" horiz-adv-x="664" 
d="M451 -8v0q66 5 131 -6q-6 49 -5 98q-5 3 -6 10q-3 -5 -10 -6l-136 -6v0q-1 -11 -7.5 -14.5t-13.5 0t-7 14.5v1v2q-5 5 -5 13t4 14q-2 133 -1 266q2 516 40 1029q-8 7 -7.5 17.5t10.5 13.5q54 9 103 -22q1 2 4 3q-1 10 -2 19q0 6 -1 8q0 19 -1 38q0 25 -1 50v8
q-36 -8 -73 5q-58 15 -117 2v0v-1q-1 -85 -3 -171q-1 -86 -3 -172q-5 -287 -11 -575v-27q-2 -73 -3 -147q-1 -37 -2 -75q6 -3 6 -14q-4 -39 -7 -78q-2 -68 -3 -137v-6q-1 -37 -2 -75v-11v-20q10 0 15 -12t2 -25q3 -4 3 -11v-1q0 -9 1 -18v-1q1 -5 2 -7t3 -3q11 4 23 6
q2 2 4 3q7 4 12 6q32 12 64 15z" />
    <glyph glyph-name="backslash" unicode="\" horiz-adv-x="1132" 
d="M315 1435v0l-114 6v-1h1q79 -145 157 -291q272 -513 515 -1037q5 -2 7 -8q2 -4 4 -9q3 -11 9 -19l1.5 -3t0.5 -1.5v-1v-0.5v0l0.5 0.5t1.5 0.5t3 1q7 1 12 3q9 3 19 4h25q27 -3 49 6q-3 4 -6 9q-5 8 -11 16q-11 16 -21 32q-22 34 -43 69q-43 72 -81 147q-68 136 -130 274
q-57 129 -120 257q-50 96 -102 192q-99 173 -177 354zM383 1046v0q-16 32 -33 63q17 -31 33 -63zM349 1111v0q-16 31 -33 63q17 -32 33 -63zM315 1175v0q-16 31 -33 62q17 -31 33 -62zM281 1239v0q-17 31 -34 63q17 -32 34 -63zM247 1303v0q-17 30 -33 60q16 -30 33 -60z
M212 1367v0q-16 30 -33 59q17 -29 33 -59zM386 1040v0q16 -29 31 -58q-15 29 -31 58zM420 976v0l30 -58zM455 908v0q14 -27 28 -55q-14 28 -28 55zM488 843v0l28 -54zM522 777v0q13 -26 27 -53q-14 27 -27 53zM556 710v0q13 -25 25 -51q-12 26 -25 51zM597 627v0q3 -5 6 -11
q5 -11 11 -22q-6 11 -11 22q-3 6 -6 11zM630 562v0q2 -5 5 -11q5 -11 11 -22q-6 11 -11 22q-3 6 -5 11zM663 494v0q3 -6 5 -11q5 -9 9 -19q-4 10 -9 19q-2 5 -5 11z" />
    <glyph glyph-name="bracketright" unicode="]" horiz-adv-x="705" 
d="M378 1394v0q1 37 1 74q1 6 1 11v21q-10 -1 -15 11t-3 26q-2 4 -2 10v1q0 10 -1 19l-1 1q-1 6 -2 8t-7 2q-10 -1 -22 -9q-7 -4 -12 -6q-32 -12 -65 -16q-41 -4 -82 0q2 -3 2 -7q0 -35 1 -69v-3q0 -7 -3 -11q0 -3 -1 -5q55 3 110 5v0q1 11 7.5 15t13.5 0t7 -15v-1v-1
q5 -6 5 -14t-4 -13q2 -134 1 -267q-2 -515 -40 -1029q8 -6 7.5 -16.5t-10.5 -13.5q-54 -10 -103 21q-2 -2 -4 -3l2 -18q0 -6 1 -8q0 -19 1 -38q0 -25 1 -51v-8q36 8 72 -4q59 -15 118 -3v1q-1 0 -1 1l4 170q1 86 3 173q5 287 11 574v27q2 76 3 152q2 76 3 152q2 77 3 154z
" />
    <glyph glyph-name="asciicircum" unicode="^" 
d="M194 812v0l-8 -16l-2 -6q2 1 3 0q3 8 5 16zM183 752v0q18 0 36 -2q-13 3 -27 7h-3q-13 1 -15 12l-6 -14v0h2q6 -1 13 -3zM520 1008v0q4 3 8 4q-20 40 -43 78q-1 -2 -2 -5q-2 -2 -3 -4q2 -1 3 -3l9 -9q4 -6 3 -11q14 -25 25 -50zM686 750v0q-1 7 3 12q-16 -3 -32 -7
q-3 -7 -11 -8q1 -4 1 -7q3 4 8 5q14 3 28 4h2q0 1 1 1zM651 783v0q38 8 76 13v0v0q-1 4 -1 7q0 1 -1 2q-5 5 -8 10q-8 11 -14 22q-12 24 -21 49q-17 42 -33 84q-8 21 -15 42q-47 121 -93 242h-30h-20h-11.5t-20.5 0.5t-19 0.5t-9 1q-3 -9 -11 -10q-79 -146 -144 -299
q-31 -75 -59 -151q-1 -3 -2 -7t-3 -9q20 -6 41 -9q3 0 5 -1q6 -1 12.5 -1.5t11.5 2.5q3 2 5.5 7.5t4.5 10.5t4 7l58 108q58 107 114 214q-1 1 -1 2l-2 4q-5 7 -0.5 13t11.5 7t13 -6q105 -167 162 -355z" />
    <glyph glyph-name="underscore" unicode="_" horiz-adv-x="1190" 
d="M121 -73v0q-4 -38 -2 -76q120 12 241 9.5t242 -10.5q14 -1 28 -1q112 -8 224 -12q60 -1 119 0q30 0 60 1l34 2h8h7v0v0q0 1 1 1v1q2 3 6 5t8 2q8 -1 14 -5q-3 35 2 69q-494 20 -989 25q1 -6 -3 -11z" />
    <glyph glyph-name="grave" unicode="`" horiz-adv-x="346" 
d="M208 1459v0q-71 12 -143 8v0v-1q6 -7 11 -15t11 -15q19 -22 41 -40q15 -12 29 -26q24 -23 48.5 -55.5t25.5 -67.5q33 3 66 8q5 1 13 3q15 4 30 5q-57 104 -132 196z" />
    <glyph glyph-name="a" unicode="a" horiz-adv-x="598" 
d="M426 682v-4q5 -27 5 -30q0 -6 -11 -16h-2l-14 4v-11l6 -12v-4q0 -5 -8 -11q-25 0 -46 46q-5 0 -46 42l-38 11q-78 0 -107 -57l-14 -8l3 -19v-4l-14 4q-50 -81 -72 -272l2 -8v-12q6 -1 6 -7q-6 -14 -6 -35q0 -53 38 -134v8q0 9 -5 42l5 4l5 -12h-2q14 -100 43 -100
q17 -27 102 -38h14q19 4 24 8q5 -4 11 -4q12 0 24 11h3q5 0 5 -15h11q18 0 40 42q-5 0 -5 8q0 20 10 27l17 -4q0 10 18 27h6q4 0 8 -12q-3 -7 -3 -11q19 -39 24 -39l3 -19l-8 -19v-4q0 -16 49 -38q5 17 10 19h3q19 -14 19 -31q20 0 27 35h2l-2 7l2 20l-10 80h-3
q-13 0 -27 -4q-38 0 -38 35q-2 19 -16 57v16q0 4 3 4l-3 7v4q0 4 3 4q0 4 -3 4q0 8 3 8q-4 60 -5 65l5 30q0 4 -3 4l3 19q0 12 -3 12l3 19v12q0 8 -3 15q5 25 8 84q0 4 -2 4q5 33 5 85v15q0 10 -5 23l2 8q0 19 -19 38v8l11 19h-2l-9 -8h-10l-8 8h-8q-9 0 -11 -50zM286 619
q51 -12 59 -31q0 8 8 8l13 -12l10 8q37 0 49 -131q0 -7 -2 -7q3 -150 7 -204l-18 -23l-5 4q0 -19 -18 -30q-32 -89 -70 -89v4q-23 -11 -54 -11q-71 0 -106 119q-6 0 -13 76v50q0 4 3 4q0 4 -3 4q11 97 34 126h3l-3 20q26 75 93 111z" />
    <glyph glyph-name="b" unicode="b" horiz-adv-x="603" 
d="M440 489v-20h4v20h-4zM436 501v-8h4v8h-4zM218 482q9 73 62 111q57 28 96 28q19 -4 52 -48q24 0 52 -120h-4q12 -19 12 -60v-12q0 -196 -160 -232h-16q-49 24 -52 44h-4v-12h-4q-15 9 -28 32v4q0 11 8 24q-12 27 -28 112l4 8q-3 5 -5 15q5 83 15 106zM92 1249v-8l4 -8
q-8 -15 -8 -32v-32q0 -4 -4 -4l4 -8v-44l4 -20h-4l4 -8v-36q0 -9 -4 -16l4 -8l-4 -8l4 -20h-4l4 -8v-12q0 -4 -4 -4q0 -4 4 -4l-4 -20q0 -8 4 -8l-4 -20v-52l4 -20h-4l4 -8q4 -110 4 -140q12 0 20 -120v-16q0 -9 4 -16q-4 -8 -4 -12q0 -2 4 -52h-4q4 -8 4 -12q0 -42 8 -88
q0 -4 -4 -4q0 -9 12 -96q-12 -4 -12 -24l8 4l12 -8l-4 -48v-108q0 -4 -28 -28h16q84 0 84 36q0 10 4 32h4q72 -56 124 -56h12q103 0 156 100q16 31 32 112l-8 56h4l-4 8v4q0 136 -128 312q-17 13 -60 20q-99 -38 -124 -104q-19 -67 -28 -68l4 -8q-8 -36 -20 -36
q-16 0 -28 176q4 0 4 4l-8 4l4 20v56l-4 48h4q-4 19 -16 140l4 8q-8 15 -8 32h4q-11 55 -16 248q-24 22 -24 32h-4z" />
    <glyph glyph-name="c" unicode="c" horiz-adv-x="453" 
d="M349 495l7 -5l2 12q-8 0 -9 -7zM321 655q-17 13 -41 17l-8 2q-94 15 -173 -195q-25 -108 -30 -137q0 -147 39 -213q59 -66 169 -84q61 2 114 55q1 10 36 47l-1 20l5 32q-2 12 -22 15q-40 -81 -86 -107q-24 -17 -74 -9q-100 16 -107 171q-10 85 -4 126h4q1 4 -3 4
q14 87 69 151q53 36 78 32l20 1q38 -30 48 -32l8 -1q1 9 31 48q4 21 -10 34l-21 -1q0 1 -1 2q-15 2 -28 11h-1l-2 2q-5 4 -9 9z" />
    <glyph glyph-name="d" unicode="d" horiz-adv-x="596" 
d="M401 902q4 -8 4 -12h-4q0 -4 4 -4q-8 -39 -8 -116v-36q0 -8 -8 -76q0 -9 4 -16q-4 -8 -4 -12q4 -8 4 -12h-4l4 -8v-4q0 -4 -4 -4l4 -8q-8 -13 -8 -20q8 -36 8 -52q0 -6 -12 -12q-33 0 -60 48q-40 40 -68 40q-89 0 -164 -236q-16 -52 -32 -136l4 -8q0 -4 -4 -4
q4 -14 4 -44h4q4 16 4 28l8 -4l-4 -20v-48q23 -67 108 -116q26 -8 32 -8q8 4 12 4v-4q64 9 112 32q52 45 52 88l8 4h4q20 -10 20 -16q-4 -12 -8 -12q5 -54 20 -88h16l28 4v12q8 70 8 72l-4 8q4 7 4 16t-4 16q4 7 4 16q0 7 -16 80h4q-4 8 -4 12l4 28l-4 8q0 4 4 4l-4 20v28
l-4 48h4l-4 8q0 9 4 16q0 4 -4 4q8 104 12 104q-8 16 -8 44v12q0 95 -12 296v132q0 8 -8 8q-44 0 -44 -96q-4 0 -4 -8zM281 522q55 0 80 -36q15 0 20 -56q4 0 4 -4l-4 -8q4 -12 8 -12l-4 -20q4 -70 4 -88q-12 -148 -32 -148h-8q-8 0 -8 8q0 12 12 32l-16 12q-16 -64 -84 -64
q-27 0 -40 -8q-32 0 -72 72q0 4 -8 32v12q0 9 4 16l-4 8q3 44 8 44q0 4 -4 4q14 122 44 156q19 29 84 40q16 5 16 8z" />
    <glyph glyph-name="e" unicode="e" horiz-adv-x="514" 
d="M64 302q23 -145 72 -204q69 -56 180 -56q60 11 104 72q0 11 28 52l-4 20v32q-4 12 -24 12q-27 -86 -68 -120q-21 -20 -72 -20q-85 0 -116 100q-6 28 -20 28h-4v4q0 44 44 44q38 41 180 96l96 56q-10 50 -80 148q-33 39 -96 68q-24 28 -64 28h-8q-95 0 -140 -220
q-8 -111 -8 -140zM260 578q34 -6 80 -76q16 0 16 -28l4 -28q-99 -69 -164 -100q-14 0 -76 -52h-4l-4 8q0 4 16 24q-4 22 -4 36q0 4 4 4q0 4 -4 4q0 88 44 160q47 44 72 44z" />
    <glyph glyph-name="f" unicode="f" horiz-adv-x="315" 
d="M145 1344q4 -7 4 -16v-4q-20 -21 -32 -88h-4q0 -4 4 -4q-8 -40 -8 -120q4 -8 4 -12h-4q4 -7 8 -36l-8 -60q4 -42 4 -68l-20 -12l4 -8q-8 -18 -16 -20q-11 0 -16 40q4 8 4 12l-28 -4h-28q0 -20 -24 -20v-120q28 16 44 36q36 -12 40 -12q15 12 28 12h12v-20
q-12 -111 -12 -140v-36q0 -9 4 -16q-4 -8 -4 -12q0 -39 8 -72q0 -4 -4 -4q5 -76 12 -132h-4l4 -8v-24l4 -28h-4q0 -4 4 -4l-4 -20v-48q0 -9 -4 -16q7 -26 12 -88l-4 -20q8 -62 8 -76h4q52 17 52 20q8 86 8 104l-4 16q0 4 4 4l-4 28v20q0 4 4 4l-4 8v8q0 4 4 4l-16 136h4
l-8 24l4 8q-4 27 -4 44v12q0 4 4 4l-4 8v44q0 9 -4 16l4 8q-4 8 -4 12q0 8 4 8l-8 80h4l-4 8v44l-20 16v12l20 20v8q0 11 -8 24q4 7 4 16q-4 8 -4 12l20 12h4q6 0 12 -12q16 8 24 8v-4q8 4 12 4q20 0 20 -8l8 4l8 -4q19 12 24 12v44q0 32 -24 32q-27 4 -44 4q-35 -4 -44 -4
q0 6 -12 12q4 36 8 36l-4 8v16q0 4 4 4q-2 16 -12 16v28h12v68q0 68 12 68q0 4 -4 4q20 80 56 80q0 4 12 4q4 0 12 -4q28 0 28 60q0 29 16 72l-60 20l-16 4q-45 0 -84 -96zM137 48v-4h12v4h-12z" />
    <glyph glyph-name="g" unicode="g" horiz-adv-x="684" 
d="M512 716v-20q0 -4 -4 -4q8 -20 8 -28q-6 -16 -12 -16l-8 4q0 -6 -16 -16q-47 64 -108 64q-8 -16 -24 -16q0 12 -48 16q-30 -8 -36 -8v4q-90 -29 -152 -136q0 -8 -28 -64q-8 -15 -16 -120q-8 0 -8 -16q16 -31 28 -92v-28h-8v12q0 9 -20 80h-4q15 -100 28 -100q0 4 4 4
q11 -52 68 -100l-8 -4q-13 8 -24 8q11 -37 92 -72q45 -20 48 -20q0 8 12 8q29 -12 32 -12q0 5 68 28q63 51 80 64q4 0 12 4h12q0 24 12 24l4 -8l-8 -36q4 -52 12 -80q0 -121 -68 -172q-91 -44 -100 -44q-14 0 -36 -4v4l-8 -4q-59 16 -72 52q-8 0 -8 12h-8q-29 -49 -60 -80
q56 -60 60 -60l28 4l48 -28h12l20 4q8 -16 12 -16q97 0 188 84q56 70 56 144v4l-4 20h4l-4 8v108q0 17 4 44l-4 8q3 32 8 32l-4 20v36l-4 40q8 0 8 8v44l-12 60q4 16 16 16v108q0 73 -4 204l8 20h-64zM332 588q41 -4 64 -16q7 4 16 4h4q28 -30 72 -36q24 -33 24 -48
q-12 -20 -12 -32l12 -128l-12 -24v-20l4 -24l-4 -8q4 -8 4 -12q-7 -1 -32 -20l4 -8q0 -7 -28 -24q0 -16 -96 -52h-32q-4 0 -4 4l-8 -4q-79 28 -112 104q-28 41 -28 184q27 100 92 140z" />
    <glyph glyph-name="h" unicode="h" horiz-adv-x="592" 
d="M95 1194q0 -36 12 -100h-4l4 -8v-96l4 -20h-4l4 -8q0 -4 -4 -4q0 -4 4 -4q4 -151 4 -228v-12q0 -23 -4 -64q4 -7 4 -20q-4 -8 -4 -12q4 -8 4 -12h-4q7 -26 12 -88q0 -4 -4 -4q7 -42 12 -96l-4 -8q4 -8 4 -12t-4 -4l4 -20q0 -176 -8 -176q-12 0 -12 -4q4 -21 4 -24l-4 -8
q8 -52 8 -76h-4l4 -8v-40q0 -24 40 -24q43 0 56 -8v8l-4 8l4 8l-4 20q0 3 4 24l-24 160l4 8l-4 16l4 8q-4 8 -4 12h4l-4 8q4 22 4 32q0 7 -8 20l4 8q0 4 -4 4q0 110 68 152q45 80 96 80q45 0 80 -132v-36q0 -28 -8 -28q0 -4 4 -4q4 -86 4 -128v-16l4 -20h-4l4 -8v-124
q31 0 64 32q0 4 -4 4l8 92l-4 16q8 36 8 96v60q0 17 4 44q-16 141 -60 228q-41 48 -68 48q-95 0 -132 -84q-16 -29 -24 -64h-4q8 -34 8 -40q-6 -16 -12 -16h-16l-8 4l4 28v160l-4 20h4q-16 85 -20 152h4l-4 8q0 4 4 4l-4 20v40q0 9 -4 16l4 8q-12 200 -36 224l-4 24
q-11 0 -44 -16zM463 34l8 -4q8 4 12 4v8h-12q-8 -1 -8 -8z" />
    <glyph glyph-name="i" unicode="i" horiz-adv-x="267" 
d="M80 835q8 -1 8 -8v-16q-8 -16 -20 -16v-16q0 -7 12 -36q9 0 60 16q8 -4 12 -4v4q-11 88 -48 88q-24 -4 -24 -12zM104 727q0 -8 28 -12l8 12v4zM96 539q5 -59 8 -64q-4 -7 -4 -16t4 -16q0 -4 -4 -4l4 -28v-40q0 -12 -4 -12l4 -20v-112q0 -44 12 -44l-4 -8q0 -74 32 -156
q-4 -8 -4 -12q13 8 20 8l16 -8q0 12 4 12q-8 31 -12 80q4 54 4 92v92q-12 90 -12 168v96q-8 8 -8 32q-52 -13 -52 -24zM88 -17v-8h4v8h-4z" />
    <glyph glyph-name="j" unicode="j" horiz-adv-x="297" 
d="M99 996q10 -92 44 -92q28 -12 28 -24h4q18 19 28 80v8q0 72 -52 76h-4q-47 -29 -48 -48zM147 764q-36 -19 -36 -28q12 -50 12 -88v-148q0 -21 8 -84q0 -47 4 -316q-13 -167 -44 -220q-29 -55 -100 -76l-4 -40v-4l4 -48h8q51 0 120 40q48 52 48 140q0 4 -4 4q7 48 12 340
q4 0 4 4q-4 7 -4 16q0 4 4 12q0 4 -4 4l4 20v24l-4 48h4l-4 8q8 57 8 80v20q0 9 -4 16q4 7 4 16v16q0 12 -4 12l4 20v120q0 22 -8 60h4q0 18 -32 32z" />
    <glyph glyph-name="k" unicode="k" horiz-adv-x="596" 
d="M88 1236q4 -10 8 -104q-8 -65 -8 -84q0 -9 4 -44l-4 -24l4 -24q0 -4 -4 -4q4 -22 4 -32q0 -136 24 -520v-60l4 -28h-4q0 -4 4 -4l-4 -16q8 -32 12 -84h-4q4 -8 4 -12t-4 -12l4 -24v-16q0 -4 -4 -4l4 -8v-40q60 7 60 24l-12 68h4q-4 0 -12 108h4q0 4 -4 4l8 64l-4 8
q3 24 8 24q0 4 -4 4l4 28v4q-9 64 -20 64q8 44 20 44h8q33 -60 60 -72q11 -33 80 -132l44 -68l8 4q13 0 20 -40q8 -1 8 -8l8 4h4q39 -69 48 -104l8 4h4q4 0 4 -4l8 4h4q4 0 4 -4q65 11 100 32v4q-67 77 -144 156q0 10 -92 96q0 12 -88 108q-8 22 -48 52l-4 20q15 150 52 216
q44 117 160 400q0 27 -56 52v-4q-75 -139 -124 -388q-54 -204 -104 -288h-4q-11 0 -16 44l4 28v60q0 9 -4 16q0 4 4 4l-4 20v12q0 4 4 4l-4 8q0 17 4 44l-4 8q8 17 8 64v44q0 14 4 36q-4 7 -4 20q0 4 4 4l-4 20v184q0 20 -4 60h-8q-26 0 -40 -20z" />
    <glyph glyph-name="l" unicode="l" horiz-adv-x="286" 
d="M101 1388q6 0 12 -11l-8 -19q7 0 12 -18q-8 -20 -8 -41q0 -4 4 -4q-8 -36 -8 -107v-119q0 -8 4 -14q-4 -8 -4 -12q4 -7 4 -11q-4 0 -4 -3q4 0 16 -15q-8 -79 -8 -148h-4q0 -4 4 -4q-4 -47 -4 -56q4 -60 4 -66h-4q0 -4 4 -4l-4 -18v-8q0 -8 4 -15q0 -3 -4 -3l4 -26v-37
q0 -9 -4 -15q4 -7 4 -15v-7q0 -30 4 -71q-4 -7 -4 -11q4 -7 4 -11h-4l4 -7v-160q0 -8 4 -14q-4 -7 -4 -15v-11q0 -14 4 -34l-4 -7l4 -26l-4 -33l4 -15q-4 -15 -4 -30q0 -4 4 -11q-4 -7 -4 -11t4 -11q-4 -20 -4 -33v-12q6 -4 12 -44h44q-8 28 -8 52v107q0 9 -4 15q4 7 4 15v4
q0 8 -4 14q0 4 4 4l-8 70l4 8q-8 48 -8 129v137q0 9 4 15l-4 8q8 85 8 96q0 4 -4 4l4 18v82q0 8 4 15q0 3 -4 3l4 19v37q0 3 4 3q0 4 -4 4q12 79 12 130v126q0 8 4 15q0 3 -4 3q8 132 8 156q-4 7 -4 11h4q0 4 -4 4l4 26v7l-4 37q-20 -7 -32 -7v3l-8 -3l-16 7q-24 -4 -24 -11
z" />
    <glyph glyph-name="m" unicode="m" horiz-adv-x="784" 
d="M478 427q13 43 49 64q37 8 44 8q20 -23 36 -116q14 -8 20 -92q0 -4 -4 -4l4 -20v-20q0 -23 8 -116q0 -20 -8 -20q0 -4 4 -4q-8 -41 -8 -72l12 8h60l8 4q-8 35 -12 184l4 8l-4 8q6 16 12 16q0 4 -4 4l4 16q-25 292 -60 292q0 21 -80 40h-16q-64 0 -88 -72q0 -36 -24 -36
l12 -40q-8 -18 -16 -20q-6 0 -12 12v4l4 20q-52 68 -108 80v4q-8 -4 -12 -4l-8 4q-48 0 -80 -76q-10 -28 -28 -28l-12 16q0 4 4 4q-4 12 -8 12q0 4 4 12q-4 44 -4 76v20l-68 -24l4 -8l-12 -16v-84q0 -17 -4 -44q4 -5 4 -28h-4l4 -8v-40l-4 -24q4 -8 4 -12h-4l4 -8
q4 -94 4 -128l4 -8q0 -4 -4 -4q8 -45 16 -168h12q9 0 16 4l8 -4l8 4q4 0 4 -4q16 4 28 4q-8 96 -12 104l4 16q0 28 -4 88q4 60 4 84q-8 36 -8 52h4q0 4 -4 4l4 20q0 9 -4 16q21 64 44 64q1 6 32 16v-4l24 8q35 0 76 -84q32 -154 32 -236q4 0 4 -4t-4 -4q8 -61 12 -116l8 4
h16q20 -16 24 -16q8 4 12 4l20 -4l4 8q0 9 -4 16l4 8q-8 13 -8 24v4q0 64 -12 124h4l-4 8v89h-2q-8 0 -8 8v12q16 101 29 111z" />
    <glyph glyph-name="n" unicode="n" horiz-adv-x="527" 
d="M98 536v4q-20 -7 -20 -20q0 -4 4 -4q-4 -48 -8 -48l4 -8q0 -4 -4 -4l4 -8q0 -4 -4 -4l4 -8q0 -92 52 -412h8q9 0 16 4q15 -8 32 -8h36v4q-24 108 -24 124v60q0 179 96 208h20q52 -36 52 -88q16 -27 28 -172v-148l48 4q12 0 12 -20h8l-4 8v4q0 4 4 4q0 4 -4 4l4 28v8
q-12 137 -12 152q0 4 4 4q0 4 -4 12q4 44 4 76v20l-4 20h4l-4 8v40q-12 73 -28 80q0 41 -44 64v12q-7 4 -16 4h-24v-4q16 -2 16 -12h-28q-97 0 -160 -168h-12q-19 0 -24 152v4q0 9 -4 16q4 8 4 12q-4 0 -4 4q-20 -8 -28 -8z" />
    <glyph glyph-name="o" unicode="o" horiz-adv-x="572" 
d="M79 393l4 -8q-8 -30 -8 -56v-56q0 -185 84 -236q33 -28 104 -28l28 4q7 -4 16 -4q60 0 148 92q60 112 60 192v44q0 9 -4 16l4 8q0 51 -64 148q-82 100 -140 100h-44q-48 0 -48 16v4l4 8h-4q-72 -32 -88 -92q-17 0 -24 -52q-12 -33 -28 -100zM271 565q164 -77 164 -164
v-44q0 -9 -4 -16l4 -8q-5 -103 -12 -128l4 -8v-16q-27 -17 -76 -68q-60 -32 -92 -32q-35 0 -80 60l-44 100q0 4 4 4l-8 44q0 4 4 4q0 4 -4 12q0 154 68 236q20 12 72 24z" />
    <glyph glyph-name="p" unicode="p" horiz-adv-x="571" 
d="M131 633l-20 4v-16q0 -12 4 -12l-4 -16l12 -376q-4 -8 -4 -12q4 -8 4 -12h-4l4 -8q0 -4 -4 -4q0 -4 4 -4q-4 -101 -4 -160v-120q0 -25 12 -128l-4 -8q4 -7 4 -16l-4 -20h24q21 0 36 -12h4l8 4q-8 99 -8 232q-4 8 -4 12h4l-4 8v36q0 17 -8 32q0 4 4 4q-4 52 -16 60v4
q0 22 16 28h16q22 -30 84 -40q0 -7 48 -20l8 4l8 -4q44 0 96 56q27 0 60 104v68q0 31 4 56q0 204 -100 252q-48 20 -80 20h-20q-9 0 -16 -4q-8 4 -12 4q-49 -7 -88 -52h-8q-10 0 -12 16l16 32l-4 8v4l4 8q-8 0 -8 20q-16 0 -48 -32zM303 569q94 0 128 -68q24 -42 36 -116
q-14 -166 -40 -204l-88 -20l-16 12q0 -12 -16 -12q-98 0 -124 164l4 8q-4 8 -4 12h4q0 4 -4 4q4 40 8 40q-4 12 -8 12q0 111 64 144q3 9 56 24z" />
    <glyph glyph-name="q" unicode="q" horiz-adv-x="630" 
d="M72 345l4 -8l-4 -8q4 -28 4 -32l-4 -48q0 -28 32 -52q0 -35 60 -76q14 -21 160 -36q8 4 12 4v-4q29 10 60 36q-12 0 -12 8l12 8h8v-12q21 29 48 40h4v-36q0 -4 -4 -4q4 -8 4 -12t-4 -4l4 -20v-8q0 -4 -4 -4l4 -8q0 -4 -4 -4q0 -4 4 -4l-4 -20v-24l4 -20h-4l4 -8
q-8 -64 -8 -128v-36q0 -4 -4 -4l4 -8v-16q0 -4 -4 -4l4 -8v-8q0 -4 -4 -4l4 -8v-16q0 -4 -4 -4q4 -7 4 -20h12l40 12v76l-4 24q12 6 16 260q-4 8 -4 12h4l-4 8q4 88 4 116h4l-4 8q0 4 4 4l-4 8q0 28 8 28q0 4 -4 4q8 73 8 236v20q0 9 4 16q-4 7 -4 16h4q-4 8 -4 12
q8 68 8 92v4q0 8 -8 8h-36q-33 0 -40 -32q8 -28 8 -44l-8 -4q-99 84 -128 84h-8q-158 -65 -204 -160q-36 -47 -36 -184v-4zM292 629h28q67 -35 100 -92q8 4 12 4q1 -8 8 -8q-8 -30 -8 -56v-92q0 -13 12 -136q0 -36 -88 -68q-15 -28 -92 -28q-108 41 -108 116q-6 0 -12 60h4
q-3 11 -8 48q5 43 8 52q-4 7 -4 20q0 45 36 84q0 7 32 44q39 52 80 52z" />
    <glyph glyph-name="r" unicode="r" horiz-adv-x="414" 
d="M84 556q9 0 16 -4q-5 -55 -8 -68q4 -7 4 -16v-8q0 -4 -4 -4l4 -8l-4 -48l4 -8q0 -4 -4 -4q8 -44 24 -272l-4 -8l4 -24v-12q0 -9 -4 -16q4 -8 4 -12v-40l56 12h24q0 21 -12 36v36l-4 28h4q-5 6 -8 40h4q-4 8 -4 12q0 62 -12 132q7 8 12 76q9 8 28 64q43 52 76 52
q23 -9 48 -36q82 24 84 32q-4 8 -4 12l-20 -4q-13 45 -80 92h-16q-61 0 -108 -116q-10 -20 -16 -20h-8q-10 0 -12 16l4 8q0 4 -4 4l4 20v84l8 12q-4 0 -4 4q-72 -16 -72 -28v-16z" />
    <glyph glyph-name="s" unicode="s" horiz-adv-x="440" 
d="M76 628v-20l32 -104q23 -32 80 -44q0 -6 76 -28q43 -41 64 -124q-4 -8 -4 -12l4 -8q-11 -20 -16 -56q-56 -48 -76 -48h-12q-57 0 -148 48q-4 -12 -8 -12q0 -4 4 -4l-24 -108q45 -8 136 -36q15 8 32 8h20q10 -8 16 -8q76 21 76 52q5 0 16 36h8l8 -4q16 55 28 132v40
q0 15 -32 108q-70 100 -104 100q0 3 -32 16l-8 -4q-68 9 -68 68v60q27 100 116 100q19 0 56 -32l-4 40v24q-49 20 -68 20l-8 -4l-8 4q-152 0 -152 -200z" />
    <glyph glyph-name="t" unicode="t" horiz-adv-x="330" 
d="M75 1159q0 4 -4 4v-4q4 -8 4 -12h-4q4 -8 4 -12l-4 -8q4 -7 4 -16q0 -4 -4 -4l8 -76h-4q4 -3 12 -108q0 -24 -48 -24l-52 8q-16 -6 -16 -12v-28q14 -15 24 -44q8 0 28 8q74 -19 80 -28v-60q0 -9 4 -16l-4 -8q5 -187 16 -220l-4 -8q4 -8 4 -12h-4l4 -8q0 -4 -4 -4l4 -8
v-32q0 -4 -4 -4l4 -8v-4q0 -4 -4 -4q0 -4 4 -4l-4 -28q0 -38 8 -116h-4l4 -8v-4q0 -4 -4 -4l4 -8v-12q0 -4 -4 -4l8 -48l-4 -8l8 -60h-4l4 -8v-24q0 -4 -4 -4l8 -20q-4 -8 -4 -12q3 -28 20 -28q40 8 40 16l8 -4h4q9 0 16 28q-20 75 -20 152v8q0 12 -4 12l4 20v48q0 28 -4 88
h4l-4 8v76q0 9 -4 16q4 7 4 16q0 44 -12 96v48q0 127 -24 168q6 16 12 16h60q39 -8 44 -8h32v36l-8 28h4l-12 28l-68 -12q-64 5 -64 44q0 4 4 4q-4 30 -8 40q4 7 4 16l-12 96h4q-4 7 -12 56l8 48q-4 6 -4 24h-4q-40 -18 -48 -56z" />
    <glyph glyph-name="u" unicode="u" horiz-adv-x="682" 
d="M491 736q12 -27 12 -44v-108q0 -9 -4 -16l4 -8q-4 -27 -8 -36q4 -28 4 -48q0 -108 -64 -268q-42 -41 -48 -72q-7 0 -20 -8q-23 16 -28 16l-24 -4q-60 10 -104 56q-33 75 -48 180h4l-4 8v44l-4 24q4 7 4 20q0 4 -4 4q24 173 24 176q0 76 -32 76q-4 0 -4 -4l-20 4h-8
q-17 0 -24 -124q0 -20 4 -48q-12 -142 -16 -164l8 -84q0 -4 -4 -4q0 -72 60 -168q58 -84 152 -84h4q87 0 168 104q28 33 28 76l-4 24l16 16h8q16 -6 16 -28q-12 -36 -12 -140h4q22 4 36 4h32q0 8 4 8q-7 39 -16 204h4l-4 8v72q-8 118 -8 128v64q0 28 -8 44l4 8l-8 60h4
q-19 64 -32 64h-8q-35 -24 -36 -32z" />
    <glyph glyph-name="v" unicode="v" horiz-adv-x="455" 
d="M71 686h-36l-8 4q0 -4 -4 -4q40 -146 60 -184q8 -32 8 -40v-4q0 -4 -4 -4q11 -23 28 -108q20 0 20 -52h-4q0 -20 40 -144q28 -113 40 -128q25 0 32 36h4l4 -8l-4 -24h16q9 0 20 148q72 262 84 292l-4 8q13 24 16 24l-4 8q12 20 40 156l-4 8q4 8 4 12h-4q-48 -7 -48 -60
q-32 -96 -92 -376h-4l4 -8v-36l4 -20q-3 0 -20 -20q-18 0 -52 172q-48 143 -48 148l-28 128h4q-8 12 -20 84h-8q-4 0 -32 -8z" />
    <glyph glyph-name="w" unicode="w" horiz-adv-x="728" 
d="M542 180q0 -5 -20 -16q-11 0 -20 80q-70 161 -88 228l-20 56h-4q-35 -41 -60 -44q0 -68 -52 -268v-24q0 -4 4 -12q-14 -28 -20 -28q-14 0 -32 120q-56 135 -96 244q-32 79 -44 84q-4 0 -4 4q-30 -12 -52 -12q0 -36 28 -152q18 -62 44 -92q42 -121 132 -296q25 0 40 24h12
q0 17 44 196q0 8 -8 28q6 25 28 36q9 68 24 68h4q8 -11 64 -156q60 -96 60 -116l-4 -20q16 -40 16 -44q60 7 60 28q0 158 76 412q12 47 24 140q-4 0 -4 4q-56 -30 -56 -76q-32 -94 -48 -228q-28 -68 -28 -168z" />
    <glyph glyph-name="x" unicode="x" horiz-adv-x="517" 
d="M378 745q-13 -47 -64 -140l-48 -156q4 -21 4 -24l-8 -4h-8l-176 252q-21 28 -24 28h-4q-6 0 -12 -12v-16q73 -118 140 -244q0 -17 20 -44l4 -16q-36 -59 -132 -364q-4 -12 -4 -40q4 0 12 4l24 -4q44 0 44 44l64 220l-4 8q8 12 16 68q20 21 20 40v12h4q128 -165 128 -212
q48 -77 48 -112h20q24 -17 24 -20q38 8 68 20q0 25 -120 164q-35 44 -120 228q0 11 124 280v12q0 5 -40 28z" />
    <glyph glyph-name="y" unicode="y" horiz-adv-x="465" 
d="M16 651q0 -11 112 -256q40 -129 84 -236q20 -3 20 -20l-136 -448q4 -8 4 -12v-12l40 -16q28 0 28 48q36 56 88 248q36 182 96 400q56 211 56 260q0 24 -56 56q-44 -144 -84 -448q4 -8 4 -12l-16 -12h-12q-14 17 -32 84h4q-36 118 -80 232q0 37 -56 140q0 6 -16 16z" />
    <glyph glyph-name="z" unicode="z" horiz-adv-x="554" 
d="M310 699h-40q-20 0 -60 -3q12 -22 12 -30v-20l-4 -23l8 -4h4q12 0 12 4l20 -4h20q19 0 132 14q8 -4 12 -4l20 10h16q8 -1 8 -6v-4q0 -13 -44 -53q-65 -80 -196 -262q-18 -13 -60 -76q-36 -55 -96 -96q-45 -40 -64 -73v-10h8q-8 -24 -8 -27v-9q0 -70 28 -70l20 -3
q67 16 216 33q0 3 96 20v-4q100 20 104 27v3q-12 33 -12 76h-4q-202 -16 -252 -36q-57 -27 -100 -37l-8 10q0 20 72 106q163 185 228 292q124 158 124 189q0 19 4 23q-4 7 -4 10h4q-7 34 -20 34q0 -12 -20 -17l-4 7v3l4 7l-152 6q-7 -3 -16 -3v3z" />
    <glyph glyph-name="braceleft" unicode="{" horiz-adv-x="534" 
d="M356 1354v0q22 25 54 28.5t63 -2.5q5 53 3 107q-47 2 -93 -5.5t-81 -40.5q-28 -30 -38.5 -70t-12.5 -81q-4 -71 -6 -142q-1 -32 -2 -63q-1 -32 -2 -63l-2 -44v-11q0 -38 -10 -75q-12 -34 -42 -52t-65 -2l-2 2v0q-10 -49 1 -98q47 10 91.5 0t61.5 -61q8 -42 1 -86l-2 -20
q-5 -65 -9 -130q-1 -7 -1 -15q-10 -121 -10 -242q-1 -66 12 -130q8 -54 49 -89q23 -15 50.5 -17t53.5 0q3 1 7 1q7 0 13.5 1.5t8.5 8.5q2 11 1 23v6q0 23 -4 46q-36 -9 -65.5 14.5t-39.5 59.5q-9 43 -6 89q1 9 1 17q0 61 3 122q5 120 25 239q5 30 6.5 61t-8.5 59
q-9 23 -26.5 40t-42.5 21q-11 1 -13.5 10t6.5 16q42 32 52 82t5 100q-7 107 -8 213v7q0 50 2 100q0 37 21 66z" />
    <glyph glyph-name="bar" unicode="|" horiz-adv-x="896" 
d="M449 62v0q-2 362 12 723t33 722q-16 2 -32 5q-34 5 -68 11q-16 -199 -27 -398q-36 -718 3 -1435q0 -7 -4 -11t-9 -4q4 -7 -4 -15q-6 -6 -2 -10t11.5 -6.5t12.5 -1.5q13 1 25 5l10 2l46 12h3q-9 201 -10 401z" />
    <glyph glyph-name="braceright" unicode="}" horiz-adv-x="602" 
d="M286 83v0q-22 -25 -53.5 -29t-63.5 1q-3 -53 0 -106q46 -2 92.5 6.5t80.5 41.5q27 31 37 71t11 81q4 71 4 143q0 31 1 62q1 27 1 54q1 26 1 53v11q-1 39 9 76q12 34 41.5 52.5t64.5 2.5q1 -1 2 -1v0q10 49 -2 97q-47 -10 -92 -1t-62 60q-9 42 -3 85q1 11 2 21q4 65 7 130
q1 7 1 15q8 121 6 242q0 66 -14 130q-9 54 -51 88q-23 14 -50.5 16t-53.5 -1h-6q-8 0 -14 -2t-9 -9q-2 -11 -1 -23q1 -3 1 -6q0 -23 5 -46q36 10 65.5 -13.5t39.5 -58.5q10 -44 8 -89v-18q0 -60 -1 -121q-3 -121 -22 -240q-5 -30 -6 -60.5t10 -59.5q9 -23 27 -39.5t43 -19.5
q11 -2 13.5 -10.5t-5.5 -15.5q-42 -33 -51 -83.5t-4 -100.5q9 -106 11 -212v-7q2 -50 0 -101q0 -36 -20 -66z" />
    <glyph glyph-name="asciitilde" unicode="~" horiz-adv-x="739" 
d="M110 849v0v6q-2 3 -3 8q-1 -1 -2 -1l4 -10q0 -2 1 -3zM181 816v0q3 6 5 11q-7 3 -13 6q2 -3 3 -6v-6t-2 -6q3 -1 7 -1v2zM246 895v0q19 8 39 7q-2 3 -4 7q-2 3 -2 7q-32 -5 -55 -35q10 9 22 14zM676 921v0q2 10 9 10q-15 25 -32 47q-27 -60 -81 -71q-27 -3 -50 10.5
t-44 32.5q-10 9 -20 16q-63 52 -137 60q-65 5 -122 -33t-84 -115v0h2q36 -6 70 -22q26 76 90 89q33 4 62 -13.5t55 -41.5q12 -10 23 -19q36 -30 77.5 -48.5t84.5 -9.5q35 8 62 36t35 72z" />
    <glyph glyph-name="exclamdown" unicode="&#xa1;" horiz-adv-x="445" 
d="M343 927v0q2 10 3 19q-6 -1 -12 2l1 -1q0 -1 1 -2q4 -9 7 -18zM340 977v0q-3 5 -8 9q-11 6 -24 8q17 -6 32 -17zM214 955v0q-12 -14 -12.5 -38t10.5 -39q13 -16 34 -19.5t41 -2.5q27 15 31 45q1 19 -9 34.5t-26 24.5t-35.5 9t-33.5 -14zM243 493v0q-30 -445 -6 -890
q32 -3 64 5v1h1q-4 4 -5 11q-6 201 19 401q2 238 -5 476v0v0v0v1q-1 12 -1 23v24q-1 4 -1 8v10v2v0v5q-1 47 -2 95q-38 -5 -77 -2q5 -1 8 -5t4 -11q4 -67 2 -135v-1v-1v-2v-2v-2v-11h-1v0z" />
    <glyph glyph-name="cent" unicode="&#xa2;" horiz-adv-x="561" 
d="M353 566v0l4 2q-16 18 -40 27.5t-47 5.5h13q22 -2 42 -12q2 -1 8.5 -5t12.5 -9t7 -9zM416 285v0q2 4 7 12.5t8 15.5q-29 15 -53 36q-16 -25 -37.5 -45.5t-51.5 -26.5q-63 -5 -90 54q-29 69 -24 144q1 33 9.5 68.5t30.5 61.5q5 5 10 4q33 28 77 19.5t74 -40.5l27 28
q-1 2 -3 4q-24 47 -74 63q-9 4 -10 14q-8 71 -10 143q-19 2 -39 1q-2 -61 5 -121q0 -5 -3 -9t-7 -5q-40 -7 -65.5 -35.5t-42.5 -62.5q-5 -8 -12 -7q-40 -108 -17 -221q9 -52 34 -105t81 -66q4 -1 7 -5t3 -9q5 -69 11 -138q0 -5 1 -10q17 3 35 2q-7 77 -15 153q0 7 6 11.5
t12 2.5q23 -8 45 5.5t39 29.5l2 2q17 14 30 32z" />
    <glyph glyph-name="sterling" unicode="&#xa3;" 
d="M764 147v0l2 2q3 3 8 9t9 12q-2 2 -3 5l-45 51q-33 -46 -77 -69.5t-91 14.5q-15 13 -27 31q-19 27 -45 43q-29 13 -60.5 6t-59.5 -20h-2q-9 -3 -14 3t-5 15t7 15q46 28 89.5 62.5t75.5 83.5q31 52 36 112.5t2 122.5q-1 19 -1 37q0 11 6 15t13 2t11 -10q17 -1 34 -3
q4 0 9 -1q10 -2 20 -3t13 2q3 4 3 16t-1 23v10v30v9q-29 0 -59 1h-60q-7 0 -11.5 5.5t-4.5 12.5q-2 63 -3 126q-4 126 -5 253q-1 34 10.5 62t42.5 37q35 6 58 -21l16 44q8 25 17 50q-65 55 -142 23q-74 -40 -90 -133q-11 -81 -2 -165q2 -14 2 -28l15 -217q0 -10 -6 -15
q7 -3 9.5 -11.5t-1.5 -16t-13 -7.5q-49 4 -98 -3q-7 -40 -7 -81q60 6 119 -9q5 -2 8 -7t3 -11q9 -188 -105 -323q-20 -21 -43 -41q-45 -37 -75 -88q-37 -76 -16 -160q97 131 244 97q31 -11 61 -25q54 -30 114 -32q42 2 79 27q20 13 36 31z" />
    <glyph glyph-name="currency" unicode="&#xa4;" 
d="M678 696v0q-1 -2 -2 -5q-13 -41 -57 -76q-64 -42 -114 -20q-56 27 -78 78q-12 23 -16.5 50.5t9.5 57.5q3 6 8 9q18 29 52.5 48t71.5 26q4 5 12 3h3h1h6v-1v-1q47 -11 73 -55q32 -46 31 -100h2h2zM754 945v0l1 1t2 3t2.5 3.5l2.5 2.5l1 1q0 1 -2.5 3t-4.5 3l-3 2
q-6 6 -10 12q-39 -33 -75 -70q-7 -6 -15 -2q-31 11 -66 9q-1 -1 -1 -2q0 -2 -1 -4q-36 6 -80 -9q-11 -3 -16 3q-34 41 -63 86q-21 -11 -41 -23q21 -40 51 -75q2 -3 0 -7.5t-6 -7.5q-39 -29 -54.5 -62t-20.5 -66q-1 -8 -9 -11q-1 -93 64 -152q-1 0 -1 -1q-1 0 -1 -1
q6 -6 0 -15l-58 -76q-2 -3 -5 -7q-6 -7 -11 -14q-1 -2 -2 -3l-1.5 -4.5t0 -4t3.5 -5.5q4 -7 12 -13.5t16 -11.5q6 7 11 16q3 6 5 9q9 13 19 26t20 25q1 1 4 4.5t6.5 7l5.5 5.5v0v0q0 6 4 10t10 4h1q5 0 8.5 -3t5.5 -7l14 14q48 -24 117 3q6 3 10 1.5t6 -3.5l68 -88
q16 12 35 22l-72 90q-3 4 1.5 10.5t11.5 8.5q27 9 44.5 31t28.5 42l2 2q9 16 16 32q-2 4 -1 9q18 75 -21 141q-5 9 -12 18q-6 -1 -10.5 3t-5.5 9.5t4 11.5q30 30 56 64z" />
    <glyph glyph-name="yen" unicode="&#xa5;" horiz-adv-x="799" 
d="M526 1240v0q-3 -10 -5 -21q2 11 5 21zM673 552v0q2 20 -4 39q-1 5 -2 6.5t-2.5 1.5h-4.5q-2 -1 -5 -1l-22 -2q-26 -1 -51 2q-9 1 -18 3q-7 1 -14 3q-6 -7 -14 -4t-11 10.5t1 14.5q-1 68 2 137q-4 3 -3 9q30 244 99 479q-31 6 -61 19q-56 -196 -67 -400q-1 -7 -6 -11
t-11 -3.5t-10 6.5q-43 86 -99 163q-69 94 -116 199q-25 -6 -46 -22q-4 -3 -8 -3q19 -46 53 -85q4 -6 9 -11q38 -50 68 -104l24 -44q20 -31 38 -63q3 -5 1 -11q26 -48 59 -92q4 -1 7 -6l4 -6q1 -3 3 -7q4 -8 0 -14q3 -4 3 -9q0 -16 -1 -33q1 -32 -1 -64q-1 -30 -32 -31
q-17 0 -34 1q-30 1 -59 0q-46 -3 -91 -12l2 -18q1 -6 2.5 -7t5.5 0q4 0 9 1l54 1q59 2 117 4q8 0 11.5 -5.5t2 -12t-8.5 -9.5q1 -2 1 -4q2 -54 -3 -106q-2 -16 -17 -14q-49 7 -97 14l-42 6q1 -24 -3 -48h5l146 -2q9 -1 12 -9t-2 -15q-9 -11 -11 -28t-2 -33v-17
q-3 -43 -5 -86q-4 -78 -8 -157q15 1 31 3l32 2q-10 175 15 349q1 7 7 9t12 -0.5t8 -8.5q1 -2 12.5 -3t26.5 -1h26h10q10 -1 20 -1q23 -1 46 -3q-3 15 -7 29l-2 8q-73 1 -146 0q-6 0 -10.5 5.5t-2.5 12.5q15 40 12 83q0 8 5.5 11t11.5 2t10 -7h68h68z" />
    <glyph glyph-name="brokenbar" unicode="&#xa6;" 
d="M474 1362v0q9 -96 6 -191.5t-10 -191.5q-10 -131 -10 -261q43 4 87 8q-36 310 -18 624q-28 4 -55 12zM449 1086v0q9 136 -3 272q1 -65 1 -130zM445 -347v0v-3v-10q3 1 7 1h1q-5 6 -8 12zM432 345v0q-6 -29 -4 -59q0 -6 1 -12q0 -23 1 -45q0 -23 1 -46v-1l2 -62
q-2 112 -1 225zM492 -307v0q35 0 69 -1q-1 2 -1 4q-8 166 -16 331q-9 166 -17 332l-48 8q-10 2 -19 4q-1 -201 3 -402q2 -108 5 -216v-18q1 -16 1 -33q1 -5 0.5 -7.5l-0.5 -2.5l0.5 0.5t0.5 1t1 0.5t2 -1q3 -1 6.5 -1t6.5 1h6z" />
    <glyph glyph-name="section" unicode="&#xa7;" 
d="M788 502v0q11 57 14 115.5t-9 115.5q-27 108 -109 160q-80 54 -163 98q-9 5 -19 10q-29 13 -55.5 33.5t-32.5 58.5q-4 45 22.5 80.5t55.5 57.5q57 49 125 63q-9 30 -23.5 58.5t-37.5 31.5q-54 -4 -96 -48q-43 -44 -66.5 -106t-35.5 -129q-1 -5 -3 -8q5 -6 4 -16
q-2 -21 2 -38q4 4 8 9q6 -16 12 -31q-1 0 -2 -1q-14 -9 -18 -27q-2 -5 -1 -11q-1 0 -1 1q-1 1 -2 3q-50 -86 -67 -191q-1 -5 -3 -8q5 -6 4 -16q-4 -53 28 -86t69 -48q12 -6 24 -11q51 -20 99 -52q104 -71 138 -210q15 -75 7.5 -152t-23.5 -150q-1 -2 -1 -3q-13 -75 -45 -139
q-36 -59 -87 -99q-52 -43 -112 -68q-4 -2 -9 -3q-30 -16 -62 -17q0 -1 1 -2l8 -28q0 -2 1 -4q2 -9 4.5 -13t10.5 -6q6 -1 13 0h5q43 2 84 18q83 32 145 108q53 69 80 157.5t42 181.5q0 -1 -1 -2t-1 -2q1 2 2 5q0 1 1 1q4 23 7 45q1 2 1 4q12 63 14 129q10 7 12 24q1 10 3 19
l2 6q5 15 7 31q3 -19 4 -39q14 70 26 138v2zM694 493v0q0 4 1 8q-31 49 -79 82q-80 54 -163 98q-9 5 -19 10q-29 13 -55.5 33.5t-32.5 58.5q-4 45 22.5 80.5t55.5 57.5v1v0q-4 3 -9 6q2 2 3 5h1v1l3 3q4 4 8 9q3 3 5 8q11 -7 21 -11q12 -6 24 -11q51 -20 99 -52
q104 -71 138 -210q15 -76 7 -154q-11 -23 -17 -51q-7 6 -16 7v1v0q2 10 3 20z" />
    <glyph glyph-name="dieresis" unicode="&#xa8;" horiz-adv-x="1024" 
d="M378 1123v0q-18 -30 -7 -64q4 3 9 3h1h1q-13 19 -8 45q1 7 4 16zM510 1085v0q3 22 -14 37q-23 23 -54 30q-2 -7 -12 -7q-10 1 -16 -9t-8 -19q-1 -1 -1 -2q-4 -12 -4 -23t9 -22q9 -8 21 -12q14 -2 27 -3q11 -2 19 -7q7 0 13 1q11 4 15 14.5t5 21.5zM629 1082v0
q-2 -10 -3 -20q5 2 11 -1v1q-1 1 -1 2q-5 9 -7 18zM631 1031v0q3 -5 9 -8q11 -6 24 -9q-18 7 -33 17zM757 1053v0q12 15 13 39t-10 39q-14 16 -35 19.5t-41 2.5q-26 -15 -30 -46q-1 -18 8.5 -34t25.5 -25q17 -9 36 -8.5t33 13.5z" />
    <glyph glyph-name="copyright" unicode="&#xa9;" horiz-adv-x="1169" 
d="M595 1044v0q8 -1 14 -2v0v0q-3 3 -2 6q-12 -1 -24 -4h12zM702 1014v0q17 15 27 32q-10 -11 -20 -23q-4 -4 -7 -8v0v-1zM445 470v0q4 -10 7 -19h4q-6 9 -11 19zM633 369v0q21 7 36 19l-20 -12q-8 -4 -16 -7zM709 406v0q6 9 11 18q-10 -7 -19 -14q5 -1 8 -4zM652 405v0
q30 20 59 41q10 8 21 15q-24 20 -42 43q-20 -25 -50 -47t-70 -12q-38 12 -53 39t-20 54q-17 74 -31 148q-30 150 -18 302q1 4 5 6.5t9 2.5q34 42 98 61q37 12 78 9q32 -6 56 -23q11 11 21 23l20 22q-45 14 -92 20t-95 -7q-80 -26 -124 -80q1 -3 -2 -6q-36 -38 -42 -83
t-1 -89q7 -87 30 -174q2 -10 5 -20q15 -69 40 -136q15 -39 40 -74q21 -35 65 -57q27 -9 50.5 -0.5t42.5 22.5zM1035 828v0q7 -78 -2.5 -159t-40.5 -154q-66 -141 -199.5 -211.5t-287.5 -47.5q-146 25 -254 128q-55 56 -86 126.5t-46 147.5q-34 156 32 300q70 133 188 226
q9 7 17 1q43 25 92 40q43 14 87.5 24t89.5 5q91 -13 175 -52q76 -33 130 -95q96 -123 105 -279zM955 1018v0q-22 43 -55 80q30 -38 50 -83q3 2 5 3zM251 242v0q32 -26 67 -47q42 -26 89 -36q-62 22 -117 58q-20 12 -39 25zM1105 735v0q17 171 -59 323q-41 73 -103 124.5
t-136 87.5q-43 21 -87 25t-91 2q-91 -1 -180 -18q-69 -13 -132 -44t-110 -84q-1 -4 -5 -6v0v0q-11 -14 -20 -29q-4 -6 -9.5 -6.5t-10.5 1.5q-48 -49 -73 -115q-36 -97 -52 -199q-16 -104 15 -205q31 -89 79 -170q2 -3 3 -6q39 -79 106 -133q67 -50 143 -86q86 -33 178 -18
q90 7 176 32q12 4 24 9q12 8 21 21q6 7 13.5 6t11.5 -7q106 53 180 146q55 72 80 160q29 93 38 189z" />
    <glyph glyph-name="ordfeminine" unicode="&#xaa;" horiz-adv-x="579" 
d="M420 1376v-2q4 -16 4 -18q0 -4 -8 -10h-1l-9 3v-7l4 -7v-2q0 -3 -6 -7q-16 0 -30 28q-3 0 -30 25l-25 6q-52 0 -71 -34l-9 -5l2 -11v-2l-9 2q-33 -49 -48 -163l1 -5v-7q4 -1 4 -4q-4 -9 -4 -21q0 -32 25 -81v5q0 5 -3 25l3 3l4 -8h-2q10 -60 29 -60q11 -16 67 -22h9
q13 2 16 4q4 -2 7 -2q8 0 16 7h2q4 0 4 -9h7q12 0 26 25q-3 0 -3 5q0 12 7 16l11 -3q0 6 12 17h4q2 0 5 -8q-2 -4 -2 -6q12 -24 16 -24l2 -11l-6 -11v-3q0 -9 33 -23q3 11 6 12h2q13 -9 13 -19q13 0 18 21h1l-1 4l1 12l-7 48h-2q-8 0 -17 -2q-25 0 -25 21q-2 11 -11 34v10
q0 2 2 2l-2 4v3q0 2 2 2q0 3 -2 3q0 4 2 4q-3 36 -3 39l3 18q0 3 -2 3l2 11q0 7 -2 7l2 12v7q0 5 -2 9q3 15 5 50q0 3 -1 3q3 20 3 51v9q0 6 -3 14l1 4q0 12 -12 23v5l7 11h-1l-6 -4h-7l-5 4h-5q-6 0 -8 -30zM328 1339q34 -8 39 -19q0 5 5 5l9 -7l6 4q25 0 33 -78
q0 -4 -2 -4q2 -90 5 -123l-12 -14l-3 3q0 -12 -12 -18q-21 -54 -46 -54v3q-15 -7 -36 -7q-47 0 -70 72q-4 0 -8 45v30q0 3 2 3q0 2 -2 2q7 58 22 76h2l-2 12q17 45 61 66zM201 583v0q1 9 5 12q-48 3 -96 -2q46 -6 91 -10zM489 572v0q16 -1 32 1q-6 0 -13 -1h-19zM69 691v0
q-2 -39 -1 -77q60 12 120.5 9.5t121.5 -9.5l14 -2q56 -8 112 -11q29 -2 59 -1q15 0 30 1q9 1 17 2h4h4v0v0v1v1q1 3 3 5t4 2q4 -1 7 -5q-1 35 1 69q-247 20 -494 26q0 -6 -2 -11z" />
    <glyph glyph-name="guillemotleft" unicode="&#xab;" horiz-adv-x="944" 
d="M362 185v0q1 -3 3 -5q2 -5 4 -6t8 2h1v0q-9 2 -11 10h-2q-2 -1 -3 -1zM244 502v0q40 65 79 130q51 85 103 170q-34 1 -68 0l-2 -2q-55 -74 -105 -152q-25 -40 -49 -82q-11 -20 -21 -39q-1 -2 -3 -5q-3 -3 -5 -7.5t-3 -7.5q0 -4 2.5 -7.5t6.5 -6.5q1 -2 2 -3
q115 -123 182 -277q11 2 21 3l28 4q-16 28 -31 55q-22 36 -43 73q-8 14 -16 29q-30 61 -75 108q-4 3 -4.5 8t1.5 9zM655 200v0q2 -3 4 -5q2 -5 4 -6t8 2h1v0q-9 2 -11 10h-2q-2 0 -4 -1zM538 517v0q40 65 79 130q51 85 103 170q-34 1 -68 1q-1 -2 -2 -3q-56 -74 -105 -152
q-25 -40 -49 -82q-11 -19 -21 -39q-1 -2 -3 -4q-3 -4 -5 -8.5t-3 -6.5q0 -5 2.5 -8.5t5.5 -6.5l3 -3q114 -123 182 -276q10 1 21 3l28 4q-16 27 -31 54q-22 36 -43 73q-8 14 -16 29q-30 61 -76 108q-3 4 -3.5 8.5t1.5 8.5z" />
    <glyph glyph-name="logicalnot" unicode="&#xac;" 
d="M906 658v0q-193 -18 -386.5 -27t-386.5 7l5 -48q61 8 122 3q15 -1 31 -2q87 -3 175 -4q180 -1 359 8q6 0 10 -4t4 -10q-2 -83 -3 -165q-2 -83 -3 -166q14 0 28 -1t28 -1q2 0 5 -1q6 -1 11.5 -1t7.5 2t1.5 9.5t-0.5 14.5q-1 5 -1 7q0 65 1 131v43v91q2 58 -8 114zM719 563
v0q37 -4 73 -2q1 2 1 5q-37 -2 -74 -3z" />
    <glyph glyph-name="registered" unicode="&#xae;" horiz-adv-x="1674" 
d="M1323 825v0q6 -79 -3.5 -159.5t-40.5 -153.5q-66 -141 -199.5 -212t-286.5 -47q-147 25 -254 128q-56 56 -87 126.5t-45 146.5q-35 156 32 301q69 133 187 226q9 6 17 1q44 25 92 39q43 14 87.5 24t90.5 6q90 -13 174 -52q76 -33 130 -96q96 -122 106 -278zM1243 1015v0
q-23 43 -56 79q31 -38 51 -82q2 2 5 3zM1392 732v0q18 170 -59 323q-40 73 -102 124t-137 88q-43 21 -87 25t-91 2q-91 -2 -180 -18q-69 -14 -132 -45t-109 -83q-2 -4 -5 -7v0v0q-12 -13 -21 -28q-4 -6 -9 -7t-10 2q-49 -49 -73 -115q-37 -97 -52 -199q-16 -105 14 -205
q32 -89 80 -170q1 -3 3 -6q38 -79 106 -134q67 -50 143 -85q85 -34 177 -19q90 7 177 33q12 4 23 8q12 9 22 21q5 7 12.5 6t12.5 -6q106 53 179 145q56 73 80 161q29 92 38 189zM812 757v0q7 -3 8 -9l15 -1q11 0 16 -8q89 -135 209 -264l66 11q-77 52 -109 106
q-12 16 -22 32q-14 21 -30 43q-15 20 -29 35q-8 9 -16 16l-10 8l-3 3q-4 0 -8 1q-7 -1 -12.5 2t-7.5 8q-2 4 0 8t8 7q59 25 80 78q34 96 -46 171q-42 37 -108 55t-134 11q-2 -1 -3 -1q-1 -1 -2 -1q-4 -57 14 -133q8 -34 17 -68q8 -27 15 -55q13 -53 22 -120q3 -20 5 -40
q9 -95 36 -190l1 -1q31 8 64 9q-48 137 -63 276q-1 6 4 10q5 3 11.5 3.5t11.5 -2.5zM791 436v0q-1 0 -2 -1h1l1 1v0zM934 885v0q-3 -37 -33.5 -69.5t-94.5 -35.5h-1q-7 0 -12 3.5t-5 9.5q-6 52 -25 103q-24 62 -25 128q-3 4 -2 9q1 4 4 7v2q1 6 10 10q5 2 11.5 1.5
t10.5 -4.5q4 -3 4 -8q47 -9 87 -39q37 -26 62 -64q10 1 17 -4q4 -4 4 -9q-2 -20 -12 -40zM887 936v0l2 -6q6 -18 10 -36q1 14 -4 27q-3 7 -8 15z" />
    <glyph glyph-name="macron" unicode="&#xaf;" horiz-adv-x="670" 
d="M336 1385v0q-27 2 -55 5q-75 12 -149 3q7 -33 9 -67q11 -1 23.5 -1.5t19.5 -0.5h2h63h83q21 0 42 -1h51h75h11q9 1 19 0.5t18 -2.5v0v0q12 30 -7 57q-2 1 -2 3q-102 -3 -203 4zM307 1296v0v-2q110 -2 221 -4q-2 3 -2 6q-8 0 -15 -1h-7h-35h-45h-22q-48 1 -95 1zM107 1321
v0q-2 0 -4 1q1 -6 1 -11v-5h3q4 1 9 2q-6 5 -9 13z" />
    <glyph glyph-name="degree" unicode="&#xb0;" horiz-adv-x="674" 
d="M507 1258v0q25 52 21.5 114t-41.5 106q-43 44 -100.5 41.5t-102.5 -40.5q-7 -5 -14 -2.5t-10 8.5q-74 -57 -88 -147q6 -4 4 -13q-3 -10 -4 -20q1 -17 5 -33q16 -53 59.5 -85.5t98.5 -34.5q116 4 172 106zM496 1433v0q6 -7 3.5 -13.5t-9.5 -9.5q15 -38 6 -81t-41 -69
q-40 -26 -89 -32q-45 -10 -88 6q-43 21 -50.5 62.5t5.5 84.5q11 35 36.5 58t57.5 38q1 5 7 8q28 15 57.5 8.5t54.5 -26.5q27 -11 50 -34z" />
    <glyph glyph-name="plusminus" unicode="&#xb1;" horiz-adv-x="846" 
d="M90 757v0l1 -1q0 -3 0.5 -4l0.5 -1v3v16v16q-1 -4 -1.5 -10.5t-0.5 -11.5v-7zM449 727v0l1 -1h1v0q0 1 1 1q2 1 5 3q2 1 4 3q-1 -1 -3 -1q-6 0 -13 -1v-4h4zM477 731v0q23 3 46 4q-25 0 -49 -2q2 -1 3 -2zM345 853v0h-1v-3v-4h1h1v1v0v1v5v0h-1zM337 1040v0l-8 -6
q5 -34 8 -69q1 38 0 75zM345 718v0v3v3v0v0q0 -3 -2 -6h2zM417 739v0q0 7 4.5 10.5t9.5 2.5q4 6 11 7q104 10 207 -6v0v0q-1 21 1 42q1 3 2 5q-57 6 -114 13q-53 6 -107 12q-9 2 -12 10t2 14v1v2v0v0v0v0q-14 100 -10 200h-4q-16 1 -32 0q-1 -107 -1 -214q0 -6 -3 -9.5
t-7 -4.5q-4 -4 -10 -5q-117 -13 -234 -22v-10v-21q118 -10 236 -8q6 0 9.5 -4t4.5 -10q5 -3 4 -11q-10 -115 -9 -231q29 0 57 -2q-1 60 -3 120q-1 60 -2 119zM415 264v0q-31 2 -62 5q-87 12 -172 2q8 -32 11 -66q12 -1 26.5 -1.5t21.5 -0.5h3h72h97q24 0 48 -1h58h87h12
q10 1 21.5 0.5t21.5 -2.5v0v0q14 30 -9 56l-2 4q-117 -3 -234 4zM382 175v0v-2q128 -2 255 -4q-2 3 -2 6q-9 0 -17 -1h-9h-40h-52h-25q-55 1 -110 1zM152 200v0h-4q0 -5 1 -10v-5h3q5 1 11 1q-8 6 -11 14z" />
    <glyph glyph-name="uni00B2" unicode="&#xb2;" 
d="M500 1502v0q16 -11 26 -28q-6 16 -17 26q-4 2 -9 2zM611 1018v0h1h1q-2 18 -3 35q-1 18 -2 35q0 3 -1 5q0 4 -0.5 5t-3.5 0q-3 0 -7 -1q-17 -1 -34 -3q-72 -7 -142 -24q-9 -1 -14 4q-7 3 -9.5 10t2.5 14q33 38 72 70t72 70q62 79 67 180q3 50 -12.5 98t-64.5 69
q-93 28 -174 -26q10 -21 20 -43q34 19 74 25t71 -16q21 -13 27 -38q15 -36 9 -75t-25 -72q-47 -76 -112 -137l-24 -24q-38 -34 -52 -81q-5 -30 3 -60q4 -17 5 -34q128 16 256 14z" />
    <glyph glyph-name="uni00B3" unicode="&#xb3;" 
d="M377 1520v0l8 2q-2 7 -5 15q-3 11 -7 21q-5 -7 -2.5 -17.5t6.5 -20.5zM490 1224v0q17 -10 29 -28q2 -3 3 -6q-8 23 -30 33l-1 1h-1zM596 1079v0q13 56 5 117.5t-61 93.5q-6 4 -6.5 10.5t3.5 11.5q36 40 43 93t-20 99q-26 43 -70.5 63t-93.5 13q2 -5 3 -9l10 -32
q48 1 81.5 -30t37.5 -80q2 -53 -29 -91.5t-79 -55.5v-9v-18h21q21 2 42 -0.5t38 -16.5q23 -19 31 -48t5 -57q-8 -57 -48.5 -90t-95.5 -33q5 -32 15 -64q10 4 20 7q47 15 89 38q48 31 59 88z" />
    <glyph glyph-name="acute" unicode="&#xb4;" horiz-adv-x="1024" 
d="M521 1099v0q74 75 143 154q21 24 42 47q-61 6 -124 -3q-55 -109 -118 -216q13 1 26 3q14 1 27 2q-1 7 4 13z" />
    <glyph glyph-name="mu" unicode="&#xb5;" horiz-adv-x="800" 
d="M539 498v0v42v-42zM539 549v0q-1 24 -1 48q0 -24 1 -48zM537 320v0q0 -20 -2 -41q0 -2 -1 -4q1 2 1 4q2 21 2 41q1 21 1 41v27v1v-1v-27q0 -20 -1 -41zM539 476v0v-3v-29v26v6zM524 240v0q-2 -4 -4 -7q2 3 4 7zM534 274v0q0 -2 -1 -4q1 2 1 4zM533 270v0v-4v4zM533 265v0
l-2 -8zM530 256v0l-2 -8zM528 248v0l-4 -8zM514 226v0q-3 -3 -6 -5q3 2 6 5zM519 232v0q-2 -3 -5 -6q3 3 5 6zM274 -197v0q0 -60 -2 -120v0q2 60 2 120zM289 -330v0q5 -1 10 -1q-5 0 -10 1zM303 -332v0h6h-6zM314 -332v0h4h-4zM324 -333v0h1h1h-1h-1zM404 77v0q1 20 1 41
q0 -21 -1 -41zM446 96v0q8 -2 16 -3q-8 1 -16 3zM547 116v0q12 8 24 17l6 -6l-6 6q-12 -9 -24 -17zM579 125v0q1 -2 4 -4q-3 2 -4 4zM640 87v0h1v0v0h-1zM585 118v0q2 -1 4 -3q-2 2 -4 3zM592 112v0q1 -1 3 -2q-2 1 -3 2zM599 107v0q1 -1 3 -2v0h-1zM606 103v0q0 -1 1 -1v0
v0q-1 0 -1 1zM617 96v0h1l1 -1l-1 1h-1zM625 93v0v-1h2h-2v1zM632 90v0q1 -1 2 -1q-1 0 -2 1zM585 161v0q35 -52 97 -52q-5 43 -1 87q-33 -8 -59 12q-18 19 -17 46q-2 28 -1 56v17q0 143 11 286q-19 2 -38 5q-6 1 -12 1q3 -107 1 -215v-17q0 -47 -2 -94q0 -38 -18 -72
q-24 -36 -61.5 -33.5t-66.5 31.5q-31 34 -38.5 78.5t-7.5 89.5q0 5 -1 10q-4 116 11 230q-40 -1 -80 5v-469v-141q1 -163 -1 -325q29 -4 59 1q17 233 17 466q1 8 6.5 11t12 1.5t9.5 -9.5q7 -22 26 -34t42 -12q53 4 90 43q6 5 12 4t10 -7z" />
    <glyph glyph-name="paragraph" unicode="&#xb6;" horiz-adv-x="1024" 
d="M929 1435v-70h-127v-1365h-82v1365h-166v-1365h-84v738q-174 8 -275.5 102.5t-101.5 245.5q0 157 107.5 253t285.5 96h443z" />
    <glyph glyph-name="periodcentered" unicode="&#xb7;" horiz-adv-x="508" 
d="M172.346 665.898v0q13.5996 21.249 19.124 46.3232t-7.22461 48.874q-14.4502 22.9492 -39.0986 34.8486q-11.0498 7.64941 -20.3994 9.34961q-1.7002 -0.849609 -3.40039 -1.7002q-26.3486 -7.64941 -54.3984 -24.6484q-28.0488 -17 -39.0986 -43.3496
q-4.25 -14.4492 -1.27539 -31.0234q2.97559 -16.5742 10.625 -29.3242q17 -23.7998 45.0488 -33.999v0q12.75 -6.7998 28.0488 -11.4746q15.2998 -4.6748 28.8994 1.27441q11.0498 5.9502 18.6992 15.7246q7.65039 9.77539 14.4502 19.125z" />
    <glyph glyph-name="periodcentered" unicode="&#x2219;" horiz-adv-x="508" 
d="M172.346 665.898v0q13.5996 21.249 19.124 46.3232t-7.22461 48.874q-14.4502 22.9492 -39.0986 34.8486q-11.0498 7.64941 -20.3994 9.34961q-1.7002 -0.849609 -3.40039 -1.7002q-26.3486 -7.64941 -54.3984 -24.6484q-28.0488 -17 -39.0986 -43.3496
q-4.25 -14.4492 -1.27539 -31.0234q2.97559 -16.5742 10.625 -29.3242q17 -23.7998 45.0488 -33.999v0q12.75 -6.7998 28.0488 -11.4746q15.2998 -4.6748 28.8994 1.27441q11.0498 5.9502 18.6992 15.7246q7.65039 9.77539 14.4502 19.125z" />
    <glyph glyph-name="cedilla" unicode="&#xb8;" horiz-adv-x="1024" 
d="M357 -351v0h2h1q-1 1 -3 2v-2zM494 -247v0v0q-1 -2 -2 -3l4 2q-1 0 -2 1zM521 -321v0q36 9 65 29.5t32 59.5q-1 35 -21 61.5t-49 42.5q-4 2 -9 4q-9 4 -16.5 10t-6.5 17q2 12 9 23q2 5 4 9l12 30q-34 6 -69 -1h-3q-18 -47 -33 -94q40 0 76 -21t35 -63q-8 -44 -49 -61
q-45 -15 -92 -2q-6 -15 -12 -29q-5 -12 -9 -24q69 -11 136 9z" />
    <glyph glyph-name="uni00B9" unicode="&#xb9;" horiz-adv-x="452" 
d="M278 921l-2 2q-4 -2 -7 -6q5 1 11 1q0 1 -1 1q0 1 -1 2zM248 963q3 17 8 25q8 315 -20 628q-50 3 -92 -22.5t-63 -70.5q3 -7 6 -15q6 -14 12 -27l30 24q4 7 11 8q6 4 13 9q7 4 13.5 0t7.5 -12q-1 -280 17 -559q27 14 57 12z" />
    <glyph glyph-name="ordmasculine" unicode="&#xba;" horiz-adv-x="718" 
d="M459 1447v0q6 -60 2 -121v-12q-1 -10 -1 -21q0 -51 -8 -101q-7 -51 -50 -78q-43 -21 -78 10q-19 20 -23 45.5t-3 51.5l2 90q0 17 1 34q0 20 -1 40q-2 49 1 96q2 24 12 44.5t32 30.5q22 7 43.5 0.5t37.5 -22.5q30 -38 33 -87zM435 1385v0q0 36 -5 72q-1 5 -3 11v-5
q0 -4 -2 -8q6 -24 8 -49q1 -10 2 -21zM416 1170v0q9 20 11 39l4 44l-2 -12q-3 -13 -5 -26v-3q-2 -10 -4 -21q-2 -10 -4 -21zM308 991v0q16 -12 36 -18t38 0q-24 0 -48 7q-14 5 -26 11zM512 1392v0q1 11 1 23q4 67 -10 133q-21 80 -105 79q-45 -1 -84 -23q-17 -12 -26 -29.5
t-16 -36.5v-1q-58 -162 -36 -331q1 -7 -3 -10q10 -66 30 -130q36 -60 115 -65q53 1 79.5 36.5t35.5 84.5t11 91q8 89 8 179z" />
    <glyph glyph-name="guillemotright" unicode="&#xbb;" horiz-adv-x="944" 
d="M501 185q-2 0 -4 1h-2q-2 -8 -11 -10v0h1q6 -3 8.5 -2t4.5 6q1 2 3 5v0zM618 502q2 -4 1.5 -9t-3.5 -8q-46 -47 -76 -108q-8 -15 -16 -29q-21 -37 -42 -73q-16 -27 -32 -55l28 -4q11 -1 21 -3q68 154 182 277l3 3q3 3 5.5 6.5t2.5 7.5q-1 3 -3 7.5t-5 7.5q-2 3 -3 5
q-10 19 -21 39q-24 42 -49 82q-49 78 -105 152l-2 2q-34 1 -68 0q52 -85 103 -170q39 -65 79 -130v0zM207 200q-2 1 -4 1h-2q-2 -8 -11 -10h1v0q6 -3 8.5 -2t4.5 6q1 2 3 5v0zM324 517q2 -4 1.5 -8.5t-3.5 -8.5q-46 -47 -76 -108q-8 -15 -16 -29q-21 -37 -42 -73l-32 -54
l28 -4q11 -2 21 -3q68 153 182 276l3 3q3 3 5.5 6.5t2.5 8.5q0 2 -2.5 6.5t-5.5 8.5q-2 2 -3 4q-10 20 -21 39q-24 42 -49 82q-49 78 -105 152q-1 1 -2 3q-34 0 -67 -1l102 -170q39 -65 79 -130v0z" />
    <glyph glyph-name="onequarter" unicode="&#xbc;" horiz-adv-x="1258" 
d="M745 730v0q10 15 19 31q60 94 115.5 190.5t99.5 199.5q-2 0 -3 1h-2q-9 2 -19 4q-18 3 -36 3q0 -2 -2 -5q-76 -118 -148 -240q-100 -170 -197 -341l-52 -90l-40 -70q-44 -76 -87 -152q-29 -50 -53 -103q-13 -28 -22 -58q-1 0 -1 -1v-1q4 2 10 1q5 -2 10 -3q12 -4 23 -8
q13 1 25 8q25 17 40 44q24 42 46 87q9 18 19 37q9 17 18 35q110 220 237 431zM875 238v0q7 0 13 -1q22 -2 43 -1l-2 10q-27 -5 -54 -8zM1034 55v0q2 4 1.5 13.5t-1.5 18.5q-1 6 -1 8q0 24 -1 47l-4 132q1 7 6 11t12 3q47 -10 93 -4q3 8 12 9q-1 9 -1 17l-2 42q-28 -8 -57 -8
h-3q-12 0 -25.5 2t-21.5 12q-3 5 -3.5 10.5t-0.5 11.5v3v29q1 8 1 15v40t1 40q0 41 1 81q0 41 1 82v44q0 3 1 10q1 8 1 16.5t-2 12.5q-1 3 -3 3.5t-5 0.5h-3h-15q-3 -1 -7 -1h-6h-16q0 -1 -1 -3q-91 -171 -178 -344q-5 -11 -10 -21q-17 -33 -33 -66q-11 -21 -16 -43v-3
q-2 -6 -1 -10t7 -7q3 -2 7.5 -1.5t9.5 0.5q3 1 6 1q99 3 196 24q7 1 12 -2.5t6 -10.5v-10q3 -100 7 -199q5 0 12 -1q2 0 6 -2q6 -2 11 -3.5t7 0.5zM1057 257v0v-6q14 0 27 3q-14 1 -27 3zM963 603v0q8 10 17 6t9 -16q-17 -120 -17 -241q0 -6 -4 -10t-10 -4q-62 1 -120 -19
q-8 -2 -12.5 2.5t-5.5 11.5q-3 24 13 42q-1 4 2 9q36 68 73 136q4 8 8 15q1 0 1 1v0q1 2 2 5zM954 535v0v3t1 5l-4 -6q1 -1 3 -2zM348 734q8 315 -19 630q-50 3 -92 -22.5t-63 -70.5q2 -7 5 -13l13 -30q15 13 31 25q3 6 10 7q6 5 13 9t14 0t7 -12q-1 -279 18 -558
q28 15 59 11v6q1 12 4 18z" />
    <glyph glyph-name="onehalf" unicode="&#xbd;" horiz-adv-x="1403" 
d="M500 693v0q-26 -38 -51 -76q-3 -4 -5 -8q-1 -2 -3 -4q4 -2 6 -5q26 46 53 93zM667 779v0q9 15 19 30q59 95 114.5 191t99.5 199q-1 1 -3 1q-1 0 -2 1q-9 2 -19 3q-17 3 -35 4q-1 -2 -2 -5q-77 -119 -149 -240q-100 -170 -197 -341q-26 -45 -51 -90q-21 -35 -41 -70
q-44 -76 -87 -152q-29 -51 -53 -104q-12 -28 -22 -57q0 -1 -1 -2v-1q4 3 10 1q7 -2 13 -4q11 -3 21 -6q12 1 25 8q24 17 39 44q24 42 46 86q9 19 19 38l18 34q110 221 238 432zM1085 688v0q16 -11 26 -28q-6 16 -17 26q-4 2 -9 2zM1196 204v0h1h1q-1 18 -3 35q-1 18 -2 35v5
q0 5 -1 5.5t-4 -0.5h-7q-17 -2 -34 -3q-72 -8 -142 -25q-9 -1 -14 4q-6 3 -9 10t2 14q33 38 72 70t72 70q62 79 67 180q3 50 -12.5 98.5t-64.5 68.5q-93 28 -174 -26l16 -34q2 -4 5 -9q33 19 73 25t71 -16q21 -13 27 -38q15 -36 9 -75t-25 -72q-46 -76 -112 -137l-24 -24
q-37 -34 -52 -81q-5 -30 3 -60q4 -17 5 -34q128 16 256 14zM348 734q8 315 -19 630q-50 3 -92 -22.5t-63 -70.5q2 -7 5 -13l13 -30q15 13 31 25q3 6 10 7q6 5 13 9t14 0t7 -12q-1 -279 18 -558q28 15 59 11v6q1 12 4 18z" />
    <glyph glyph-name="threequarters" unicode="&#xbe;" horiz-adv-x="1224" 
d="M693 735v0q9 16 19 31q59 94 114.5 190.5t99.5 199.5q-2 0 -3 1h-2q-9 2 -19 4q-18 3 -35 4q-1 -3 -2 -5q-77 -119 -149 -240q-100 -170 -197 -342q-26 -45 -52 -89q-20 -35 -40 -71q-44 -75 -87 -152q-29 -50 -53 -103q-12 -28 -22 -57q0 -1 -1 -2v-1q4 3 10 1l20 -6
q7 -2 14 -5q12 1 25 8q24 18 39 44q24 43 46 87q9 19 19 37q9 18 18 35q110 220 238 431zM981 61v0q3 3 2.5 12.5t-2.5 18.5q0 6 -1 9q0 24 -1 48q-2 65 -3 130q0 8 5 11.5t12 2.5q47 -10 93 -3q4 8 12 8q-1 10 -1 20q-1 19 -2 39q-28 -8 -57 -8h-3q-12 0 -25.5 2t-21.5 12
q-3 5 -3.5 10.5t-0.5 11.5v3q0 15 1 30v14v40t1 40v55l2 108v44q0 4 1 10q1 8 1.5 16.5t-1.5 13.5q-2 3 -3.5 3.5t-4.5 -0.5h-4h-15h-7q-11 -1 -22 -1q0 -1 -1 -2q-91 -172 -178 -345q-5 -11 -10 -21q-17 -33 -33 -66q-11 -20 -16 -43v-2q-2 -7 -1 -11t7 -7q3 -1 7.5 -1
t9.5 1h6q99 3 196 24q7 2 12 -2t6 -11v-7q3 -101 7 -202q6 1 12 -1q2 0 7 -2t10 -3t7 1zM910 609v0q8 9 17 5t9 -16q-17 -120 -17 -241q0 -6 -4 -10t-10 -4q-62 2 -120 -19q-8 -2 -12.5 2.5t-5.5 11.5q-3 24 14 42q-2 4 1 9q33 62 67 125q7 13 15 26v1v0q1 3 2 5zM901 540v0
v3t1 5l-4 -6q2 -1 3 -2zM151 1159v0l8 2q-3 7 -5 15q-3 11 -7 22q-5 -8 -3 -18.5t7 -20.5zM369 718v0q14 56 6 117.5t-61 93.5q-6 4 -6.5 10.5t3.5 11.5q36 40 43 93t-20 99q-26 43 -70.5 63t-93.5 13q1 -5 3 -9l10 -32q48 1 81.5 -30t37.5 -80q2 -53 -29 -91.5t-79 -55.5
v-13v-14q10 0 20 1q22 1 43 -1.5t38 -16.5q23 -19 31 -48t5 -57q-8 -57 -48.5 -90t-95.5 -33q5 -32 15 -64q10 4 20 7q47 15 89 38q48 31 58 88z" />
    <glyph glyph-name="questiondown" unicode="&#xbf;" horiz-adv-x="840" 
d="M762 -71q-16 0 -83 24v-10q0 -163 -147 -229q-22 -10 -63 -10q-42 0 -103 44q-44 44 -44 103v73q0 179 196 351q53 65 53 391q0 48 -10 83l-24 -5h-19v-5q-14 -439 -54 -439q-5 -10 -108 -78q-127 -135 -127 -332q0 -84 39 -181q63 -83 137 -83q20 -5 34 -5
q194 0 284 127q24 42 39 181zM566 873q10 11 20 88q-5 40 -10 48q-73 -8 -73 -73q0 -43 63 -63z" />
    <glyph glyph-name="Agrave" unicode="&#xc0;" horiz-adv-x="904" 
d="M361 1316q4 -8 4 -12q-22 -41 -32 -76q-9 0 -24 -100h-4l4 -8v-4q0 -6 -12 -12l4 -8v-4q-20 -51 -36 -268l-16 -28l8 -12v-4q-9 -20 -40 -20h-48q-21 0 -36 -4q-21 4 -40 4h-52v-12l-16 -52q0 -4 16 -24q123 20 144 20h8q24 -2 24 -12v-8q0 -96 -28 -220l4 -8
q-24 -72 -44 -184q-40 -117 -52 -188h-4q11 -52 44 -52h12q17 0 40 68l-4 8v32q0 9 -4 16q8 24 12 24q-4 8 -4 12q24 58 56 260q24 72 36 164q-4 7 -4 16q10 28 16 28l-4 8q0 44 68 44q52 0 224 24q72 -125 72 -224q36 -140 96 -324q-4 -8 -4 -12q48 -104 64 -104l8 4
l20 -12h4q14 0 32 16q1 -8 8 -8q8 10 8 16q-16 44 -20 44l4 8v8l-4 28h4q-14 71 -88 180q0 43 -12 76h4q0 29 -48 156h4q-20 71 -88 248q-18 68 -32 68l4 8v4q-12 18 -12 28q4 0 4 4q-8 0 -20 60q-17 14 -52 160q-5 0 -8 16l4 8q-10 43 -36 100q4 0 4 4q-8 0 -8 8q4 0 4 4
q-9 0 -16 44q-34 52 -52 52q-68 -17 -68 -76zM429 1240h12q11 0 16 -52q-4 -8 -4 -12q24 -42 32 -100h-4l4 -8v-36q8 -8 20 -100q4 0 4 -4q-4 -8 -4 -12q0 -12 8 -32l-4 -8q8 -34 16 -48l-4 -8q8 -18 8 -40q-9 0 -172 -32l-12 16v44l-4 48l8 4l-4 8v12h8v12q0 9 4 16
q-4 8 -4 12q7 0 12 28l-4 24v28q0 4 4 4l-4 8q15 57 32 172l-4 8v4q0 13 28 16v4l-8 12zM482 1869v0q-71 12 -143 8v0v-1q6 -7 11 -15t11 -15q19 -22 41 -40q15 -12 29 -26q24 -23 48.5 -55.5t25.5 -67.5q33 3 66 8q5 1 13 3q15 4 30 5q-57 104 -132 196z" />
    <glyph glyph-name="Aacute" unicode="&#xc1;" horiz-adv-x="904" 
d="M361 1316q4 -8 4 -12q-22 -41 -32 -76q-9 0 -24 -100h-4l4 -8v-4q0 -6 -12 -12l4 -8v-4q-20 -51 -36 -268l-16 -28l8 -12v-4q-9 -20 -40 -20h-48q-21 0 -36 -4q-21 4 -40 4h-52v-12l-16 -52q0 -4 16 -24q123 20 144 20h8q24 -2 24 -12v-8q0 -96 -28 -220l4 -8
q-24 -72 -44 -184q-40 -117 -52 -188h-4q11 -52 44 -52h12q17 0 40 68l-4 8v32q0 9 -4 16q8 24 12 24q-4 8 -4 12q24 58 56 260q24 72 36 164q-4 7 -4 16q10 28 16 28l-4 8q0 44 68 44q52 0 224 24q72 -125 72 -224q36 -140 96 -324q-4 -8 -4 -12q48 -104 64 -104l8 4
l20 -12h4q14 0 32 16q1 -8 8 -8q8 10 8 16q-16 44 -20 44l4 8v8l-4 28h4q-14 71 -88 180q0 43 -12 76h4q0 29 -48 156h4q-20 71 -88 248q-18 68 -32 68l4 8v4q-12 18 -12 28q4 0 4 4q-8 0 -20 60q-17 14 -52 160q-5 0 -8 16l4 8q-10 43 -36 100q4 0 4 4q-8 0 -8 8q4 0 4 4
q-9 0 -16 44q-34 52 -52 52q-68 -17 -68 -76zM429 1240h12q11 0 16 -52q-4 -8 -4 -12q24 -42 32 -100h-4l4 -8v-36q8 -8 20 -100q4 0 4 -4q-4 -8 -4 -12q0 -12 8 -32l-4 -8q8 -34 16 -48l-4 -8q8 -18 8 -40q-9 0 -172 -32l-12 16v44l-4 48l8 4l-4 8v12h8v12q0 9 4 16
q-4 8 -4 12q7 0 12 28l-4 24v28q0 4 4 4l-4 8q15 57 32 172l-4 8v4q0 13 28 16v4l-8 12zM499 1509v0q74 75 143 154q21 24 42 47q-61 6 -124 -3q-55 -109 -118 -216q13 1 26 3q14 1 27 2q-1 7 4 13z" />
    <glyph glyph-name="Acircumflex" unicode="&#xc2;" horiz-adv-x="904" 
d="M361 1316q4 -8 4 -12q-22 -41 -32 -76q-9 0 -24 -100h-4l4 -8v-4q0 -6 -12 -12l4 -8v-4q-20 -51 -36 -268l-16 -28l8 -12v-4q-9 -20 -40 -20h-48q-21 0 -36 -4q-21 4 -40 4h-52v-12l-16 -52q0 -4 16 -24q123 20 144 20h8q24 -2 24 -12v-8q0 -96 -28 -220l4 -8
q-24 -72 -44 -184q-40 -117 -52 -188h-4q11 -52 44 -52h12q17 0 40 68l-4 8v32q0 9 -4 16q8 24 12 24q-4 8 -4 12q24 58 56 260q24 72 36 164q-4 7 -4 16q10 28 16 28l-4 8q0 44 68 44q52 0 224 24q72 -125 72 -224q36 -140 96 -324q-4 -8 -4 -12q48 -104 64 -104l8 4
l20 -12h4q14 0 32 16q1 -8 8 -8q8 10 8 16q-16 44 -20 44l4 8v8l-4 28h4q-14 71 -88 180q0 43 -12 76h4q0 29 -48 156h4q-20 71 -88 248q-18 68 -32 68l4 8v4q-12 18 -12 28q4 0 4 4q-8 0 -20 60q-17 14 -52 160q-5 0 -8 16l4 8q-10 43 -36 100q4 0 4 4q-8 0 -8 8q4 0 4 4
q-9 0 -16 44q-34 52 -52 52q-68 -17 -68 -76zM429 1240h12q11 0 16 -52q-4 -8 -4 -12q24 -42 32 -100h-4l4 -8v-36q8 -8 20 -100q4 0 4 -4q-4 -8 -4 -12q0 -12 8 -32l-4 -8q8 -34 16 -48l-4 -8q8 -18 8 -40q-9 0 -172 -32l-12 16v44l-4 48l8 4l-4 8v12h8v12q0 9 4 16
q-4 8 -4 12q7 0 12 28l-4 24v28q0 4 4 4l-4 8q15 57 32 172l-4 8v4q0 13 28 16v4l-8 12zM360 1416v0q9 5 19 10q-9 -2 -19 -6v-3v-1zM550 1492v0l2 -4q-2 5 -3 10q-2 8 -5 16zM572 1433v0q1 -1 4.5 0t7.5 2q-10 1 -17 11q1 -1 1 -2q1 0 1 -1q1 -4 0 -8q1 -1 3 -2zM685 1484
v0v0h1q-4 1 -6 6l-101 178q-1 1 -1 2q-2 4 -4 6t-4.5 2.5t-7.5 0.5l-16 -2q-4 -1 -8 -1q-9 -2 -18 -3q-18 -2 -37 -5q-12 -1 -18 -7t-11 -17q-1 0 -1 -1t-1 -1v0v-1q-2 -9 -5 -18q0 -1 -1 -2q1 -3 -1 -7q-1 -2 -2 -5q-1 -1 -1 -3q-26 -78 -63 -152q17 4 35 3q3 -1 10 -2
q5 -1 10.5 -2t7.5 0q3 2 6 9t5 15q1 5 2 8q27 67 61 131q5 8 13.5 6.5t11.5 -9.5q17 -51 33 -101l8 -24q2 -4 3 -7l4 -12q0 -2 1 -4q1 -1 1.5 -2t-0.5 -1q3 -1 10 1l14 4q5 2 7 2z" />
    <glyph glyph-name="Atilde" unicode="&#xc3;" horiz-adv-x="904" 
d="M361 1316q4 -8 4 -12q-22 -41 -32 -76q-9 0 -24 -100h-4l4 -8v-4q0 -6 -12 -12l4 -8v-4q-20 -51 -36 -268l-16 -28l8 -12v-4q-9 -20 -40 -20h-48q-21 0 -36 -4q-21 4 -40 4h-52v-12l-16 -52q0 -4 16 -24q123 20 144 20h8q24 -2 24 -12v-8q0 -96 -28 -220l4 -8
q-24 -72 -44 -184q-40 -117 -52 -188h-4q11 -52 44 -52h12q17 0 40 68l-4 8v32q0 9 -4 16q8 24 12 24q-4 8 -4 12q24 58 56 260q24 72 36 164q-4 7 -4 16q10 28 16 28l-4 8q0 44 68 44q52 0 224 24q72 -125 72 -224q36 -140 96 -324q-4 -8 -4 -12q48 -104 64 -104l8 4
l20 -12h4q14 0 32 16q1 -8 8 -8q8 10 8 16q-16 44 -20 44l4 8v8l-4 28h4q-14 71 -88 180q0 43 -12 76h4q0 29 -48 156h4q-20 71 -88 248q-18 68 -32 68l4 8v4q-12 18 -12 28q4 0 4 4q-8 0 -20 60q-17 14 -52 160q-5 0 -8 16l4 8q-10 43 -36 100q4 0 4 4q-8 0 -8 8q4 0 4 4
q-9 0 -16 44q-34 52 -52 52q-68 -17 -68 -76zM429 1240h12q11 0 16 -52q-4 -8 -4 -12q24 -42 32 -100h-4l4 -8v-36q8 -8 20 -100q4 0 4 -4q-4 -8 -4 -12q0 -12 8 -32l-4 -8q8 -34 16 -48l-4 -8q8 -18 8 -40q-9 0 -172 -32l-12 16v44l-4 48l8 4l-4 8v12h8v12q0 9 4 16
q-4 8 -4 12q7 0 12 28l-4 24v28q0 4 4 4l-4 8q15 57 32 172l-4 8v4q0 13 28 16v4l-8 12zM297 1526v0q23 -4 44 -12q25 54 79 63q5 1 10 1q27 0 50 -14t43 -30v0q10 -7 19 -13q75 -54 128 -42q61 16 75 74q1 4 3 8q-6 9 -13 18q-25 -39 -68 -46q-25 -3 -45.5 7.5t-38.5 25.5
l-16 12q-55 38 -111 42q-110 3 -159 -94z" />
    <glyph glyph-name="Adieresis" unicode="&#xc4;" horiz-adv-x="904" 
d="M361 1316q4 -8 4 -12q-22 -41 -32 -76q-9 0 -24 -100h-4l4 -8v-4q0 -6 -12 -12l4 -8v-4q-20 -51 -36 -268l-16 -28l8 -12v-4q-9 -20 -40 -20h-48q-21 0 -36 -4q-21 4 -40 4h-52v-12l-16 -52q0 -4 16 -24q123 20 144 20h8q24 -2 24 -12v-8q0 -96 -28 -220l4 -8
q-24 -72 -44 -184q-40 -117 -52 -188h-4q11 -52 44 -52h12q17 0 40 68l-4 8v32q0 9 -4 16q8 24 12 24q-4 8 -4 12q24 58 56 260q24 72 36 164q-4 7 -4 16q10 28 16 28l-4 8q0 44 68 44q52 0 224 24q72 -125 72 -224q36 -140 96 -324q-4 -8 -4 -12q48 -104 64 -104l8 4
l20 -12h4q14 0 32 16q1 -8 8 -8q8 10 8 16q-16 44 -20 44l4 8v8l-4 28h4q-14 71 -88 180q0 43 -12 76h4q0 29 -48 156h4q-20 71 -88 248q-18 68 -32 68l4 8v4q-12 18 -12 28q4 0 4 4q-8 0 -20 60q-17 14 -52 160q-5 0 -8 16l4 8q-10 43 -36 100q4 0 4 4q-8 0 -8 8q4 0 4 4
q-9 0 -16 44q-34 52 -52 52q-68 -17 -68 -76zM429 1240h12q11 0 16 -52q-4 -8 -4 -12q24 -42 32 -100h-4l4 -8v-36q8 -8 20 -100q4 0 4 -4q-4 -8 -4 -12q0 -12 8 -32l-4 -8q8 -34 16 -48l-4 -8q8 -18 8 -40q-9 0 -172 -32l-12 16v44l-4 48l8 4l-4 8v12h8v12q0 9 4 16
q-4 8 -4 12q7 0 12 28l-4 24v28q0 4 4 4l-4 8q15 57 32 172l-4 8v4q0 13 28 16v4l-8 12zM333 1533v0q-18 -30 -7 -64q4 3 9 3h1h1q-13 19 -8 45q1 7 4 16zM465 1495v0q3 22 -14 37q-23 23 -54 30q-2 -7 -12 -7q-10 1 -16 -9t-8 -19q-1 -1 -1 -2q-4 -12 -4 -23t9 -22
q9 -8 21 -12q14 -2 27 -3q11 -2 19 -7q7 0 13 1q11 4 15 14.5t5 21.5zM584 1492v0q-2 -10 -3 -20q5 2 11 -1v1q-1 1 -1 2q-5 9 -7 18zM586 1441v0q3 -5 9 -8q11 -6 24 -9q-18 7 -33 17zM712 1463v0q12 15 13 39t-10 39q-14 16 -35 19.5t-41 2.5q-26 -15 -30 -46
q-1 -18 8.5 -34t25.5 -25q17 -9 36 -8.5t33 13.5z" />
    <glyph glyph-name="Aring" unicode="&#xc5;" horiz-adv-x="904" 
d="M660 1472v0q21 44 18.5 97t-35.5 90q-37 37 -85.5 35t-87.5 -34q-6 -4 -12 -2t-8 7q-63 -48 -75 -124q5 -4 3 -12t-3 -17q1 -14 4 -28q14 -45 51 -72.5t83 -29.5q99 3 147 90zM639 1596v0q5 -5 3.5 -10t-7.5 -7q12 -27 4.5 -58.5t-32.5 -51.5q-33 -19 -73 -23
q-36 -8 -71 4q-35 16 -41 46.5t5 61.5q9 26 29.5 42.5t46.5 27.5q1 4 5 6q23 11 47 6t44 -19q22 -8 40 -25zM361 1316q4 -8 4 -12q-22 -41 -32 -76q-9 0 -24 -100h-4l4 -8v-4q0 -6 -12 -12l4 -8v-4q-20 -51 -36 -268l-16 -28l8 -12v-4q-9 -20 -40 -20h-48q-21 0 -36 -4
q-21 4 -40 4h-52v-12l-16 -52q0 -4 16 -24q123 20 144 20h8q24 -2 24 -12v-8q0 -96 -28 -220l4 -8q-24 -72 -44 -184q-40 -117 -52 -188h-4q11 -52 44 -52h12q17 0 40 68l-4 8v32q0 9 -4 16q8 24 12 24q-4 8 -4 12q24 58 56 260q24 72 36 164q-4 7 -4 16q10 28 16 28l-4 8
q0 44 68 44q52 0 224 24q72 -125 72 -224q36 -140 96 -324q-4 -8 -4 -12q48 -104 64 -104l8 4l20 -12h4q14 0 32 16q1 -8 8 -8q8 10 8 16q-16 44 -20 44l4 8v8l-4 28h4q-14 71 -88 180q0 43 -12 76h4q0 29 -48 156h4q-20 71 -88 248q-18 68 -32 68l4 8v4q-12 18 -12 28
q4 0 4 4q-8 0 -20 60q-17 14 -52 160q-5 0 -8 16l4 8q-10 43 -36 100q4 0 4 4q-8 0 -8 8q4 0 4 4q-9 0 -16 44q-34 52 -52 52q-68 -17 -68 -76zM429 1240h12q11 0 16 -52q-4 -8 -4 -12q24 -42 32 -100h-4l4 -8v-36q8 -8 20 -100q4 0 4 -4q-4 -8 -4 -12q0 -12 8 -32l-4 -8
q8 -34 16 -48l-4 -8q8 -18 8 -40q-9 0 -172 -32l-12 16v44l-4 48l8 4l-4 8v12h8v12q0 9 4 16q-4 8 -4 12q7 0 12 28l-4 24v28q0 4 4 4l-4 8q15 57 32 172l-4 8v4q0 13 28 16v4l-8 12z" />
    <glyph glyph-name="AE" unicode="&#xc6;" horiz-adv-x="884" 
d="M91 43v0q2 2 5 4q2 1 4 3q-21 9 -28 36q-2 9 -2 19q-1 -19 2 -37q4 -16 14 -27q1 -1 1 -2q2 3 4 4zM888 158v0q3 19 -6.5 26.5t-23 8t-24.5 -0.5q-70 -7 -141 -13q-6 -1 -9 2.5t-4 8.5q-3 -1 -5 -2q-47 174 -83 351q-12 55 -24 111q-18 92 -38 183v0v0h4h2q1 3 5 5
q26 14 55 11h5h39h39h38q18 0 37 -1h9q10 -1 22 -0.5t20 5.5t8 17q0 13 -8.5 18t-20 5t-21.5 -1h-7q-38 -1 -75 -1q-77 1 -153 8q-9 1 -12 8.5t-1 15.5q-2 -2 -5 -3q-40 179 -98 350v2q-2 4 -3 8q11 -1 23 -2q3 2 7 3q90 2 180 -4q30 -2 59 -4q17 -2 34 -3q12 -2 21 1t12 18
q2 13 -3.5 23.5t-14.5 17.5q-15 12 -34 15t-38 4h-10q-42 2 -84 3h-6q-61 1 -122 1q-30 1 -60 1q-10 1 -13 11q-8 -7 -12 -17q-18 -1 -34 -15q-27 -24 -36.5 -64t-13.5 -80q-1 -14 -2 -26l-53 -411q-2 -9 -8.5 -11t-12.5 3l-3 -2q-7 -4 -13 0q-6 -7 -14.5 -4.5t-10.5 11.5
q-50 7 -101 0h-1v0q-1 -17 -3 -33v-3q0 -5 -1 -11q0 -3 -1 -7v0q1 1 2 1q16 1 31 3l30 2q4 1 7 1q21 4 41 -2q15 -7 22.5 -23t1.5 -33q-26 -138 -46 -278q-4 -22 -7 -45q-17 -103 -24 -208q0 -17 6.5 -26.5t21.5 -5.5q20 8 27 32q13 43 15 90l2 22l4 38q8 102 27 202
q16 74 36 147l20 78q0 6 3.5 11.5t9.5 5.5q92 7 185 13q4 0 7.5 -3.5t5.5 -8.5q61 -180 102 -367q10 -48 18 -97q8 -43 17 -85q3 -18 10.5 -37t22.5 -27q25 13 54 16q47 6 94 11q24 2 47 5h6q15 1 30 6.5t19 24.5zM408 1013v0q24 -119 46 -239q2 -11 -5 -16.5t-16 -1.5
q-3 1 -6 3q-1 0 -1 1v0q-60 -2 -119 -15q-7 -1 -12.5 3.5t-5.5 12.5l18 206q1 9 2 19q2 20 3 41q4 83 23 163q1 3 2 5q0 7 4.5 12t12.5 2q14 -8 20 -25.5t8 -36.5q1 -9 3 -17q12 -58 23 -117z" />
    <glyph glyph-name="Ccedilla" unicode="&#xc7;" horiz-adv-x="586" 
d="M114 1043q3 -8 2 -12q-5 -7 -6 -12q-1 -4 3 -4l-8 -27l-11 -67l9 -18l-1 -8q-15 -16 -17 -30q-4 -98 11 -131l-4 1q-1 -4 3 -5l-6 -15q-13 -82 26 -361l4 -1l1 8l8 -1q13 -70 23 -162q7 -75 188 -189l73 -20q33 -5 107 84q20 -3 32 68q5 33 -47 64l-8 2q-6 1 -43 -66
q-52 -53 -98 -57q-20 3 -19 11l-17 -5q-17 5 -53 118q-4 1 -24 52l5 8q-45 97 -51 308q-1 87 -26 166q-14 84 -24 101l10 11q-8 1 -7 9q3 8 10 7q-7 31 -4 53q6 15 11 14v25q5 30 21 110q37 20 55 60q6 -1 85 51q22 8 42 5l11 -2q20 -3 93 -52q2 11 59 88l1 8
q-31 17 -110 46l-8 -2q-4 0 -11 6q-144 23 -252 -130q-10 -57 -38 -107zM118 349l-2 -12h4l2 12h-4zM269 -351v0h2h1q-1 1 -3 2v-2zM406 -247v0v0q-1 -2 -2 -3l4 2q-1 0 -2 1zM433 -321v0q36 9 65 29.5t32 59.5q-1 35 -21 61.5t-49 42.5q-4 2 -9 4q-9 4 -16.5 10t-6.5 17
q2 12 9 23q2 5 4 9l12 30q-34 6 -69 -1h-3q-18 -47 -33 -94q40 0 76 -21t35 -63q-8 -44 -49 -61q-45 -15 -92 -2q-6 -15 -12 -29q-5 -12 -9 -24q69 -11 136 9z" />
    <glyph glyph-name="Egrave" unicode="&#xc8;" horiz-adv-x="489" 
d="M204 1369h-4q-4 0 -4 4q-24 -12 -104 -24q0 -6 -12 -12l4 -8q0 -12 -12 -32q8 -19 20 -128h-4q0 -4 4 -4q-4 -40 -4 -60v-20q0 -4 -4 -4l8 -40l-4 -8q4 -8 4 -12h-4q4 -11 12 -72l-4 -8q27 -106 36 -328v-12h-4l4 -8q0 -43 8 -92h-4q16 -59 24 -204h-4q12 -57 20 -132
q0 -4 -4 -4q12 -63 12 -72h20q4 0 4 -4l8 4h24q4 0 4 -4l8 4h68q90 0 112 8l8 -4q44 12 44 40q-54 44 -64 44q-44 -16 -60 -16h-4q-9 0 -16 4l-8 -4q-16 4 -28 4l-8 -4q-28 0 -56 108q4 54 4 92v8l4 8q-8 0 -8 12q0 22 -4 56l8 64q-4 70 -4 88q3 64 8 64q-4 8 -12 64h4l-4 8
v12q0 9 4 16q-8 25 -8 32q4 0 4 4q-16 7 -16 28q16 4 16 16h8q39 -8 44 -8q57 24 60 24v-4q56 22 60 40v24q0 7 -56 16q-4 0 -4 -4l-20 4h-24q-12 -12 -64 -28q0 -8 -8 -8h-12q-20 11 -20 16q0 4 4 12q-8 80 -16 80q4 8 4 12l-32 200l4 8l-4 20l4 8q-6 23 -12 36
q23 25 44 28v20q1 8 8 8h4q9 0 20 -32q38 0 88 12l-4 8l4 20q-8 40 -16 40h-12q-43 0 -84 -24zM319 1869v0q-71 12 -143 8v0v-1q6 -7 11 -15t11 -15q19 -22 41 -40q15 -12 29 -26q24 -23 48.5 -55.5t25.5 -67.5q33 3 66 8q5 1 13 3q15 4 30 5q-57 104 -132 196z" />
    <glyph glyph-name="Eacute" unicode="&#xc9;" horiz-adv-x="489" 
d="M204 1369h-4q-4 0 -4 4q-24 -12 -104 -24q0 -6 -12 -12l4 -8q0 -12 -12 -32q8 -19 20 -128h-4q0 -4 4 -4q-4 -40 -4 -60v-20q0 -4 -4 -4l8 -40l-4 -8q4 -8 4 -12h-4q4 -11 12 -72l-4 -8q27 -106 36 -328v-12h-4l4 -8q0 -43 8 -92h-4q16 -59 24 -204h-4q12 -57 20 -132
q0 -4 -4 -4q12 -63 12 -72h20q4 0 4 -4l8 4h24q4 0 4 -4l8 4h68q90 0 112 8l8 -4q44 12 44 40q-54 44 -64 44q-44 -16 -60 -16h-4q-9 0 -16 4l-8 -4q-16 4 -28 4l-8 -4q-28 0 -56 108q4 54 4 92v8l4 8q-8 0 -8 12q0 22 -4 56l8 64q-4 70 -4 88q3 64 8 64q-4 8 -12 64h4l-4 8
v12q0 9 4 16q-8 25 -8 32q4 0 4 4q-16 7 -16 28q16 4 16 16h8q39 -8 44 -8q57 24 60 24v-4q56 22 60 40v24q0 7 -56 16q-4 0 -4 -4l-20 4h-24q-12 -12 -64 -28q0 -8 -8 -8h-12q-20 11 -20 16q0 4 4 12q-8 80 -16 80q4 8 4 12l-32 200l4 8l-4 20l4 8q-6 23 -12 36
q23 25 44 28v20q1 8 8 8h4q9 0 20 -32q38 0 88 12l-4 8l4 20q-8 40 -16 40h-12q-43 0 -84 -24zM335 1509v0q74 75 143 154q21 24 42 47q-61 6 -124 -3q-55 -109 -118 -216q13 1 26 3q14 1 27 2q-1 7 4 13z" />
    <glyph glyph-name="Ecircumflex" unicode="&#xca;" horiz-adv-x="489" 
d="M204 1369h-4q-4 0 -4 4q-24 -12 -104 -24q0 -6 -12 -12l4 -8q0 -12 -12 -32q8 -19 20 -128h-4q0 -4 4 -4q-4 -40 -4 -60v-20q0 -4 -4 -4l8 -40l-4 -8q4 -8 4 -12h-4q4 -11 12 -72l-4 -8q27 -106 36 -328v-12h-4l4 -8q0 -43 8 -92h-4q16 -59 24 -204h-4q12 -57 20 -132
q0 -4 -4 -4q12 -63 12 -72h20q4 0 4 -4l8 4h24q4 0 4 -4l8 4h68q90 0 112 8l8 -4q44 12 44 40q-54 44 -64 44q-44 -16 -60 -16h-4q-9 0 -16 4l-8 -4q-16 4 -28 4l-8 -4q-28 0 -56 108q4 54 4 92v8l4 8q-8 0 -8 12q0 22 -4 56l8 64q-4 70 -4 88q3 64 8 64q-4 8 -12 64h4l-4 8
v12q0 9 4 16q-8 25 -8 32q4 0 4 4q-16 7 -16 28q16 4 16 16h8q39 -8 44 -8q57 24 60 24v-4q56 22 60 40v24q0 7 -56 16q-4 0 -4 -4l-20 4h-24q-12 -12 -64 -28q0 -8 -8 -8h-12q-20 11 -20 16q0 4 4 12q-8 80 -16 80q4 8 4 12l-32 200l4 8l-4 20l4 8q-6 23 -12 36
q23 25 44 28v20q1 8 8 8h4q9 0 20 -32q38 0 88 12l-4 8l4 20q-8 40 -16 40h-12q-43 0 -84 -24zM196 1416v0q9 5 19 10q-9 -2 -19 -6v-3v-1zM386 1492v0l2 -4q-2 5 -3 10q-2 8 -5 16zM408 1433v0q1 -1 4.5 0t7.5 2q-10 1 -17 11q1 -1 1 -2q1 0 1 -1q1 -4 0 -8q1 -1 3 -2z
M521 1484v0v0h1q-4 1 -6 6l-101 178q-1 1 -1 2q-2 4 -4 6t-4.5 2.5t-7.5 0.5l-16 -2q-4 -1 -8 -1q-9 -2 -18 -3q-18 -2 -37 -5q-12 -1 -18 -7t-11 -17q-1 0 -1 -1t-1 -1v0v-1q-2 -9 -5 -18q0 -1 -1 -2q1 -3 -1 -7q-1 -2 -2 -5q-1 -1 -1 -3q-26 -78 -63 -152q17 4 35 3
q3 -1 10 -2q5 -1 10.5 -2t7.5 0q3 2 6 9t5 15q1 5 2 8q27 67 61 131q5 8 13.5 6.5t11.5 -9.5q17 -51 33 -101l8 -24q2 -4 3 -7l4 -12q0 -2 1 -4q1 -1 1.5 -2t-0.5 -1q3 -1 10 1l14 4q5 2 7 2z" />
    <glyph glyph-name="Edieresis" unicode="&#xcb;" horiz-adv-x="489" 
d="M204 1369h-4q-4 0 -4 4q-24 -12 -104 -24q0 -6 -12 -12l4 -8q0 -12 -12 -32q8 -19 20 -128h-4q0 -4 4 -4q-4 -40 -4 -60v-20q0 -4 -4 -4l8 -40l-4 -8q4 -8 4 -12h-4q4 -11 12 -72l-4 -8q27 -106 36 -328v-12h-4l4 -8q0 -43 8 -92h-4q16 -59 24 -204h-4q12 -57 20 -132
q0 -4 -4 -4q12 -63 12 -72h20q4 0 4 -4l8 4h24q4 0 4 -4l8 4h68q90 0 112 8l8 -4q44 12 44 40q-54 44 -64 44q-44 -16 -60 -16h-4q-9 0 -16 4l-8 -4q-16 4 -28 4l-8 -4q-28 0 -56 108q4 54 4 92v8l4 8q-8 0 -8 12q0 22 -4 56l8 64q-4 70 -4 88q3 64 8 64q-4 8 -12 64h4l-4 8
v12q0 9 4 16q-8 25 -8 32q4 0 4 4q-16 7 -16 28q16 4 16 16h8q39 -8 44 -8q57 24 60 24v-4q56 22 60 40v24q0 7 -56 16q-4 0 -4 -4l-20 4h-24q-12 -12 -64 -28q0 -8 -8 -8h-12q-20 11 -20 16q0 4 4 12q-8 80 -16 80q4 8 4 12l-32 200l4 8l-4 20l4 8q-6 23 -12 36
q23 25 44 28v20q1 8 8 8h4q9 0 20 -32q38 0 88 12l-4 8l4 20q-8 40 -16 40h-12q-43 0 -84 -24zM169 1533v0q-18 -30 -7 -64q4 3 9 3h1h1q-13 19 -8 45q1 7 4 16zM301 1495v0q3 22 -14 37q-23 23 -54 30q-2 -7 -12 -7q-10 1 -16 -9t-8 -19q-1 -1 -1 -2q-4 -12 -4 -23t9 -22
q9 -8 21 -12q14 -2 27 -3q11 -2 19 -7q7 0 13 1q11 4 15 14.5t5 21.5zM420 1492v0q-2 -10 -3 -20q5 2 11 -1v1q-1 1 -1 2q-5 9 -7 18zM422 1441v0q3 -5 9 -8q11 -6 24 -9q-18 7 -33 17zM548 1463v0q12 15 13 39t-10 39q-14 16 -35 19.5t-41 2.5q-26 -15 -30 -46
q-1 -18 8.5 -34t25.5 -25q17 -9 36 -8.5t33 13.5z" />
    <glyph glyph-name="Igrave" unicode="&#xcc;" horiz-adv-x="357" 
d="M140 1332q0 4 -4 4q-3 -20 -32 -20h-4q-8 0 -8 12h-4v-144q0 -9 -4 -16q4 -7 4 -16v-72q0 -4 -4 -4q0 -4 4 -4l-4 -20q4 -8 4 -12h-4q4 -8 4 -12q0 -46 8 -76q0 -4 -4 -4l16 -104l-4 -8q16 -91 56 -480q11 -59 20 -148h-4l4 -8v-80h8q70 28 72 36v4q0 9 -4 16l4 8
q-7 69 -12 72l4 24q-28 186 -44 464v140q0 9 -4 16q0 4 4 4l-4 20v252q0 14 4 36q0 4 -4 4l4 28v80q0 4 4 4q-5 19 -16 20q-50 -16 -56 -16zM206 1869v0q-71 12 -143 8v0v-1q6 -7 11 -15t11 -15q19 -22 41 -40q15 -12 29 -26q24 -23 48.5 -55.5t25.5 -67.5q33 3 66 8
q5 1 13 3q15 4 30 5q-57 104 -132 196z" />
    <glyph glyph-name="Iacute" unicode="&#xcd;" horiz-adv-x="357" 
d="M140 1332q0 4 -4 4q-3 -20 -32 -20h-4q-8 0 -8 12h-4v-144q0 -9 -4 -16q4 -7 4 -16v-72q0 -4 -4 -4q0 -4 4 -4l-4 -20q4 -8 4 -12h-4q4 -8 4 -12q0 -46 8 -76q0 -4 -4 -4l16 -104l-4 -8q16 -91 56 -480q11 -59 20 -148h-4l4 -8v-80h8q70 28 72 36v4q0 9 -4 16l4 8
q-7 69 -12 72l4 24q-28 186 -44 464v140q0 9 -4 16q0 4 4 4l-4 20v252q0 14 4 36q0 4 -4 4l4 28v80q0 4 4 4q-5 19 -16 20q-50 -16 -56 -16zM223 1509v0q74 75 143 154q21 24 42 47q-61 6 -124 -3q-55 -109 -118 -216q13 1 26 3q14 1 27 2q-1 7 4 13z" />
    <glyph glyph-name="Icircumflex" unicode="&#xce;" horiz-adv-x="357" 
d="M140 1332q0 4 -4 4q-3 -20 -32 -20h-4q-8 0 -8 12h-4v-144q0 -9 -4 -16q4 -7 4 -16v-72q0 -4 -4 -4q0 -4 4 -4l-4 -20q4 -8 4 -12h-4q4 -8 4 -12q0 -46 8 -76q0 -4 -4 -4l16 -104l-4 -8q16 -91 56 -480q11 -59 20 -148h-4l4 -8v-80h8q70 28 72 36v4q0 9 -4 16l4 8
q-7 69 -12 72l4 24q-28 186 -44 464v140q0 9 -4 16q0 4 4 4l-4 20v252q0 14 4 36q0 4 -4 4l4 28v80q0 4 4 4q-5 19 -16 20q-50 -16 -56 -16zM84 1416v0q9 5 19 10q-9 -2 -19 -6v-3v-1zM274 1492v0l2 -4q-2 5 -3 10q-2 8 -5 16zM296 1433v0q1 -1 4.5 0t7.5 2q-10 1 -17 11
q1 -1 1 -2q1 0 1 -1q1 -4 0 -8q1 -1 3 -2zM409 1484v0v0h1q-4 1 -6 6l-101 178q-1 1 -1 2q-2 4 -4 6t-4.5 2.5t-7.5 0.5l-16 -2q-4 -1 -8 -1q-9 -2 -18 -3q-18 -2 -37 -5q-12 -1 -18 -7t-11 -17q-1 0 -1 -1t-1 -1v0v-1q-2 -9 -5 -18q0 -1 -1 -2q1 -3 -1 -7q-1 -2 -2 -5
q-1 -1 -1 -3q-26 -78 -63 -152q17 4 35 3q3 -1 10 -2q5 -1 10.5 -2t7.5 0q3 2 6 9t5 15q1 5 2 8q27 67 61 131q5 8 13.5 6.5t11.5 -9.5q17 -51 33 -101l8 -24q2 -4 3 -7l4 -12q0 -2 1 -4q1 -1 1.5 -2t-0.5 -1q3 -1 10 1l14 4q5 2 7 2z" />
    <glyph glyph-name="Idieresis" unicode="&#xcf;" horiz-adv-x="357" 
d="M140 1332q0 4 -4 4q-3 -20 -32 -20h-4q-8 0 -8 12h-4v-144q0 -9 -4 -16q4 -7 4 -16v-72q0 -4 -4 -4q0 -4 4 -4l-4 -20q4 -8 4 -12h-4q4 -8 4 -12q0 -46 8 -76q0 -4 -4 -4l16 -104l-4 -8q16 -91 56 -480q11 -59 20 -148h-4l4 -8v-80h8q70 28 72 36v4q0 9 -4 16l4 8
q-7 69 -12 72l4 24q-28 186 -44 464v140q0 9 -4 16q0 4 4 4l-4 20v252q0 14 4 36q0 4 -4 4l4 28v80q0 4 4 4q-5 19 -16 20q-50 -16 -56 -16zM57 1533v0q-18 -30 -7 -64q4 3 9 3h1h1q-13 19 -8 45q1 7 4 16zM189 1495v0q3 22 -14 37q-23 23 -54 30q-2 -7 -12 -7q-10 1 -16 -9
t-8 -19q-1 -1 -1 -2q-4 -12 -4 -23t9 -22q9 -8 21 -12q14 -2 27 -3q11 -2 19 -7q7 0 13 1q11 4 15 14.5t5 21.5zM308 1492v0q-2 -10 -3 -20q5 2 11 -1v1q-1 1 -1 2q-5 9 -7 18zM310 1441v0q3 -5 9 -8q11 -6 24 -9q-18 7 -33 17zM436 1463v0q12 15 13 39t-10 39
q-14 16 -35 19.5t-41 2.5q-26 -15 -30 -46q-1 -18 8.5 -34t25.5 -25q17 -9 36 -8.5t33 13.5z" />
    <glyph glyph-name="Eth" unicode="&#xd0;" horiz-adv-x="585" 
d="M265 1275v0q94 -7 145 -108q21 -48 23 -102t-1 -108q-1 -13 -1 -26q-7 -143 -13 -286v-10q-2 -57 -7.5 -114t-23.5 -110q-19 -55 -52 -96.5t-70 -78.5q-7 -6 -13.5 -3.5t-9.5 9.5t0 15q-6 1 -10 6.5t-2 14.5q33 172 18 348q-2 23 -5 46q-3 21 -5 42q-1 14 2.5 24.5
t14.5 14.5q9 3 17 2q8 0 14.5 2t12.5 11q9 13 10.5 30t-0.5 34q-14 -3 -29 -6q-9 -2 -18 -3q-7 -2 -12 2.5t-5 14.5l-8 432q0 10 6 14t13 1.5t9 -12.5zM258 274v0q8 9 17 18q-8 0 -13 8zM138 1340v0q-1 -3 -2 -7l2 -2v5v4zM-19 737v0q4 -20 16 -26q-12 12 -17 32q0 -3 1 -6z
M133 710v0q0 1 1 2q-18 -3 -35 -6zM155 591v0l4 -28l-2 116h-1h-2v-7v-17v-8v-40v-4v-8q1 -2 1 -4zM489 615v0q19 95 30.5 194t-0.5 197q-10 84 -43.5 155t-91.5 117q-101 73 -218 66q13 -210 19 -421q0 -13 2 -27q4 -36 -1 -68q-4 -18 -14.5 -23.5t-23.5 -6.5
q-75 -8 -148 9q-1 -29 7 -55q6 -14 15.5 -16.5t20.5 -0.5q4 0 7 1q59 5 116 18q7 2 12.5 -2.5t5.5 -14.5q4 -168 3 -336t-17 -336q135 59 213 214q75 156 106 336z" />
    <glyph glyph-name="Ntilde" unicode="&#xd1;" horiz-adv-x="797" 
d="M123 1369q0 -8 4 -8q-4 -21 -4 -24q0 -39 8 -108q-12 -141 -12 -160q4 -7 4 -16h-4l4 -8v-72q0 -9 -4 -16q4 -7 4 -20q-8 -102 -8 -120v-12q0 -12 4 -12l-4 -20v-44q0 -19 4 -40q-4 -15 -8 -84q4 -8 4 -12h-4l4 -8v-4q0 -4 -4 -4q4 -8 4 -12t-4 -12q0 -8 4 -8l-4 -40v-4
q0 -17 4 -44l-4 -8q0 -4 4 -12q-3 -52 -8 -52q0 -4 4 -4l-4 -28v-56q0 -12 -4 -12l4 -20v-140q0 -4 -4 -4q4 -15 28 -24l24 8q20 -7 20 -20q-4 -8 -4 -12h8q0 9 4 16q0 4 -4 4q9 173 16 236q-4 54 -4 92v44q0 14 -4 36q4 6 4 24l-4 8l8 32q-4 7 -4 16l4 8l-4 8l4 8l-4 8
q0 4 4 4l-4 20v84l-4 24q4 6 4 24q0 10 -4 32q5 36 8 44q0 4 -4 4l4 40q0 18 -4 88l4 8q-8 16 -8 24q6 32 20 32q7 4 16 4l16 -44l-4 -16q32 -126 64 -228h-4q68 -181 112 -352h-4l28 -96q4 0 4 -4q-4 0 -4 -4q9 0 28 -156q11 -32 28 -144q9 -28 36 -52l-8 -12v-4h20
q13 0 28 -12l8 4q7 -4 16 -4q0 5 40 16q1 8 8 8l-4 8l4 16l-4 8l4 8q-4 8 -4 12h4q0 4 -4 4l8 68l-4 8l8 52q0 4 -4 4q12 96 24 280q-16 82 -16 92q8 18 8 52v24q0 4 4 4q0 4 -4 4q12 73 20 224q0 9 -4 44l4 24q0 4 -4 4l4 20v36q0 9 -4 16q4 36 8 36l-4 20v4q0 34 -4 72
q4 16 4 32l-4 8q0 4 4 4l-4 20v56q0 9 4 16l-4 8q4 7 4 16l-4 8q0 4 4 4l-8 52l4 8q0 52 -28 52q-33 0 -76 -16v-40q0 -9 4 -16q-4 -7 -4 -16q0 -4 4 -12q-4 -8 -4 -12q0 -10 4 -32q-4 -28 -4 -32q8 -60 8 -100v-100q12 -180 12 -200q-4 -8 -4 -12l4 -8q-4 -27 -4 -44
q0 -9 4 -44q0 -4 -4 -4q0 -4 4 -12q-5 -145 -8 -168q4 -21 4 -40v-12q0 -119 8 -172l-8 -148q8 -1 8 -8q0 -13 -4 -20l4 -24v-4q0 -7 -28 -24h-8q-6 0 -16 28l8 20q-4 8 -4 12l4 16l-8 16q4 7 4 16l-4 8l4 8q-9 41 -24 92h4q-40 147 -48 156q0 4 4 4l-28 84q0 4 4 4
q-40 167 -72 232h4q-23 45 -52 192q-35 91 -64 208q-25 35 -72 236q-2 32 -12 32h-8l-56 -44v-4zM172 1510v0q23 -4 44 -12q26 54 79 63q5 1 11 1q26 0 49 -13.5t43 -29.5v0q10 -7 19 -14q75 -53 129 -41q61 15 74 73q1 5 4 8l-14 18q-25 -39 -67 -46q-26 -3 -46.5 8
t-38.5 25l-16 12q-54 38 -111 43q-110 2 -159 -95z" />
    <glyph glyph-name="Ograve" unicode="&#xd2;" horiz-adv-x="745" 
d="M381 1452l-8 4q-30 -12 -44 -12v-8l4 -8l-8 -4l-28 4l-28 -16l-20 4q-59 -68 -60 -84l8 -16q0 -11 -32 -48q-28 -73 -28 -76l4 -8q-2 -16 -12 -16q0 -43 -20 -72q0 -12 -4 -12q0 -4 4 -4l-20 -160q4 -7 4 -16q-4 -21 -4 -24q4 -8 4 -12h-4q0 -4 4 -4l-4 -20
q8 -140 20 -196h-4q9 -83 16 -100q0 -4 -4 -4q20 -128 20 -180q8 0 32 -120q43 -133 88 -148q68 -76 108 -76h32q80 13 160 116q0 9 40 64q12 62 52 200q0 4 -4 4l4 20q-4 70 -4 84h4q0 4 -4 4l4 20q0 13 -4 20q4 16 4 28q-7 9 -16 120q-8 0 -8 28h4l-4 8q0 12 4 12l-24 216
l4 16q-35 270 -76 340q-32 72 -96 132q-12 0 -12 8q-39 -8 -44 -8zM309 1356q74 -8 104 -28q80 -42 80 -80l8 -64q-4 0 -4 -4q6 0 24 -92q-4 -7 -4 -16l8 -12v-4q0 -4 -4 -4l4 -8v-24l4 -28q-4 0 -4 -4q8 -1 8 -8v-16q0 -18 12 -88h-4l8 -16q-4 -7 -4 -16q4 -8 4 -12h-4
q8 -29 12 -72q-4 -7 -4 -16v-12q1 -40 8 -40l-4 -20q0 -32 -4 -84l4 -8l-4 -8q4 -7 4 -16q-4 -12 -8 -12l4 -8v-8q0 -4 -4 -4q0 -4 4 -4l-8 -112l4 -8q-40 -232 -96 -232q0 -8 -24 -8q-4 0 -12 4l-24 -4h-12q-46 0 -120 92l-28 52v4q0 4 4 4q-16 31 -32 108v36q0 5 -8 44
q0 4 4 4q-44 258 -44 340l12 108l-4 8l16 80l-4 8q18 79 24 92q-4 8 -4 12l4 8q-4 8 -4 12q7 0 24 80q51 104 88 104zM101 1212v-4h4l56 140q-33 0 -60 -136zM377 1300q1 -8 8 -8h4q0 8 -8 8h-4zM393 1288l60 -64h4q-19 64 -64 64zM393 1236v-4q9 -7 48 -68h4q-22 54 -52 72
zM85 1176v-28h4l4 28h-8zM61 1084l-4 -20v-16h4q0 17 4 32v4h-4zM497 936q12 -56 12 -100h8l-4 8v20q0 4 4 4q-4 7 -12 72zM517 816v-8h4v8h-4zM521 628q-4 -33 -8 -40q4 -22 4 -36v-12h8q0 4 -4 4l4 20v64h-4zM517 468q0 -4 -4 -12l8 -4v16h-4zM77 456q8 -24 16 -72h4v4
q-4 22 -4 36v40q-16 -3 -16 -8zM485 288v-4h4q12 23 12 28q-7 0 -16 -24zM457 212v-8h4v8h-4zM213 76q28 -38 40 -40v4q-32 29 -32 36h-8zM461 4v-4h4q10 8 16 8v8q-20 -5 -20 -12zM325 -28v-4h24v4h-24zM423 1666v0v-1v0q3 -3 4 -8t-2 -9v0l-1 -1q-1 -2 -3 -3q3 -11 -5 -21
q-6 -8 -16 -10.5t-21 -2.5q-2 0 -5 -1q-30 -2 -59 -4q-7 0 -13 -1q-3 0 -7 -1q-6 0 -11.5 -0.5t-9.5 1.5q-8 4 -14 13l-5 5q-1 2 -2 3l-2 2q-3 2 -5 5q-41 45 -78 92q-44 41 -90 79q-3 3 -4 6.5t0 7.5q7 33 22 62v0v0q-5 6 -2.5 14.5t12.5 10.5q82 7 163 -7q4 2 8 2t8 -5
q82 -98 143 -210q3 -6 1 -11t-6 -7zM269 1869v0q-70 12 -142 8v0l-1 -1q6 -7 11 -15t11 -15q19 -22 42 -40q15 -12 28 -26q25 -23 49.5 -55.5t24.5 -67.5q34 3 67 8q5 1 12 3q15 4 31 5q-57 104 -133 196zM158 1790v0q15 -24 32 -47l6 -6q3 -2 5 -4q-1 1 -2 3l-4 6
q-17 23 -35 45q-1 1 -2 3zM103 1818v0q4 -3 7 -6q2 -2 5 -4q-5 10 -10 19q-1 -4 -2 -9zM374 1639v0q7 1 12.5 0.5t8.5 -3.5q-3 3 -4 7q-9 -2 -17 -4z" />
    <glyph glyph-name="Oacute" unicode="&#xd3;" horiz-adv-x="750" 
d="M377 1452l-8 4q-30 -12 -44 -12v-8l4 -8l-8 -4l-28 4l-28 -16l-20 4q-59 -68 -60 -84l8 -16q0 -11 -32 -48q-28 -73 -28 -76l4 -8q-2 -16 -12 -16q0 -43 -20 -72q0 -12 -4 -12q0 -4 4 -4l-20 -160q4 -7 4 -16q-4 -21 -4 -24q4 -8 4 -12h-4q0 -4 4 -4l-4 -20
q8 -140 20 -196h-4q9 -83 16 -100q0 -4 -4 -4q20 -128 20 -180q8 0 32 -120q43 -133 88 -148q68 -76 108 -76h32q80 13 160 116q0 9 40 64q12 62 52 200q0 4 -4 4l4 20q-4 70 -4 84h4q0 4 -4 4l4 20q0 13 -4 20q4 16 4 28q-7 9 -16 120q-8 0 -8 28h4l-4 8q0 12 4 12l-24 216
l4 16q-35 270 -76 340q-32 72 -96 132q-12 0 -12 8q-39 -8 -44 -8zM305 1356q74 -8 104 -28q80 -42 80 -80l8 -64q-4 0 -4 -4q6 0 24 -92q-4 -7 -4 -16l8 -12v-4q0 -4 -4 -4l4 -8v-24l4 -28q-4 0 -4 -4q8 -1 8 -8v-16q0 -18 12 -88h-4l8 -16q-4 -7 -4 -16q4 -8 4 -12h-4
q8 -29 12 -72q-4 -7 -4 -16v-12q1 -40 8 -40l-4 -20q0 -32 -4 -84l4 -8l-4 -8q4 -7 4 -16q-4 -12 -8 -12l4 -8v-8q0 -4 -4 -4q0 -4 4 -4l-8 -112l4 -8q-40 -232 -96 -232q0 -8 -24 -8q-4 0 -12 4l-24 -4h-12q-46 0 -120 92l-28 52v4q0 4 4 4q-16 31 -32 108v36q0 5 -8 44
q0 4 4 4q-44 258 -44 340l12 108l-4 8l16 80l-4 8q18 79 24 92q-4 8 -4 12l4 8q-4 8 -4 12q7 0 24 80q51 104 88 104zM415 1509v0q74 75 143 154q21 24 42 47q-61 6 -124 -3q-55 -109 -118 -216q13 1 26 3q14 1 27 2q-1 7 4 13z" />
    <glyph glyph-name="Ocircumflex" unicode="&#xd4;" horiz-adv-x="750" 
d="M377 1452l-8 4q-30 -12 -44 -12v-8l4 -8l-8 -4l-28 4l-28 -16l-20 4q-59 -68 -60 -84l8 -16q0 -11 -32 -48q-28 -73 -28 -76l4 -8q-2 -16 -12 -16q0 -43 -20 -72q0 -12 -4 -12q0 -4 4 -4l-20 -160q4 -7 4 -16q-4 -21 -4 -24q4 -8 4 -12h-4q0 -4 4 -4l-4 -20
q8 -140 20 -196h-4q9 -83 16 -100q0 -4 -4 -4q20 -128 20 -180q8 0 32 -120q43 -133 88 -148q68 -76 108 -76h32q80 13 160 116q0 9 40 64q12 62 52 200q0 4 -4 4l4 20q-4 70 -4 84h4q0 4 -4 4l4 20q0 13 -4 20q4 16 4 28q-7 9 -16 120q-8 0 -8 28h4l-4 8q0 12 4 12l-24 216
l4 16q-35 270 -76 340q-32 72 -96 132q-12 0 -12 8q-39 -8 -44 -8zM305 1356q74 -8 104 -28q80 -42 80 -80l8 -64q-4 0 -4 -4q6 0 24 -92q-4 -7 -4 -16l8 -12v-4q0 -4 -4 -4l4 -8v-24l4 -28q-4 0 -4 -4q8 -1 8 -8v-16q0 -18 12 -88h-4l8 -16q-4 -7 -4 -16q4 -8 4 -12h-4
q8 -29 12 -72q-4 -7 -4 -16v-12q1 -40 8 -40l-4 -20q0 -32 -4 -84l4 -8l-4 -8q4 -7 4 -16q-4 -12 -8 -12l4 -8v-8q0 -4 -4 -4q0 -4 4 -4l-8 -112l4 -8q-40 -232 -96 -232q0 -8 -24 -8q-4 0 -12 4l-24 -4h-12q-46 0 -120 92l-28 52v4q0 4 4 4q-16 31 -32 108v36q0 5 -8 44
q0 4 4 4q-44 258 -44 340l12 108l-4 8l16 80l-4 8q18 79 24 92q-4 8 -4 12l4 8q-4 8 -4 12q7 0 24 80q51 104 88 104zM276 1416v0q9 5 19 10q-9 -2 -19 -6v-3v-1zM466 1492v0l2 -4q-2 5 -3 10q-2 8 -5 16zM488 1433v0q1 -1 4.5 0t7.5 2q-10 1 -17 11q1 -1 1 -2q1 0 1 -1
q1 -4 0 -8q1 -1 3 -2zM601 1484v0v0h1q-4 1 -6 6l-101 178q-1 1 -1 2q-2 4 -4 6t-4.5 2.5t-7.5 0.5l-16 -2q-4 -1 -8 -1q-9 -2 -18 -3q-18 -2 -37 -5q-12 -1 -18 -7t-11 -17q-1 0 -1 -1t-1 -1v0v-1q-2 -9 -5 -18q0 -1 -1 -2q1 -3 -1 -7q-1 -2 -2 -5q-1 -1 -1 -3
q-26 -78 -63 -152q17 4 35 3q3 -1 10 -2q5 -1 10.5 -2t7.5 0q3 2 6 9t5 15q1 5 2 8q27 67 61 131q5 8 13.5 6.5t11.5 -9.5q17 -51 33 -101l8 -24q2 -4 3 -7l4 -12q0 -2 1 -4q1 -1 1.5 -2t-0.5 -1q3 -1 10 1l14 4q5 2 7 2z" />
    <glyph glyph-name="Otilde" unicode="&#xd5;" horiz-adv-x="750" 
d="M377 1452l-8 4q-30 -12 -44 -12v-8l4 -8l-8 -4l-28 4l-28 -16l-20 4q-59 -68 -60 -84l8 -16q0 -11 -32 -48q-28 -73 -28 -76l4 -8q-2 -16 -12 -16q0 -43 -20 -72q0 -12 -4 -12q0 -4 4 -4l-20 -160q4 -7 4 -16q-4 -21 -4 -24q4 -8 4 -12h-4q0 -4 4 -4l-4 -20
q8 -140 20 -196h-4q9 -83 16 -100q0 -4 -4 -4q20 -128 20 -180q8 0 32 -120q43 -133 88 -148q68 -76 108 -76h32q80 13 160 116q0 9 40 64q12 62 52 200q0 4 -4 4l4 20q-4 70 -4 84h4q0 4 -4 4l4 20q0 13 -4 20q4 16 4 28q-7 9 -16 120q-8 0 -8 28h4l-4 8q0 12 4 12l-24 216
l4 16q-35 270 -76 340q-32 72 -96 132q-12 0 -12 8q-39 -8 -44 -8zM305 1356q74 -8 104 -28q80 -42 80 -80l8 -64q-4 0 -4 -4q6 0 24 -92q-4 -7 -4 -16l8 -12v-4q0 -4 -4 -4l4 -8v-24l4 -28q-4 0 -4 -4q8 -1 8 -8v-16q0 -18 12 -88h-4l8 -16q-4 -7 -4 -16q4 -8 4 -12h-4
q8 -29 12 -72q-4 -7 -4 -16v-12q1 -40 8 -40l-4 -20q0 -32 -4 -84l4 -8l-4 -8q4 -7 4 -16q-4 -12 -8 -12l4 -8v-8q0 -4 -4 -4q0 -4 4 -4l-8 -112l4 -8q-40 -232 -96 -232q0 -8 -24 -8q-4 0 -12 4l-24 -4h-12q-46 0 -120 92l-28 52v4q0 4 4 4q-16 31 -32 108v36q0 5 -8 44
q0 4 4 4q-44 258 -44 340l12 108l-4 8l16 80l-4 8q18 79 24 92q-4 8 -4 12l4 8q-4 8 -4 12q7 0 24 80q51 104 88 104zM213 1526v0q23 -4 44 -12q25 54 79 63q5 1 10 1q27 0 50 -14t43 -30v0q10 -7 19 -13q75 -54 128 -42q61 16 75 74q1 4 3 8q-6 9 -13 18q-25 -39 -68 -46
q-25 -3 -45.5 7.5t-38.5 25.5l-16 12q-55 38 -111 42q-110 3 -159 -94z" />
    <glyph glyph-name="Odieresis" unicode="&#xd6;" horiz-adv-x="750" 
d="M377 1452l-8 4q-30 -12 -44 -12v-8l4 -8l-8 -4l-28 4l-28 -16l-20 4q-59 -68 -60 -84l8 -16q0 -11 -32 -48q-28 -73 -28 -76l4 -8q-2 -16 -12 -16q0 -43 -20 -72q0 -12 -4 -12q0 -4 4 -4l-20 -160q4 -7 4 -16q-4 -21 -4 -24q4 -8 4 -12h-4q0 -4 4 -4l-4 -20
q8 -140 20 -196h-4q9 -83 16 -100q0 -4 -4 -4q20 -128 20 -180q8 0 32 -120q43 -133 88 -148q68 -76 108 -76h32q80 13 160 116q0 9 40 64q12 62 52 200q0 4 -4 4l4 20q-4 70 -4 84h4q0 4 -4 4l4 20q0 13 -4 20q4 16 4 28q-7 9 -16 120q-8 0 -8 28h4l-4 8q0 12 4 12l-24 216
l4 16q-35 270 -76 340q-32 72 -96 132q-12 0 -12 8q-39 -8 -44 -8zM305 1356q74 -8 104 -28q80 -42 80 -80l8 -64q-4 0 -4 -4q6 0 24 -92q-4 -7 -4 -16l8 -12v-4q0 -4 -4 -4l4 -8v-24l4 -28q-4 0 -4 -4q8 -1 8 -8v-16q0 -18 12 -88h-4l8 -16q-4 -7 -4 -16q4 -8 4 -12h-4
q8 -29 12 -72q-4 -7 -4 -16v-12q1 -40 8 -40l-4 -20q0 -32 -4 -84l4 -8l-4 -8q4 -7 4 -16q-4 -12 -8 -12l4 -8v-8q0 -4 -4 -4q0 -4 4 -4l-8 -112l4 -8q-40 -232 -96 -232q0 -8 -24 -8q-4 0 -12 4l-24 -4h-12q-46 0 -120 92l-28 52v4q0 4 4 4q-16 31 -32 108v36q0 5 -8 44
q0 4 4 4q-44 258 -44 340l12 108l-4 8l16 80l-4 8q18 79 24 92q-4 8 -4 12l4 8q-4 8 -4 12q7 0 24 80q51 104 88 104zM249 1533v0q-18 -30 -7 -64q4 3 9 3h1h1q-13 19 -8 45q1 7 4 16zM381 1495v0q3 22 -14 37q-23 23 -54 30q-2 -7 -12 -7q-10 1 -16 -9t-8 -19q-1 -1 -1 -2
q-4 -12 -4 -23t9 -22q9 -8 21 -12q14 -2 27 -3q11 -2 19 -7q7 0 13 1q11 4 15 14.5t5 21.5zM500 1492v0q-2 -10 -3 -20q5 2 11 -1v1q-1 1 -1 2q-5 9 -7 18zM502 1441v0q3 -5 9 -8q11 -6 24 -9q-18 7 -33 17zM628 1463v0q12 15 13 39t-10 39q-14 16 -35 19.5t-41 2.5
q-26 -15 -30 -46q-1 -18 8.5 -34t25.5 -25q17 -9 36 -8.5t33 13.5z" />
    <glyph glyph-name="multiply" unicode="&#xd7;" 
d="M877 419v0q2 1 4 1l4 2q-130 178 -303 316q-5 4 -4.5 10t4.5 10q45 46 89 92q90 93 181 186q-19 23 -37 47q-7 10 -15 20q-152 -131 -264 -298q-4 -7 -11.5 -6.5t-12.5 6.5q-86 124 -188 236q-25 28 -52 56q-13 13 -25 26q-3 2 -6 6l-10.5 10.5t-12.5 7.5q-10 3 -20 -2
t-19 -12q-4 -4 -8 -6q-14 -10 -28 -14q54 -41 96.5 -93t80.5 -108q55 -82 123 -153q6 -7 2.5 -14.5t-11.5 -8.5q-1 -2 -3 -4q-149 -122 -287 -257q5 -1 10 -3q13 -6 24 -14l8 -8q5 -6 11 -9q4 -3 8 -3.5t9 2.5q4 2 8 7l3 3q13 13 26 25q24 23 49 46l4 4l96 90l12 12
q19 18 39 37l14 12q12 11 24 23q-2 5 1 10q10 14 25 7q3 -2 5 -5.5t1 -6.5v-2v0q40 -19 71 -51t58 -68q13 -16 25 -31l160 -190q14 22 32 41q0 5 2 9.5t8 6.5z" />
    <glyph glyph-name="Oslash" unicode="&#xd8;" horiz-adv-x="705" 
d="M588 512v0q13 206 -10 411q-15 104 -47 202q-1 0 -1 1v0q1 3 2 7q1 2 1 4q-5 4 -4 13q3 50 20 95q10 21 21 41q13 21 22 44q6 16 4 31t-17 22q-14 5 -21 -5.5t-12 -23.5q0 -3 -1 -5q-18 -46 -42 -88q-3 -5 -7.5 -6.5t-8.5 -0.5q-1 -2 -1 -4l-2 -4q-12 25 -26 47
q-52 83 -137 90h-10q-1 -2 -4 -3q-31 -22 -61 -46q-1 -4 -3 -7q-70 -101 -82 -233q-11 -101 -13 -203q-1 -26 -2 -53q-5 -130 -6 -261v-12v-46q8 -64 19 -127q5 -16 10 -31l-2 -6q0 -2 -1 -5q5 -2 8 -8.5t-1 -14.5q-35 -71 -65 -145q-15 -36 -28 -72q-2 -6 -5 -12
q-6 -15 -9 -29q-2 -12 2 -18.5t12 -12.5q2 -1 4 -3l6 -6q4 -5 10 -10q6 -4 11 -7q0 1 1 2q1 2 3 4q4 8 7 16q12 30 20 61q1 2 2 5q16 61 47 113q7 10 14 4l2 4q4 12 8 25l8 -20q2 -5 3 -10l24 -60l2 -4l4 -10q63 -84 157 -82q64 36 101 109q40 76 55.5 164.5t18.5 178.5z
M515 746v0q4 -4 5 -12q9 -93 11 -186t-17 -183q-9 -42 -29.5 -94.5t-53.5 -82.5q-6 -12 -14 -24q-5 -6 -10 -5.5t-9 4.5q-31 -12 -61.5 6t-49.5 52q-22 39 -37 84q-4 4 -6.5 10t-0.5 13v1v0q8 24 16 47q0 -1 1 -2v-1q115 306 214 621q2 6 6.5 9t8.5 2q1 3 2 5q2 4 3 8
q1 -8 2 -15q8 -6 5 -18q-1 -2 -1 -4q-1 -1 -1 -3l2 -20q1 -8 2 -15q11 -98 12 -197zM350 791v0l-18 -56q-20 -62 -41 -123q-23 -74 -67 -132q-7 -8 -13.5 -4.5t-9.5 11.5t3 16q1 1 1 2q1 0 1 1q-15 106 -17 214q-5 139 10.5 274.5t61.5 263.5q3 9 10 8.5t12 -7.5q40 25 83 8
t71 -59q8 -13 15 -28q9 4 16 -1.5t4 -17.5z" />
    <glyph glyph-name="Ugrave" unicode="&#xd9;" horiz-adv-x="760" 
d="M492 1495l4 -7v-4h-12v4q1 7 8 7zM136 1363v-4q0 -8 4 -15q-8 -14 -8 -25l4 -8q-4 -22 -8 -22l4 -7v-63q0 -3 -4 -3l4 -8q-8 -25 -12 -25l4 -8v-7q0 -4 -4 -4q4 -29 8 -29q-8 -78 -16 -103l4 -7l-4 -22q0 -4 4 -4l-4 -26v-69l4 -23q-4 -6 -4 -18v-4l4 -44h-4l4 -7v-73
l4 -19h-4l4 -7v-8q0 -3 -4 -3l4 -8v-3q0 -4 -4 -4q0 -4 4 -4q0 -8 -4 -14q4 -53 4 -59q0 -24 -4 -73q0 -161 60 -349q48 -100 84 -100q6 -10 164 -62q0 -13 28 -44h12q13 7 24 7h4v-4l-4 -7h4q68 20 68 29q0 12 28 67q40 105 40 371q4 0 4 36q-4 103 -8 147h4l-4 8v3
q0 9 4 15q0 4 -4 4q0 8 4 14l-8 202q4 7 4 15q0 4 -4 4q4 69 16 150q0 4 -4 4q4 19 8 74l-8 113l4 8q-8 31 -8 37l4 33q-3 39 -12 47l4 22q-9 0 -12 19h-36q-13 -11 -24 -11l8 -33h-4q8 -19 8 -66v-129q0 -8 -4 -15q4 -6 4 -18l-16 -276q4 -5 4 -22h-4l4 -7v-4q0 -8 -4 -14
q4 -7 4 -15v-4q0 -8 -4 -14q0 -4 4 -4l-4 -18v-67l4 -36h-4l4 -8v-22q0 -3 -4 -3l4 -8v-11q0 -63 4 -139q0 -4 -4 -30q4 -22 4 -55q0 -7 -8 -51l4 -8q-40 -128 -88 -172q0 -15 -40 -15q-108 0 -212 110q-24 48 -40 96l4 18v41q0 8 -4 14l4 8q-4 11 -8 11q4 25 8 33q0 3 -4 3
l4 15l-4 26h4l-4 7v44q0 4 4 4l-4 7v8q0 8 4 14l-4 8l4 7q-4 7 -4 11h4l-4 7v8q0 3 4 3l-4 8q0 6 4 66l-4 15l4 7l-4 22v4q0 3 4 3l-4 8q4 67 4 84h4l-4 7v22q0 48 8 67q0 3 -4 3l8 44q0 4 -4 4l4 18v44q0 4 4 4l-4 8q8 26 8 40q0 7 -4 7q24 148 24 162q4 0 4 4l-4 7l12 44
q0 4 -4 4q4 32 20 77q0 12 -76 26v3q-25 0 -32 -73zM395 1869v0q-71 12 -143 8v0v-1q6 -7 11 -15t11 -15q19 -22 41 -40q15 -12 29 -26q24 -23 48.5 -55.5t25.5 -67.5q33 3 66 8q5 1 13 3q15 4 30 5q-57 104 -132 196z" />
    <glyph glyph-name="Uacute" unicode="&#xda;" horiz-adv-x="760" 
d="M492 1495l4 -7v-4h-12v4q1 7 8 7zM136 1363v-4q0 -8 4 -15q-8 -14 -8 -25l4 -8q-4 -22 -8 -22l4 -7v-63q0 -3 -4 -3l4 -8q-8 -25 -12 -25l4 -8v-7q0 -4 -4 -4q4 -29 8 -29q-8 -78 -16 -103l4 -7l-4 -22q0 -4 4 -4l-4 -26v-69l4 -23q-4 -6 -4 -18v-4l4 -44h-4l4 -7v-73
l4 -19h-4l4 -7v-8q0 -3 -4 -3l4 -8v-3q0 -4 -4 -4q0 -4 4 -4q0 -8 -4 -14q4 -53 4 -59q0 -24 -4 -73q0 -161 60 -349q48 -100 84 -100q6 -10 164 -62q0 -13 28 -44h12q13 7 24 7h4v-4l-4 -7h4q68 20 68 29q0 12 28 67q40 105 40 371q4 0 4 36q-4 103 -8 147h4l-4 8v3
q0 9 4 15q0 4 -4 4q0 8 4 14l-8 202q4 7 4 15q0 4 -4 4q4 69 16 150q0 4 -4 4q4 19 8 74l-8 113l4 8q-8 31 -8 37l4 33q-3 39 -12 47l4 22q-9 0 -12 19h-36q-13 -11 -24 -11l8 -33h-4q8 -19 8 -66v-129q0 -8 -4 -15q4 -6 4 -18l-16 -276q4 -5 4 -22h-4l4 -7v-4q0 -8 -4 -14
q4 -7 4 -15v-4q0 -8 -4 -14q0 -4 4 -4l-4 -18v-67l4 -36h-4l4 -8v-22q0 -3 -4 -3l4 -8v-11q0 -63 4 -139q0 -4 -4 -30q4 -22 4 -55q0 -7 -8 -51l4 -8q-40 -128 -88 -172q0 -15 -40 -15q-108 0 -212 110q-24 48 -40 96l4 18v41q0 8 -4 14l4 8q-4 11 -8 11q4 25 8 33q0 3 -4 3
l4 15l-4 26h4l-4 7v44q0 4 4 4l-4 7v8q0 8 4 14l-4 8l4 7q-4 7 -4 11h4l-4 7v8q0 3 4 3l-4 8q0 6 4 66l-4 15l4 7l-4 22v4q0 3 4 3l-4 8q4 67 4 84h4l-4 7v22q0 48 8 67q0 3 -4 3l8 44q0 4 -4 4l4 18v44q0 4 4 4l-4 8q8 26 8 40q0 7 -4 7q24 148 24 162q4 0 4 4l-4 7l12 44
q0 4 -4 4q4 32 20 77q0 12 -76 26v3q-25 0 -32 -73zM412 1509v0q74 75 143 154q21 24 42 47q-61 6 -124 -3q-55 -109 -118 -216q13 1 26 3q14 1 27 2q-1 7 4 13z" />
    <glyph glyph-name="Ucircumflex" unicode="&#xdb;" horiz-adv-x="760" 
d="M492 1495l4 -7v-4h-12v4q1 7 8 7zM136 1363v-4q0 -8 4 -15q-8 -14 -8 -25l4 -8q-4 -22 -8 -22l4 -7v-63q0 -3 -4 -3l4 -8q-8 -25 -12 -25l4 -8v-7q0 -4 -4 -4q4 -29 8 -29q-8 -78 -16 -103l4 -7l-4 -22q0 -4 4 -4l-4 -26v-69l4 -23q-4 -6 -4 -18v-4l4 -44h-4l4 -7v-73
l4 -19h-4l4 -7v-8q0 -3 -4 -3l4 -8v-3q0 -4 -4 -4q0 -4 4 -4q0 -8 -4 -14q4 -53 4 -59q0 -24 -4 -73q0 -161 60 -349q48 -100 84 -100q6 -10 164 -62q0 -13 28 -44h12q13 7 24 7h4v-4l-4 -7h4q68 20 68 29q0 12 28 67q40 105 40 371q4 0 4 36q-4 103 -8 147h4l-4 8v3
q0 9 4 15q0 4 -4 4q0 8 4 14l-8 202q4 7 4 15q0 4 -4 4q4 69 16 150q0 4 -4 4q4 19 8 74l-8 113l4 8q-8 31 -8 37l4 33q-3 39 -12 47l4 22q-9 0 -12 19h-36q-13 -11 -24 -11l8 -33h-4q8 -19 8 -66v-129q0 -8 -4 -15q4 -6 4 -18l-16 -276q4 -5 4 -22h-4l4 -7v-4q0 -8 -4 -14
q4 -7 4 -15v-4q0 -8 -4 -14q0 -4 4 -4l-4 -18v-67l4 -36h-4l4 -8v-22q0 -3 -4 -3l4 -8v-11q0 -63 4 -139q0 -4 -4 -30q4 -22 4 -55q0 -7 -8 -51l4 -8q-40 -128 -88 -172q0 -15 -40 -15q-108 0 -212 110q-24 48 -40 96l4 18v41q0 8 -4 14l4 8q-4 11 -8 11q4 25 8 33q0 3 -4 3
l4 15l-4 26h4l-4 7v44q0 4 4 4l-4 7v8q0 8 4 14l-4 8l4 7q-4 7 -4 11h4l-4 7v8q0 3 4 3l-4 8q0 6 4 66l-4 15l4 7l-4 22v4q0 3 4 3l-4 8q4 67 4 84h4l-4 7v22q0 48 8 67q0 3 -4 3l8 44q0 4 -4 4l4 18v44q0 4 4 4l-4 8q8 26 8 40q0 7 -4 7q24 148 24 162q4 0 4 4l-4 7l12 44
q0 4 -4 4q4 32 20 77q0 12 -76 26v3q-25 0 -32 -73zM273 1416v0q9 5 19 10q-9 -2 -19 -6v-3v-1zM463 1492v0l2 -4q-2 5 -3 10q-2 8 -5 16zM485 1433v0q1 -1 4.5 0t7.5 2q-10 1 -17 11q1 -1 1 -2q1 0 1 -1q1 -4 0 -8q1 -1 3 -2zM598 1484v0v0h1q-4 1 -6 6l-101 178q-1 1 -1 2
q-2 4 -4 6t-4.5 2.5t-7.5 0.5l-16 -2q-4 -1 -8 -1q-9 -2 -18 -3q-18 -2 -37 -5q-12 -1 -18 -7t-11 -17q-1 0 -1 -1t-1 -1v0v-1q-2 -9 -5 -18q0 -1 -1 -2q1 -3 -1 -7q-1 -2 -2 -5q-1 -1 -1 -3q-26 -78 -63 -152q17 4 35 3q3 -1 10 -2q5 -1 10.5 -2t7.5 0q3 2 6 9t5 15
q1 5 2 8q27 67 61 131q5 8 13.5 6.5t11.5 -9.5q17 -51 33 -101l8 -24q2 -4 3 -7l4 -12q0 -2 1 -4q1 -1 1.5 -2t-0.5 -1q3 -1 10 1l14 4q5 2 7 2z" />
    <glyph glyph-name="Udieresis" unicode="&#xdc;" horiz-adv-x="760" 
d="M492 1495l4 -7v-4h-12v4q1 7 8 7zM136 1363v-4q0 -8 4 -15q-8 -14 -8 -25l4 -8q-4 -22 -8 -22l4 -7v-63q0 -3 -4 -3l4 -8q-8 -25 -12 -25l4 -8v-7q0 -4 -4 -4q4 -29 8 -29q-8 -78 -16 -103l4 -7l-4 -22q0 -4 4 -4l-4 -26v-69l4 -23q-4 -6 -4 -18v-4l4 -44h-4l4 -7v-73
l4 -19h-4l4 -7v-8q0 -3 -4 -3l4 -8v-3q0 -4 -4 -4q0 -4 4 -4q0 -8 -4 -14q4 -53 4 -59q0 -24 -4 -73q0 -161 60 -349q48 -100 84 -100q6 -10 164 -62q0 -13 28 -44h12q13 7 24 7h4v-4l-4 -7h4q68 20 68 29q0 12 28 67q40 105 40 371q4 0 4 36q-4 103 -8 147h4l-4 8v3
q0 9 4 15q0 4 -4 4q0 8 4 14l-8 202q4 7 4 15q0 4 -4 4q4 69 16 150q0 4 -4 4q4 19 8 74l-8 113l4 8q-8 31 -8 37l4 33q-3 39 -12 47l4 22q-9 0 -12 19h-36q-13 -11 -24 -11l8 -33h-4q8 -19 8 -66v-129q0 -8 -4 -15q4 -6 4 -18l-16 -276q4 -5 4 -22h-4l4 -7v-4q0 -8 -4 -14
q4 -7 4 -15v-4q0 -8 -4 -14q0 -4 4 -4l-4 -18v-67l4 -36h-4l4 -8v-22q0 -3 -4 -3l4 -8v-11q0 -63 4 -139q0 -4 -4 -30q4 -22 4 -55q0 -7 -8 -51l4 -8q-40 -128 -88 -172q0 -15 -40 -15q-108 0 -212 110q-24 48 -40 96l4 18v41q0 8 -4 14l4 8q-4 11 -8 11q4 25 8 33q0 3 -4 3
l4 15l-4 26h4l-4 7v44q0 4 4 4l-4 7v8q0 8 4 14l-4 8l4 7q-4 7 -4 11h4l-4 7v8q0 3 4 3l-4 8q0 6 4 66l-4 15l4 7l-4 22v4q0 3 4 3l-4 8q4 67 4 84h4l-4 7v22q0 48 8 67q0 3 -4 3l8 44q0 4 -4 4l4 18v44q0 4 4 4l-4 8q8 26 8 40q0 7 -4 7q24 148 24 162q4 0 4 4l-4 7l12 44
q0 4 -4 4q4 32 20 77q0 12 -76 26v3q-25 0 -32 -73zM246 1533v0q-18 -30 -7 -64q4 3 9 3h1h1q-13 19 -8 45q1 7 4 16zM378 1495v0q3 22 -14 37q-23 23 -54 30q-2 -7 -12 -7q-10 1 -16 -9t-8 -19q-1 -1 -1 -2q-4 -12 -4 -23t9 -22q9 -8 21 -12q14 -2 27 -3q11 -2 19 -7
q7 0 13 1q11 4 15 14.5t5 21.5zM497 1492v0q-2 -10 -3 -20q5 2 11 -1v1q-1 1 -1 2q-5 9 -7 18zM499 1441v0q3 -5 9 -8q11 -6 24 -9q-18 7 -33 17zM625 1463v0q12 15 13 39t-10 39q-14 16 -35 19.5t-41 2.5q-26 -15 -30 -46q-1 -18 8.5 -34t25.5 -25q17 -9 36 -8.5t33 13.5z
" />
    <glyph glyph-name="Yacute" unicode="&#xdd;" horiz-adv-x="501" 
d="M406 1401q0 -16 -8 -16q0 -4 4 -4q-29 -143 -52 -216q0 -4 4 -4q-8 -35 -8 -56q8 -1 8 -8q0 -28 -20 -28v-84q-11 -24 -32 -24q-68 132 -200 300q-34 38 -104 136h-8q-44 -12 -44 -24q43 -80 60 -80q65 -135 112 -168q62 -90 76 -100q10 0 40 -68q36 -17 36 -68
q-8 -15 -8 -32v-28q0 -4 -4 -4q0 -4 4 -4l-4 -20l4 -8l-4 -8q0 -4 4 -4l-4 -36q0 -6 4 -48h-4l4 -8v-24q0 -4 -4 -4l4 -8v-52l4 -28h-4l4 -8v-8q0 -9 -4 -16q0 -4 4 -4l-4 -28v-20l4 -20h-4l4 -8v-12q0 -9 -4 -16q0 -4 4 -4l-4 -48v-48q0 -32 -4 -76q4 -7 4 -20h-4l4 -8v-12
q0 -4 -4 -4q0 -4 4 -4q-5 -60 -12 -60l4 -8q0 -4 -4 -4l4 -8v-20q0 -4 -4 -4l4 -8q0 -4 -4 -4q0 -4 4 -4q-16 -85 -16 -124h72v20q0 8 12 8l-4 8v8q0 9 4 16q-4 7 -4 16v16l8 12q4 138 4 188q0 4 -4 12q4 8 4 12l-4 20q4 8 4 12l-4 8l4 8q0 4 -4 4q8 50 16 156q0 4 -4 4
l8 72l-4 8q9 196 32 296l-4 8q28 136 56 352q28 90 28 116q-4 8 -4 12h4q-23 44 -48 44zM280 1509v0q74 75 143 154q21 24 42 47q-61 6 -124 -3q-55 -109 -118 -216q13 1 26 3q14 1 27 2q-1 7 4 13z" />
    <glyph glyph-name="Thorn" unicode="&#xde;" horiz-adv-x="523" 
d="M427 424v0q30 60 39 134.5t2 145.5q-14 139 -85 237t-178 106q-6 1 -10 7q-4 1 -7.5 5.5t-3.5 11.5q-5 74 -26 144q-3 13 -6 27q-5 20 -9 40q-1 2 -1 5q-1 3 -2 6.5t-1 7.5h-6q-30 -6 -59 -14q23 -171 40 -345q27 -289 47 -580q16 -231 36 -461h-5h-5q3 -7 5 -15
q8 2 17 3h5h10t13.5 0.5t12.5 0.5t5 1q1 7 4 10q5 10 14 8l-1 23l-4 44l-8 98v7q-3 33 -5 67l-2 16q0 8 -1 16v8.5t-1 14.5v7q-6 4 -8 12v5q-4 8 -2.5 17t9.5 13q50 25 97.5 66.5t79.5 100.5zM394 696v0q11 -111 -19 -214q-16 -49 -45.5 -79.5t-65.5 -52.5q-3 -9 -9.5 -10.5
t-12 2.5t-5.5 15q0 283 -40 560q-1 6 1 11q-1 9 2 15.5t11 6.5q77 -8 125 -81.5t58 -172.5zM351 503v0q23 85 17 175q-2 23 -6 47v-3q1 -3 1 -6q1 -13 -5 -19q5 -28 7 -57q4 -100 -34 -184q12 20 20 47z" />
    <glyph glyph-name="germandbls" unicode="&#xdf;" horiz-adv-x="682" 
d="M571 303v0q44 115 41 239q0 114 -54 209.5t-160 119.5q-7 2 -9 9t1 13q48 106 56 224q4 90 -30.5 174t-110.5 126q-73 37 -150 12q-34 -13 -59.5 -40t-31.5 -65q1 -3 2 -7q13 -141 25 -282q42 -491 75 -983q0 -6 -2 -9q37 2 75 -1q-26 131 -35 263q-11 152 -14 304
q-2 106 -7 211q-6 132 -25 262q-5 29 -11 60q-10 45 -15 90.5t6 89.5q4 10 14 11q53 5 95 -23q5 2 9.5 1t8.5 -7t7 -13q63 -60 78 -152q12 -94 -7 -186q-13 -68 -27 -136l-6 -26q74 21 139 -28q76 -64 88 -169t-8 -201q-7 -44 -24.5 -91.5t-59.5 -63.5q-41 -10 -72.5 12.5
t-51.5 59.5q-9 -7 -17 -15l-18 -14q9 -21 14 -43q6 -27 19 -51v0v-1q6 0 11 -7q3 -6 8 -12q36 -18 75 -4q29 8 56 24v0l1 1q3 3 7 4q63 40 94 111z" />
    <glyph glyph-name="agrave" unicode="&#xe0;" horiz-adv-x="598" 
d="M426 682v-4q5 -27 5 -30q0 -6 -11 -16h-2l-14 4v-11l6 -12v-4q0 -5 -8 -11q-25 0 -46 46q-5 0 -46 42l-38 11q-78 0 -107 -57l-14 -8l3 -19v-4l-14 4q-50 -81 -72 -272l2 -8v-12q6 -1 6 -7q-6 -14 -6 -35q0 -53 38 -134v8q0 9 -5 42l5 4l5 -12h-2q14 -100 43 -100
q17 -27 102 -38h14q19 4 24 8q5 -4 11 -4q12 0 24 11h3q5 0 5 -15h11q18 0 40 42q-5 0 -5 8q0 20 10 27l17 -4q0 10 18 27h6q4 0 8 -12q-3 -7 -3 -11q19 -39 24 -39l3 -19l-8 -19v-4q0 -16 49 -38q5 17 10 19h3q19 -14 19 -31q20 0 27 35h2l-2 7l2 20l-10 80h-3
q-13 0 -27 -4q-38 0 -38 35q-2 19 -16 57v16q0 4 3 4l-3 7v4q0 4 3 4q0 4 -3 4q0 8 3 8q-4 60 -5 65l5 30q0 4 -3 4l3 19q0 12 -3 12l3 19v12q0 8 -3 15q5 25 8 84q0 4 -2 4q5 33 5 85v15q0 10 -5 23l2 8q0 19 -19 38v8l11 19h-2l-9 -8h-10l-8 8h-8q-9 0 -11 -50zM286 619
q51 -12 59 -31q0 8 8 8l13 -12l10 8q37 0 49 -131q0 -7 -2 -7q3 -150 7 -204l-18 -23l-5 4q0 -19 -18 -30q-32 -89 -70 -89v4q-23 -11 -54 -11q-71 0 -106 119q-6 0 -13 76v50q0 4 3 4q0 4 -3 4q11 97 34 126h3l-3 20q26 75 93 111zM353 1459v0q-71 12 -143 8v0v-1
q6 -7 11 -15t11 -15q19 -22 41 -40q15 -12 29 -26q24 -23 48.5 -55.5t25.5 -67.5q33 3 66 8q5 1 13 3q15 4 30 5q-57 104 -132 196z" />
    <glyph glyph-name="aacute" unicode="&#xe1;" horiz-adv-x="598" 
d="M426 682v-4q5 -27 5 -30q0 -6 -11 -16h-2l-14 4v-11l6 -12v-4q0 -5 -8 -11q-25 0 -46 46q-5 0 -46 42l-38 11q-78 0 -107 -57l-14 -8l3 -19v-4l-14 4q-50 -81 -72 -272l2 -8v-12q6 -1 6 -7q-6 -14 -6 -35q0 -53 38 -134v8q0 9 -5 42l5 4l5 -12h-2q14 -100 43 -100
q17 -27 102 -38h14q19 4 24 8q5 -4 11 -4q12 0 24 11h3q5 0 5 -15h11q18 0 40 42q-5 0 -5 8q0 20 10 27l17 -4q0 10 18 27h6q4 0 8 -12q-3 -7 -3 -11q19 -39 24 -39l3 -19l-8 -19v-4q0 -16 49 -38q5 17 10 19h3q19 -14 19 -31q20 0 27 35h2l-2 7l2 20l-10 80h-3
q-13 0 -27 -4q-38 0 -38 35q-2 19 -16 57v16q0 4 3 4l-3 7v4q0 4 3 4q0 4 -3 4q0 8 3 8q-4 60 -5 65l5 30q0 4 -3 4l3 19q0 12 -3 12l3 19v12q0 8 -3 15q5 25 8 84q0 4 -2 4q5 33 5 85v15q0 10 -5 23l2 8q0 19 -19 38v8l11 19h-2l-9 -8h-10l-8 8h-8q-9 0 -11 -50zM286 619
q51 -12 59 -31q0 8 8 8l13 -12l10 8q37 0 49 -131q0 -7 -2 -7q3 -150 7 -204l-18 -23l-5 4q0 -19 -18 -30q-32 -89 -70 -89v4q-23 -11 -54 -11q-71 0 -106 119q-6 0 -13 76v50q0 4 3 4q0 4 -3 4q11 97 34 126h3l-3 20q26 75 93 111zM370 1099v0q74 75 143 154q21 24 42 47
q-61 6 -124 -3q-55 -109 -118 -216q13 1 26 3q14 1 27 2q-1 7 4 13z" />
    <glyph glyph-name="acircumflex" unicode="&#xe2;" horiz-adv-x="598" 
d="M426 682v-4q5 -27 5 -30q0 -6 -11 -16h-2l-14 4v-11l6 -12v-4q0 -5 -8 -11q-25 0 -46 46q-5 0 -46 42l-38 11q-78 0 -107 -57l-14 -8l3 -19v-4l-14 4q-50 -81 -72 -272l2 -8v-12q6 -1 6 -7q-6 -14 -6 -35q0 -53 38 -134v8q0 9 -5 42l5 4l5 -12h-2q14 -100 43 -100
q17 -27 102 -38h14q19 4 24 8q5 -4 11 -4q12 0 24 11h3q5 0 5 -15h11q18 0 40 42q-5 0 -5 8q0 20 10 27l17 -4q0 10 18 27h6q4 0 8 -12q-3 -7 -3 -11q19 -39 24 -39l3 -19l-8 -19v-4q0 -16 49 -38q5 17 10 19h3q19 -14 19 -31q20 0 27 35h2l-2 7l2 20l-10 80h-3
q-13 0 -27 -4q-38 0 -38 35q-2 19 -16 57v16q0 4 3 4l-3 7v4q0 4 3 4q0 4 -3 4q0 8 3 8q-4 60 -5 65l5 30q0 4 -3 4l3 19q0 12 -3 12l3 19v12q0 8 -3 15q5 25 8 84q0 4 -2 4q5 33 5 85v15q0 10 -5 23l2 8q0 19 -19 38v8l11 19h-2l-9 -8h-10l-8 8h-8q-9 0 -11 -50zM286 619
q51 -12 59 -31q0 8 8 8l13 -12l10 8q37 0 49 -131q0 -7 -2 -7q3 -150 7 -204l-18 -23l-5 4q0 -19 -18 -30q-32 -89 -70 -89v4q-23 -11 -54 -11q-71 0 -106 119q-6 0 -13 76v50q0 4 3 4q0 4 -3 4q11 97 34 126h3l-3 20q26 75 93 111zM231 1006v0q9 5 19 10q-9 -2 -19 -6v-3
v-1zM421 1082v0l2 -4q-2 5 -3 10q-2 8 -5 16zM443 1023v0q1 -1 4.5 0t7.5 2q-10 1 -17 11q1 -1 1 -2q1 0 1 -1q1 -4 0 -8q1 -1 3 -2zM556 1074v0v0h1q-4 1 -6 6l-101 178q-1 1 -1 2q-2 4 -4 6t-4.5 2.5t-7.5 0.5l-16 -2q-4 -1 -8 -1q-9 -2 -18 -3q-18 -2 -37 -5
q-12 -1 -18 -7t-11 -17q-1 0 -1 -1t-1 -1v0v-1q-2 -9 -5 -18q0 -1 -1 -2q1 -3 -1 -7q-1 -2 -2 -5q-1 -1 -1 -3q-26 -78 -63 -152q17 4 35 3q3 -1 10 -2q5 -1 10.5 -2t7.5 0q3 2 6 9t5 15q1 5 2 8q27 67 61 131q5 8 13.5 6.5t11.5 -9.5q17 -51 33 -101l8 -24q2 -4 3 -7l4 -12
q0 -2 1 -4q1 -1 1.5 -2t-0.5 -1q3 -1 10 1l14 4q5 2 7 2z" />
    <glyph glyph-name="atilde" unicode="&#xe3;" horiz-adv-x="598" 
d="M426 682v-4q5 -27 5 -30q0 -6 -11 -16h-2l-14 4v-11l6 -12v-4q0 -5 -8 -11q-25 0 -46 46q-5 0 -46 42l-38 11q-78 0 -107 -57l-14 -8l3 -19v-4l-14 4q-50 -81 -72 -272l2 -8v-12q6 -1 6 -7q-6 -14 -6 -35q0 -53 38 -134v8q0 9 -5 42l5 4l5 -12h-2q14 -100 43 -100
q17 -27 102 -38h14q19 4 24 8q5 -4 11 -4q12 0 24 11h3q5 0 5 -15h11q18 0 40 42q-5 0 -5 8q0 20 10 27l17 -4q0 10 18 27h6q4 0 8 -12q-3 -7 -3 -11q19 -39 24 -39l3 -19l-8 -19v-4q0 -16 49 -38q5 17 10 19h3q19 -14 19 -31q20 0 27 35h2l-2 7l2 20l-10 80h-3
q-13 0 -27 -4q-38 0 -38 35q-2 19 -16 57v16q0 4 3 4l-3 7v4q0 4 3 4q0 4 -3 4q0 8 3 8q-4 60 -5 65l5 30q0 4 -3 4l3 19q0 12 -3 12l3 19v12q0 8 -3 15q5 25 8 84q0 4 -2 4q5 33 5 85v15q0 10 -5 23l2 8q0 19 -19 38v8l11 19h-2l-9 -8h-10l-8 8h-8q-9 0 -11 -50zM286 619
q51 -12 59 -31q0 8 8 8l13 -12l10 8q37 0 49 -131q0 -7 -2 -7q3 -150 7 -204l-18 -23l-5 4q0 -19 -18 -30q-32 -89 -70 -89v4q-23 -11 -54 -11q-71 0 -106 119q-6 0 -13 76v50q0 4 3 4q0 4 -3 4q11 97 34 126h3l-3 20q26 75 93 111zM168 1116v0q23 -4 44 -12q25 54 79 63
q5 1 10 1q27 0 50 -14t43 -30v0q10 -7 19 -13q75 -54 128 -42q61 16 75 74q1 4 3 8q-6 9 -13 18q-25 -39 -68 -46q-25 -3 -45.5 7.5t-38.5 25.5l-16 12q-55 38 -111 42q-110 3 -159 -94z" />
    <glyph glyph-name="adieresis" unicode="&#xe4;" horiz-adv-x="598" 
d="M426 682v-4q5 -27 5 -30q0 -6 -11 -16h-2l-14 4v-11l6 -12v-4q0 -5 -8 -11q-25 0 -46 46q-5 0 -46 42l-38 11q-78 0 -107 -57l-14 -8l3 -19v-4l-14 4q-50 -81 -72 -272l2 -8v-12q6 -1 6 -7q-6 -14 -6 -35q0 -53 38 -134v8q0 9 -5 42l5 4l5 -12h-2q14 -100 43 -100
q17 -27 102 -38h14q19 4 24 8q5 -4 11 -4q12 0 24 11h3q5 0 5 -15h11q18 0 40 42q-5 0 -5 8q0 20 10 27l17 -4q0 10 18 27h6q4 0 8 -12q-3 -7 -3 -11q19 -39 24 -39l3 -19l-8 -19v-4q0 -16 49 -38q5 17 10 19h3q19 -14 19 -31q20 0 27 35h2l-2 7l2 20l-10 80h-3
q-13 0 -27 -4q-38 0 -38 35q-2 19 -16 57v16q0 4 3 4l-3 7v4q0 4 3 4q0 4 -3 4q0 8 3 8q-4 60 -5 65l5 30q0 4 -3 4l3 19q0 12 -3 12l3 19v12q0 8 -3 15q5 25 8 84q0 4 -2 4q5 33 5 85v15q0 10 -5 23l2 8q0 19 -19 38v8l11 19h-2l-9 -8h-10l-8 8h-8q-9 0 -11 -50zM286 619
q51 -12 59 -31q0 8 8 8l13 -12l10 8q37 0 49 -131q0 -7 -2 -7q3 -150 7 -204l-18 -23l-5 4q0 -19 -18 -30q-32 -89 -70 -89v4q-23 -11 -54 -11q-71 0 -106 119q-6 0 -13 76v50q0 4 3 4q0 4 -3 4q11 97 34 126h3l-3 20q26 75 93 111zM204 1123v0q-18 -30 -7 -64q4 3 9 3h1h1
q-13 19 -8 45q1 7 4 16zM336 1085v0q3 22 -14 37q-23 23 -54 30q-2 -7 -12 -7q-10 1 -16 -9t-8 -19q-1 -1 -1 -2q-4 -12 -4 -23t9 -22q9 -8 21 -12q14 -2 27 -3q11 -2 19 -7q7 0 13 1q11 4 15 14.5t5 21.5zM455 1082v0q-2 -10 -3 -20q5 2 11 -1v1q-1 1 -1 2q-5 9 -7 18z
M457 1031v0q3 -5 9 -8q11 -6 24 -9q-18 7 -33 17zM583 1053v0q12 15 13 39t-10 39q-14 16 -35 19.5t-41 2.5q-26 -15 -30 -46q-1 -18 8.5 -34t25.5 -25q17 -9 36 -8.5t33 13.5z" />
    <glyph glyph-name="aring" unicode="&#xe5;" horiz-adv-x="598" 
d="M531 1062v0q21 44 18.5 97t-35.5 90q-37 37 -85.5 35t-87.5 -34q-6 -4 -12 -2t-8 7q-63 -48 -75 -124q5 -4 3 -12t-3 -17q1 -14 4 -28q14 -45 51 -72.5t83 -29.5q99 3 147 90zM510 1186v0q5 -5 3.5 -10t-7.5 -7q12 -27 4.5 -58.5t-32.5 -51.5q-33 -19 -73 -23
q-36 -8 -71 4q-35 16 -41 46.5t5 61.5q9 26 29.5 42.5t46.5 27.5q1 4 5 6q23 11 47 6t44 -19q22 -8 40 -25zM426 682v-4q5 -27 5 -30q0 -6 -11 -16h-2l-14 4v-11l6 -12v-4q0 -5 -8 -11q-25 0 -46 46q-5 0 -46 42l-38 11q-78 0 -107 -57l-14 -8l3 -19v-4l-14 4
q-50 -81 -72 -272l2 -8v-12q6 -1 6 -7q-6 -14 -6 -35q0 -53 38 -134v8q0 9 -5 42l5 4l5 -12h-2q14 -100 43 -100q17 -27 102 -38h14q19 4 24 8q5 -4 11 -4q12 0 24 11h3q5 0 5 -15h11q18 0 40 42q-5 0 -5 8q0 20 10 27l17 -4q0 10 18 27h6q4 0 8 -12q-3 -7 -3 -11
q19 -39 24 -39l3 -19l-8 -19v-4q0 -16 49 -38q5 17 10 19h3q19 -14 19 -31q20 0 27 35h2l-2 7l2 20l-10 80h-3q-13 0 -27 -4q-38 0 -38 35q-2 19 -16 57v16q0 4 3 4l-3 7v4q0 4 3 4q0 4 -3 4q0 8 3 8q-4 60 -5 65l5 30q0 4 -3 4l3 19q0 12 -3 12l3 19v12q0 8 -3 15
q5 25 8 84q0 4 -2 4q5 33 5 85v15q0 10 -5 23l2 8q0 19 -19 38v8l11 19h-2l-9 -8h-10l-8 8h-8q-9 0 -11 -50zM286 619q51 -12 59 -31q0 8 8 8l13 -12l10 8q37 0 49 -131q0 -7 -2 -7q3 -150 7 -204l-18 -23l-5 4q0 -19 -18 -30q-32 -89 -70 -89v4q-23 -11 -54 -11
q-71 0 -106 119q-6 0 -13 76v50q0 4 3 4q0 4 -3 4q11 97 34 126h3l-3 20q26 75 93 111z" />
    <glyph glyph-name="ae" unicode="&#xe6;" horiz-adv-x="751" 
d="M33 398v0q-4 -10 -6.5 -21.5t0.5 -20.5q2 21 6 42zM30 245v0q1 -5 3 -11q-3 17 -5 34q-3 29 -2 59q-3 -1 -7 -1q1 -41 11 -81zM49 478v0l2 -2q2 8 4 15q-3 -6 -6 -13zM519 34v0q17 0 33 3q-16 -2 -33 -3zM458 147v0q-19 30 -27 70.5t7 73.5q15 27 40 44.5t52 31.5l26 14
q79 47 150 105q-16 52 -58.5 88.5t-94.5 49.5q-58 11 -94.5 -23t-58.5 -83v-3l-2 -50q-1 -9 -8 -12t-13.5 0t-6.5 12l2 50q1 12 1 24q-3 1 -5 1q3 49 10 97q-7 0 -14 1l-28 4q-1 -12 -2 -25q-1 -11 -2 -23q-1 -6 -4 -9q-3 -7 -11.5 -9t-14.5 5q-26 34 -68.5 41.5
t-79.5 -13.5q-36 -25 -53.5 -69t-27.5 -86q0 -3 -1 -5q-26 -94 -15 -191q7 -48 27 -92q18 -47 67 -52q45 -3 89 7t77 40q6 5 13 4q16 7 33 8q6 0 10 -4.5t4 -9.5q0 -9 1 -17q37 -41 80 -77q45 -7 90 0q58 9 102 47q20 18 34 42q6 10 11 22q1 2 2 5q0 4 2 8q-11 9 -18 20
q-37 -54 -92 -84q-34 -20 -70.5 -16.5t-60.5 38.5zM314 320v0q1 -32 3 -63v-12q3 -26 -11 -48q-30 -39 -78.5 -44.5t-86.5 24.5q-38 34 -47.5 84.5t-3.5 98.5q5 50 26 95.5t64 74.5q7 4 12 1q34 19 73 9q53 -20 52 -78q0 -27 -1 -54q-3 -44 -2 -88zM289 227v0q2 18 0 37
q-1 9 -2 17q-1 25 -1 51q-1 53 2 106v4q2 18 0 35q-1 -3 -3 -6q-1 -122 4 -244zM451 372v0q0 -9 -6.5 -12t-13.5 0t-8 12q0 7 2 12q-23 73 20 137q22 31 53 49.5t69 4.5q33 -14 53 -43q9 -17 1 -27.5t-23 -18.5q-38 -23 -74 -49q-21 -15 -42 -31q-2 -2 -6 -5q-6 -4 -12 -9
t-10 -10q1 -6 -3 -10z" />
    <glyph glyph-name="ccedilla" unicode="&#xe7;" horiz-adv-x="453" 
d="M349 495l7 -5l2 12q-8 0 -9 -7zM321 655q-17 13 -41 17l-8 2q-94 15 -173 -195q-25 -108 -30 -137q0 -147 39 -213q59 -66 169 -84q61 2 114 55q1 10 36 47l-1 20l5 32q-2 12 -22 15q-40 -81 -86 -107q-24 -17 -74 -9q-100 16 -107 171q-10 85 -4 126h4q1 4 -3 4
q14 87 69 151q53 36 78 32l20 1q38 -30 48 -32l8 -1q1 9 31 48q4 21 -10 34l-21 -1q0 1 -1 2q-15 2 -28 11h-1l-2 2q-5 4 -9 9zM168 -351v0h2h1q-1 1 -3 2v-2zM305 -247v0v0q-1 -2 -2 -3l4 2q-1 0 -2 1zM332 -321v0q36 9 65 29.5t32 59.5q-1 35 -21 61.5t-49 42.5q-4 2 -9 4
q-9 4 -16.5 10t-6.5 17q2 12 9 23q2 5 4 9l12 30q-34 6 -69 -1h-3q-18 -47 -33 -94q40 0 76 -21t35 -63q-8 -44 -49 -61q-45 -15 -92 -2q-6 -15 -12 -29q-5 -12 -9 -24q69 -11 136 9z" />
    <glyph glyph-name="egrave" unicode="&#xe8;" horiz-adv-x="514" 
d="M64 302q23 -145 72 -204q69 -56 180 -56q60 11 104 72q0 11 28 52l-4 20v32q-4 12 -24 12q-27 -86 -68 -120q-21 -20 -72 -20q-85 0 -116 100q-6 28 -20 28h-4v4q0 44 44 44q38 41 180 96l96 56q-10 50 -80 148q-33 39 -96 68q-24 28 -64 28h-8q-95 0 -140 -220
q-8 -111 -8 -140zM260 578q34 -6 80 -76q16 0 16 -28l4 -28q-99 -69 -164 -100q-14 0 -76 -52h-4l-4 8q0 4 16 24q-4 22 -4 36q0 4 4 4q0 4 -4 4q0 88 44 160q47 44 72 44zM274 1459v0q-71 12 -143 8v0v-1q6 -7 11 -15t11 -15q19 -22 41 -40q15 -12 29 -26
q24 -23 48.5 -55.5t25.5 -67.5q33 3 66 8q5 1 13 3q15 4 30 5q-57 104 -132 196z" />
    <glyph glyph-name="eacute" unicode="&#xe9;" horiz-adv-x="514" 
d="M64 302q23 -145 72 -204q69 -56 180 -56q60 11 104 72q0 11 28 52l-4 20v32q-4 12 -24 12q-27 -86 -68 -120q-21 -20 -72 -20q-85 0 -116 100q-6 28 -20 28h-4v4q0 44 44 44q38 41 180 96l96 56q-10 50 -80 148q-33 39 -96 68q-24 28 -64 28h-8q-95 0 -140 -220
q-8 -111 -8 -140zM260 578q34 -6 80 -76q16 0 16 -28l4 -28q-99 -69 -164 -100q-14 0 -76 -52h-4l-4 8q0 4 16 24q-4 22 -4 36q0 4 4 4q0 4 -4 4q0 88 44 160q47 44 72 44zM291 1099v0q74 75 143 154q21 24 42 47q-61 6 -124 -3q-55 -109 -118 -216q13 1 26 3q14 1 27 2
q-1 7 4 13z" />
    <glyph glyph-name="ecircumflex" unicode="&#xea;" horiz-adv-x="514" 
d="M64 302q23 -145 72 -204q69 -56 180 -56q60 11 104 72q0 11 28 52l-4 20v32q-4 12 -24 12q-27 -86 -68 -120q-21 -20 -72 -20q-85 0 -116 100q-6 28 -20 28h-4v4q0 44 44 44q38 41 180 96l96 56q-10 50 -80 148q-33 39 -96 68q-24 28 -64 28h-8q-95 0 -140 -220
q-8 -111 -8 -140zM260 578q34 -6 80 -76q16 0 16 -28l4 -28q-99 -69 -164 -100q-14 0 -76 -52h-4l-4 8q0 4 16 24q-4 22 -4 36q0 4 4 4q0 4 -4 4q0 88 44 160q47 44 72 44zM152 1006v0q9 5 19 10q-9 -2 -19 -6v-3v-1zM342 1082v0l2 -4q-2 5 -3 10q-2 8 -5 16zM364 1023v0
q1 -1 4.5 0t7.5 2q-10 1 -17 11q1 -1 1 -2q1 0 1 -1q1 -4 0 -8q1 -1 3 -2zM477 1074v0v0h1q-4 1 -6 6l-101 178q-1 1 -1 2q-2 4 -4 6t-4.5 2.5t-7.5 0.5l-16 -2q-4 -1 -8 -1q-9 -2 -18 -3q-18 -2 -37 -5q-12 -1 -18 -7t-11 -17q-1 0 -1 -1t-1 -1v0v-1q-2 -9 -5 -18
q0 -1 -1 -2q1 -3 -1 -7q-1 -2 -2 -5q-1 -1 -1 -3q-26 -78 -63 -152q17 4 35 3q3 -1 10 -2q5 -1 10.5 -2t7.5 0q3 2 6 9t5 15q1 5 2 8q27 67 61 131q5 8 13.5 6.5t11.5 -9.5q17 -51 33 -101l8 -24q2 -4 3 -7l4 -12q0 -2 1 -4q1 -1 1.5 -2t-0.5 -1q3 -1 10 1l14 4q5 2 7 2z
" />
    <glyph glyph-name="edieresis" unicode="&#xeb;" horiz-adv-x="514" 
d="M64 302q23 -145 72 -204q69 -56 180 -56q60 11 104 72q0 11 28 52l-4 20v32q-4 12 -24 12q-27 -86 -68 -120q-21 -20 -72 -20q-85 0 -116 100q-6 28 -20 28h-4v4q0 44 44 44q38 41 180 96l96 56q-10 50 -80 148q-33 39 -96 68q-24 28 -64 28h-8q-95 0 -140 -220
q-8 -111 -8 -140zM260 578q34 -6 80 -76q16 0 16 -28l4 -28q-99 -69 -164 -100q-14 0 -76 -52h-4l-4 8q0 4 16 24q-4 22 -4 36q0 4 4 4q0 4 -4 4q0 88 44 160q47 44 72 44zM125 1123v0q-18 -30 -7 -64q4 3 9 3h1h1q-13 19 -8 45q1 7 4 16zM257 1085v0q3 22 -14 37
q-23 23 -54 30q-2 -7 -12 -7q-10 1 -16 -9t-8 -19q-1 -1 -1 -2q-4 -12 -4 -23t9 -22q9 -8 21 -12q14 -2 27 -3q11 -2 19 -7q7 0 13 1q11 4 15 14.5t5 21.5zM376 1082v0q-2 -10 -3 -20q5 2 11 -1v1q-1 1 -1 2q-5 9 -7 18zM378 1031v0q3 -5 9 -8q11 -6 24 -9q-18 7 -33 17z
M504 1053v0q12 15 13 39t-10 39q-14 16 -35 19.5t-41 2.5q-26 -15 -30 -46q-1 -18 8.5 -34t25.5 -25q17 -9 36 -8.5t33 13.5z" />
    <glyph glyph-name="igrave" unicode="&#xec;" horiz-adv-x="234" 
d="M66 682q5 -67 8 -72q-4 -8 -4 -18t4 -18q0 -5 -4 -5l4 -31v-46q0 -13 -4 -13l4 -23v-126q0 -50 12 -50l-4 -9q0 -83 32 -176q-4 -9 -4 -13q13 9 20 9l16 -9q0 13 4 13q-8 35 -12 91q4 61 4 103v104q-12 102 -12 190v108q-8 9 -8 36q-52 -15 -52 -27zM58 55v-9h4v9h-4z
M129 1459v0q-71 12 -143 8v0v-1q6 -7 11 -15t11 -15q19 -22 41 -40q15 -12 29 -26q24 -23 48.5 -55.5t25.5 -67.5q33 3 66 8q5 1 13 3q15 4 30 5q-57 104 -132 196z" />
    <glyph glyph-name="iacute" unicode="&#xed;" horiz-adv-x="234" 
d="M66 682q5 -67 8 -72q-4 -8 -4 -18t4 -18q0 -5 -4 -5l4 -31v-46q0 -13 -4 -13l4 -23v-126q0 -50 12 -50l-4 -9q0 -83 32 -176q-4 -9 -4 -13q13 9 20 9l16 -9q0 13 4 13q-8 35 -12 91q4 61 4 103v104q-12 102 -12 190v108q-8 9 -8 36q-52 -15 -52 -27zM58 55v-9h4v9h-4z
M146 1099v0q74 75 143 154q21 24 42 47q-61 6 -124 -3q-55 -109 -118 -216q13 1 26 3q14 1 27 2q-1 7 4 13z" />
    <glyph glyph-name="icircumflex" unicode="&#xee;" horiz-adv-x="234" 
d="M66 682q5 -67 8 -72q-4 -8 -4 -18t4 -18q0 -5 -4 -5l4 -31v-46q0 -13 -4 -13l4 -23v-126q0 -50 12 -50l-4 -9q0 -83 32 -176q-4 -9 -4 -13q13 9 20 9l16 -9q0 13 4 13q-8 35 -12 91q4 61 4 103v104q-12 102 -12 190v108q-8 9 -8 36q-52 -15 -52 -27zM58 55v-9h4v9h-4z
M7 1006v0q9 5 19 10q-9 -2 -19 -6v-3v-1zM197 1082v0l2 -4q-2 5 -3 10q-2 8 -5 16zM219 1023v0q1 -1 4.5 0t7.5 2q-10 1 -17 11q1 -1 1 -2q1 0 1 -1q1 -4 0 -8q1 -1 3 -2zM332 1074v0v0h1q-4 1 -6 6l-101 178q-1 1 -1 2q-2 4 -4 6t-4.5 2.5t-7.5 0.5l-16 -2q-4 -1 -8 -1
q-9 -2 -18 -3q-18 -2 -37 -5q-12 -1 -18 -7t-11 -17q-1 0 -1 -1t-1 -1v0v-1q-2 -9 -5 -18q0 -1 -1 -2q1 -3 -1 -7q-1 -2 -2 -5q-1 -1 -1 -3q-26 -78 -63 -152q17 4 35 3q3 -1 10 -2q5 -1 10.5 -2t7.5 0q3 2 6 9t5 15q1 5 2 8q27 67 61 131q5 8 13.5 6.5t11.5 -9.5
q17 -51 33 -101l8 -24q2 -4 3 -7l4 -12q0 -2 1 -4q1 -1 1.5 -2t-0.5 -1q3 -1 10 1l14 4q5 2 7 2z" />
    <glyph glyph-name="idieresis" unicode="&#xef;" horiz-adv-x="234" 
d="M66 682q5 -67 8 -72q-4 -8 -4 -18t4 -18q0 -5 -4 -5l4 -31v-46q0 -13 -4 -13l4 -23v-126q0 -50 12 -50l-4 -9q0 -83 32 -176q-4 -9 -4 -13q13 9 20 9l16 -9q0 13 4 13q-8 35 -12 91q4 61 4 103v104q-12 102 -12 190v108q-8 9 -8 36q-52 -15 -52 -27zM58 55v-9h4v9h-4z
M-21 1123v0q-18 -30 -7 -64q4 3 9 3h1h1q-13 19 -8 45q1 7 4 16zM111 1085v0q3 22 -14 37q-23 23 -54 30q-2 -7 -12 -7q-10 1 -16 -9t-8 -19q-1 -1 -1 -2q-4 -12 -4 -23t9 -22q9 -8 21 -12q14 -2 27 -3q11 -2 19 -7q7 0 13 1q11 4 15 14.5t5 21.5zM230 1082v0q-2 -10 -3 -20
q5 2 11 -1v1q-1 1 -1 2q-5 9 -7 18zM232 1031v0q3 -5 9 -8q11 -6 24 -9q-18 7 -33 17zM358 1053v0q12 15 13 39t-10 39q-14 16 -35 19.5t-41 2.5q-26 -15 -30 -46q-1 -18 8.5 -34t25.5 -25q17 -9 36 -8.5t33 13.5z" />
    <glyph glyph-name="eth" unicode="&#xf0;" horiz-adv-x="635" 
d="M529 356v0q39 137 20 277t-66 269q-25 73 -58 143v-1h-1q-7 -6 -13 -1t-7 14.5t6 16.5q27 24 53 49q16 14 31 29l7 7q8 6 14 13q-8 20 -19 39q-1 2 -3 5q-51 -43 -105 -78q-8 -5 -14 0q-1 0 -1 -1q-1 0 -2 -1q-62 94 -155 139l-26 -40q71 -64 121 -151l-1 -1v0
q4 -9 -3 -19q-46 -55 -94 -105q3 -3 6 -7q8 -9 17 -19q5 -3 10 -8q2 -2 3 -4l6 -4q13 12 24 29q6 8 12 15l14 18q7 8 14 17q2 5 6 8q3 4 7 7l3 3q6 5 11 2t8 -10t0 -14q54 -136 52 -288q-1 -11 -7.5 -14.5t-13 0t-7.5 14.5v7v3q-34 42 -83 49q-59 14 -118 1
q-60 -19 -88 -83.5t-32 -135.5q-2 -31 -2 -64q9 -30 12 -63q2 -18 5 -33q16 -76 42 -146q38 -52 86.5 -81t103.5 -48q6 -3 8 -8.5t1 -10.5q48 7 90 40q45 39 76 100.5t50 124.5zM412 569v0q12 -83 8 -167q-1 -76 -29 -142q-28 -56 -81 -63q-27 -5 -56 -0.5t-51 25.5
q-19 22 -27 51.5t-12 60.5q0 4 -1 9q-4 27 -9 54q-11 62 -18 125q-11 69 22 125q33 50 85 60q48 9 89.5 -19.5t68.5 -77.5q5 -3 7 -10v-2v-1q3 -5 5 -11q4 -10 -1 -17zM306 665v0q-14 6 -28 9q2 -2 5 -3q5 -3 11 -5q6 0 12 -1zM223 665v0q-16 -8 -29 -22q21 14 46 16
q-2 6 -1 13q-8 -3 -16 -7z" />
    <glyph glyph-name="ntilde" unicode="&#xf1;" horiz-adv-x="527" 
d="M98 536v4q-20 -7 -20 -20q0 -4 4 -4q-4 -48 -8 -48l4 -8q0 -4 -4 -4l4 -8q0 -4 -4 -4l4 -8q0 -92 52 -412h8q9 0 16 4q15 -8 32 -8h36v4q-24 108 -24 124v60q0 179 96 208h20q52 -36 52 -88q16 -27 28 -172v-148l48 4q12 0 12 -20h8l-4 8v4q0 4 4 4q0 4 -4 4l4 28v8
q-12 137 -12 152q0 4 4 4q0 4 -4 12q4 44 4 76v20l-4 20h4l-4 8v40q-12 73 -28 80q0 41 -44 64v12q-7 4 -16 4h-24v-4q16 -2 16 -12h-28q-97 0 -160 -168h-12q-19 0 -24 152v4q0 9 -4 16q4 8 4 12q-4 0 -4 4q-20 -8 -28 -8zM117 1116v0q23 -4 44 -12q25 54 79 63q5 1 10 1
q27 0 50 -14t43 -30v0q10 -7 19 -13q75 -54 128 -42q61 16 75 74q1 4 3 8q-6 9 -13 18q-25 -39 -68 -46q-25 -3 -45.5 7.5t-38.5 25.5l-16 12q-55 38 -111 42q-110 3 -159 -94z" />
    <glyph glyph-name="ograve" unicode="&#xf2;" horiz-adv-x="572" 
d="M79 393l4 -8q-8 -30 -8 -56v-56q0 -185 84 -236q33 -28 104 -28l28 4q7 -4 16 -4q60 0 148 92q60 112 60 192v44q0 9 -4 16l4 8q0 51 -64 148q-82 100 -140 100h-44q-48 0 -48 16v4l4 8h-4q-72 -32 -88 -92q-17 0 -24 -52q-12 -33 -28 -100zM271 565q164 -77 164 -164
v-44q0 -9 -4 -16l4 -8q-5 -103 -12 -128l4 -8v-16q-27 -17 -76 -68q-60 -32 -92 -32q-35 0 -80 60l-44 100q0 4 4 4l-8 44q0 4 4 4q0 4 -4 12q0 154 68 236q20 12 72 24zM323 1459v0q-71 12 -143 8v0v-1q6 -7 11 -15t11 -15q19 -22 41 -40q15 -12 29 -26q24 -23 48.5 -55.5
t25.5 -67.5q33 3 66 8q5 1 13 3q15 4 30 5q-57 104 -132 196z" />
    <glyph glyph-name="oacute" unicode="&#xf3;" horiz-adv-x="572" 
d="M79 393l4 -8q-8 -30 -8 -56v-56q0 -185 84 -236q33 -28 104 -28l28 4q7 -4 16 -4q60 0 148 92q60 112 60 192v44q0 9 -4 16l4 8q0 51 -64 148q-82 100 -140 100h-44q-48 0 -48 16v4l4 8h-4q-72 -32 -88 -92q-17 0 -24 -52q-12 -33 -28 -100zM271 565q164 -77 164 -164
v-44q0 -9 -4 -16l4 -8q-5 -103 -12 -128l4 -8v-16q-27 -17 -76 -68q-60 -32 -92 -32q-35 0 -80 60l-44 100q0 4 4 4l-8 44q0 4 4 4q0 4 -4 12q0 154 68 236q20 12 72 24zM340 1099v0q74 75 143 154q21 24 42 47q-61 6 -124 -3q-55 -109 -118 -216q13 1 26 3q14 1 27 2
q-1 7 4 13z" />
    <glyph glyph-name="ocircumflex" unicode="&#xf4;" horiz-adv-x="572" 
d="M79 393l4 -8q-8 -30 -8 -56v-56q0 -185 84 -236q33 -28 104 -28l28 4q7 -4 16 -4q60 0 148 92q60 112 60 192v44q0 9 -4 16l4 8q0 51 -64 148q-82 100 -140 100h-44q-48 0 -48 16v4l4 8h-4q-72 -32 -88 -92q-17 0 -24 -52q-12 -33 -28 -100zM271 565q164 -77 164 -164
v-44q0 -9 -4 -16l4 -8q-5 -103 -12 -128l4 -8v-16q-27 -17 -76 -68q-60 -32 -92 -32q-35 0 -80 60l-44 100q0 4 4 4l-8 44q0 4 4 4q0 4 -4 12q0 154 68 236q20 12 72 24zM201 1006v0q9 5 19 10q-9 -2 -19 -6v-3v-1zM391 1082v0l2 -4q-2 5 -3 10q-2 8 -5 16zM413 1023v0
q1 -1 4.5 0t7.5 2q-10 1 -17 11q1 -1 1 -2q1 0 1 -1q1 -4 0 -8q1 -1 3 -2zM526 1074v0v0h1q-4 1 -6 6l-101 178q-1 1 -1 2q-2 4 -4 6t-4.5 2.5t-7.5 0.5l-16 -2q-4 -1 -8 -1q-9 -2 -18 -3q-18 -2 -37 -5q-12 -1 -18 -7t-11 -17q-1 0 -1 -1t-1 -1v0v-1q-2 -9 -5 -18
q0 -1 -1 -2q1 -3 -1 -7q-1 -2 -2 -5q-1 -1 -1 -3q-26 -78 -63 -152q17 4 35 3q3 -1 10 -2q5 -1 10.5 -2t7.5 0q3 2 6 9t5 15q1 5 2 8q27 67 61 131q5 8 13.5 6.5t11.5 -9.5q17 -51 33 -101l8 -24q2 -4 3 -7l4 -12q0 -2 1 -4q1 -1 1.5 -2t-0.5 -1q3 -1 10 1l14 4q5 2 7 2z
" />
    <glyph glyph-name="otilde" unicode="&#xf5;" horiz-adv-x="572" 
d="M79 393l4 -8q-8 -30 -8 -56v-56q0 -185 84 -236q33 -28 104 -28l28 4q7 -4 16 -4q60 0 148 92q60 112 60 192v44q0 9 -4 16l4 8q0 51 -64 148q-82 100 -140 100h-44q-48 0 -48 16v4l4 8h-4q-72 -32 -88 -92q-17 0 -24 -52q-12 -33 -28 -100zM271 565q164 -77 164 -164
v-44q0 -9 -4 -16l4 -8q-5 -103 -12 -128l4 -8v-16q-27 -17 -76 -68q-60 -32 -92 -32q-35 0 -80 60l-44 100q0 4 4 4l-8 44q0 4 4 4q0 4 -4 12q0 154 68 236q20 12 72 24zM138 1116v0q23 -4 44 -12q25 54 79 63q5 1 10 1q27 0 50 -14t43 -30v0q10 -7 19 -13q75 -54 128 -42
q61 16 75 74q1 4 3 8q-6 9 -13 18q-25 -39 -68 -46q-25 -3 -45.5 7.5t-38.5 25.5l-16 12q-55 38 -111 42q-110 3 -159 -94z" />
    <glyph glyph-name="odieresis" unicode="&#xf6;" horiz-adv-x="572" 
d="M79 393l4 -8q-8 -30 -8 -56v-56q0 -185 84 -236q33 -28 104 -28l28 4q7 -4 16 -4q60 0 148 92q60 112 60 192v44q0 9 -4 16l4 8q0 51 -64 148q-82 100 -140 100h-44q-48 0 -48 16v4l4 8h-4q-72 -32 -88 -92q-17 0 -24 -52q-12 -33 -28 -100zM271 565q164 -77 164 -164
v-44q0 -9 -4 -16l4 -8q-5 -103 -12 -128l4 -8v-16q-27 -17 -76 -68q-60 -32 -92 -32q-35 0 -80 60l-44 100q0 4 4 4l-8 44q0 4 4 4q0 4 -4 12q0 154 68 236q20 12 72 24zM174 1123v0q-18 -30 -7 -64q4 3 9 3h1h1q-13 19 -8 45q1 7 4 16zM306 1085v0q3 22 -14 37
q-23 23 -54 30q-2 -7 -12 -7q-10 1 -16 -9t-8 -19q-1 -1 -1 -2q-4 -12 -4 -23t9 -22q9 -8 21 -12q14 -2 27 -3q11 -2 19 -7q7 0 13 1q11 4 15 14.5t5 21.5zM425 1082v0q-2 -10 -3 -20q5 2 11 -1v1q-1 1 -1 2q-5 9 -7 18zM427 1031v0q3 -5 9 -8q11 -6 24 -9q-18 7 -33 17z
M553 1053v0q12 15 13 39t-10 39q-14 16 -35 19.5t-41 2.5q-26 -15 -30 -46q-1 -18 8.5 -34t25.5 -25q17 -9 36 -8.5t33 13.5z" />
    <glyph glyph-name="divide" unicode="&#xf7;" 
d="M480 754v0q-42 2 -85 6q-116 12 -231 2q12 -33 15 -66q16 -2 36 -2h29h4q48 0 97 -1h130h65h78q59 -1 117 -1h16q14 1 29.5 1t28.5 -3v0v0q19 31 -11 57q-2 1 -3 3q-158 -3 -315 4zM435 665v0v-1q172 -3 343 -5q-3 3 -3 6h-23q-7 -1 -11 -1h-55q-34 0 -69 1h-34h-148z
M125 690v0q-3 0 -5 1q0 -5 1 -10v-6q2 1 4 1q7 0 15 1q-10 5 -15 13zM466 260v0q16 25 22.5 54.5t-8.5 57.5q-17 27 -46 41q-13 9 -24 11l-4 -2q-31 -9 -64 -29t-46 -51q-5 -17 -1.5 -36.5t12.5 -34.5q20 -28 53 -40v0q15 -8 33 -13.5t34 1.5q13 7 22 18.5t17 22.5z
M466 1046v0q16 25 22.5 54.5t-8.5 57.5q-17 27 -46 41q-13 9 -24 11l-4 -2q-31 -9 -64 -29t-46 -51q-5 -17 -1.5 -36.5t12.5 -34.5q20 -28 53 -40v0q15 -8 33 -13.5t34 1.5q13 7 22 18.5t17 22.5z" />
    <glyph glyph-name="oslash" unicode="&#xf8;" horiz-adv-x="534" 
d="M-23 -83v0q4 0 8 -1q5 -1 9 -2v2q-1 1 -2 1l-2 2q-6 5 -3 13q-1 0 -2 1q-1 -1 -1 -3q-4 -6 -7 -13zM388 501v0q35 50 66 102t48 110q-8 4 -16 9q-67 -82 -121 -173q-6 -8 -14.5 -6t-11.5 10q-29 27 -65 39q-3 -7 -12 -7q-24 3 -48 3h-4q-9 1 -21.5 0t-21.5 -5
q-1 -9 -8 -11q-86 -115 -84 -259q1 -42 13 -87.5t39 -80.5q0 -1 -1 -2t-1 -2q3 -3 4 -7t-2 -9q-61 -85 -111 -176l26 -11q5 -3 10 -5q10 -5 20 -9q7 11 12 24q3 7 7 13q9 17 18 35l20 38q10 20 21 39q4 7 10 7q7 14 18 25q7 6 14 3t10 -10q72 -10 140 21q31 13 45.5 40.5
t23.5 58.5q20 63 20.5 125.5t-28.5 123.5q-3 7 -7 13l1 1v0q-7 2 -10 7.5t1 12.5zM81 167v0q6 -16 17 -34q0 1 1 1q0 1 1 1q-11 15 -19 32zM316 496v0q6 4 12 2t9 -8t0 -13q-69 -133 -150 -259q-6 -8 -14.5 -6t-11.5 10q-8 6 -4 16v1l-2 4q-19 53 -20 110q-6 57 12 111
q3 7 9 8q14 42 59 50.5t83 -9.5q11 -5 21 -13l-2 -2q0 -1 -1 -2zM363 412v0q7 -2 10.5 -7.5t-1.5 -12.5q-2 -4 -4 -7q-1 -3 -3 -5v-30q-3 -58 -19 -113q-11 -46 -52 -67q-22 -9 -42 -7q-4 -7 -10 -10q-12 -5 -20 5q-4 8 0 17q2 4 7 6q2 3 3.5 8t2.5 9q2 6 3 8q5 14 11 27
q14 28 29 55q33 60 70 118q6 7 14 6v1l1 1v-1v-1z" />
    <glyph glyph-name="ugrave" unicode="&#xf9;" horiz-adv-x="682" 
d="M491 736q12 -27 12 -44v-108q0 -9 -4 -16l4 -8q-4 -27 -8 -36q4 -28 4 -48q0 -108 -64 -268q-42 -41 -48 -72q-7 0 -20 -8q-23 16 -28 16l-24 -4q-60 10 -104 56q-33 75 -48 180h4l-4 8v44l-4 24q4 7 4 20q0 4 -4 4q24 173 24 176q0 76 -32 76q-4 0 -4 -4l-20 4h-8
q-17 0 -24 -124q0 -20 4 -48q-12 -142 -16 -164l8 -84q0 -4 -4 -4q0 -72 60 -168q58 -84 152 -84h4q87 0 168 104q28 33 28 76l-4 24l16 16h8q16 -6 16 -28q-12 -36 -12 -140h4q22 4 36 4h32q0 8 4 8q-7 39 -16 204h4l-4 8v72q-8 118 -8 128v64q0 28 -8 44l4 8l-8 60h4
q-19 64 -32 64h-8q-35 -24 -36 -32zM367 1459v0q-71 12 -143 8v0v-1q6 -7 11 -15t11 -15q19 -22 41 -40q15 -12 29 -26q24 -23 48.5 -55.5t25.5 -67.5q33 3 66 8q5 1 13 3q15 4 30 5q-57 104 -132 196z" />
    <glyph glyph-name="uacute" unicode="&#xfa;" horiz-adv-x="682" 
d="M491 736q12 -27 12 -44v-108q0 -9 -4 -16l4 -8q-4 -27 -8 -36q4 -28 4 -48q0 -108 -64 -268q-42 -41 -48 -72q-7 0 -20 -8q-23 16 -28 16l-24 -4q-60 10 -104 56q-33 75 -48 180h4l-4 8v44l-4 24q4 7 4 20q0 4 -4 4q24 173 24 176q0 76 -32 76q-4 0 -4 -4l-20 4h-8
q-17 0 -24 -124q0 -20 4 -48q-12 -142 -16 -164l8 -84q0 -4 -4 -4q0 -72 60 -168q58 -84 152 -84h4q87 0 168 104q28 33 28 76l-4 24l16 16h8q16 -6 16 -28q-12 -36 -12 -140h4q22 4 36 4h32q0 8 4 8q-7 39 -16 204h4l-4 8v72q-8 118 -8 128v64q0 28 -8 44l4 8l-8 60h4
q-19 64 -32 64h-8q-35 -24 -36 -32zM384 1099v0q74 75 143 154q21 24 42 47q-61 6 -124 -3q-55 -109 -118 -216q13 1 26 3q14 1 27 2q-1 7 4 13z" />
    <glyph glyph-name="ucircumflex" unicode="&#xfb;" horiz-adv-x="682" 
d="M491 736q12 -27 12 -44v-108q0 -9 -4 -16l4 -8q-4 -27 -8 -36q4 -28 4 -48q0 -108 -64 -268q-42 -41 -48 -72q-7 0 -20 -8q-23 16 -28 16l-24 -4q-60 10 -104 56q-33 75 -48 180h4l-4 8v44l-4 24q4 7 4 20q0 4 -4 4q24 173 24 176q0 76 -32 76q-4 0 -4 -4l-20 4h-8
q-17 0 -24 -124q0 -20 4 -48q-12 -142 -16 -164l8 -84q0 -4 -4 -4q0 -72 60 -168q58 -84 152 -84h4q87 0 168 104q28 33 28 76l-4 24l16 16h8q16 -6 16 -28q-12 -36 -12 -140h4q22 4 36 4h32q0 8 4 8q-7 39 -16 204h4l-4 8v72q-8 118 -8 128v64q0 28 -8 44l4 8l-8 60h4
q-19 64 -32 64h-8q-35 -24 -36 -32zM245 1006v0q9 5 19 10q-9 -2 -19 -6v-3v-1zM435 1082v0l2 -4q-2 5 -3 10q-2 8 -5 16zM457 1023v0q1 -1 4.5 0t7.5 2q-10 1 -17 11q1 -1 1 -2q1 0 1 -1q1 -4 0 -8q1 -1 3 -2zM570 1074v0v0h1q-4 1 -6 6l-101 178q-1 1 -1 2q-2 4 -4 6
t-4.5 2.5t-7.5 0.5l-16 -2q-4 -1 -8 -1q-9 -2 -18 -3q-18 -2 -37 -5q-12 -1 -18 -7t-11 -17q-1 0 -1 -1t-1 -1v0v-1q-2 -9 -5 -18q0 -1 -1 -2q1 -3 -1 -7q-1 -2 -2 -5q-1 -1 -1 -3q-26 -78 -63 -152q17 4 35 3q3 -1 10 -2q5 -1 10.5 -2t7.5 0q3 2 6 9t5 15q1 5 2 8
q27 67 61 131q5 8 13.5 6.5t11.5 -9.5q17 -51 33 -101l8 -24q2 -4 3 -7l4 -12q0 -2 1 -4q1 -1 1.5 -2t-0.5 -1q3 -1 10 1l14 4q5 2 7 2z" />
    <glyph glyph-name="udieresis" unicode="&#xfc;" horiz-adv-x="682" 
d="M491 736q12 -27 12 -44v-108q0 -9 -4 -16l4 -8q-4 -27 -8 -36q4 -28 4 -48q0 -108 -64 -268q-42 -41 -48 -72q-7 0 -20 -8q-23 16 -28 16l-24 -4q-60 10 -104 56q-33 75 -48 180h4l-4 8v44l-4 24q4 7 4 20q0 4 -4 4q24 173 24 176q0 76 -32 76q-4 0 -4 -4l-20 4h-8
q-17 0 -24 -124q0 -20 4 -48q-12 -142 -16 -164l8 -84q0 -4 -4 -4q0 -72 60 -168q58 -84 152 -84h4q87 0 168 104q28 33 28 76l-4 24l16 16h8q16 -6 16 -28q-12 -36 -12 -140h4q22 4 36 4h32q0 8 4 8q-7 39 -16 204h4l-4 8v72q-8 118 -8 128v64q0 28 -8 44l4 8l-8 60h4
q-19 64 -32 64h-8q-35 -24 -36 -32zM218 1123v0q-18 -30 -7 -64q4 3 9 3h1h1q-13 19 -8 45q1 7 4 16zM350 1085v0q3 22 -14 37q-23 23 -54 30q-2 -7 -12 -7q-10 1 -16 -9t-8 -19q-1 -1 -1 -2q-4 -12 -4 -23t9 -22q9 -8 21 -12q14 -2 27 -3q11 -2 19 -7q7 0 13 1
q11 4 15 14.5t5 21.5zM469 1082v0q-2 -10 -3 -20q5 2 11 -1v1q-1 1 -1 2q-5 9 -7 18zM471 1031v0q3 -5 9 -8q11 -6 24 -9q-18 7 -33 17zM597 1053v0q12 15 13 39t-10 39q-14 16 -35 19.5t-41 2.5q-26 -15 -30 -46q-1 -18 8.5 -34t25.5 -25q17 -9 36 -8.5t33 13.5z" />
    <glyph glyph-name="yacute" unicode="&#xfd;" horiz-adv-x="465" 
d="M16 651q0 -11 112 -256q40 -129 84 -236q20 -3 20 -20l-136 -448q4 -8 4 -12v-12l40 -16q28 0 28 48q36 56 88 248q36 182 96 400q56 211 56 260q0 24 -56 56q-44 -144 -84 -448q4 -8 4 -12l-16 -12h-12q-14 17 -32 84h4q-36 118 -80 232q0 37 -56 140q0 6 -16 16z
M259 1099v0q74 75 143 154q21 24 42 47q-61 6 -124 -3q-55 -109 -118 -216q13 1 26 3q14 1 27 2q-1 7 4 13z" />
    <glyph glyph-name="thorn" unicode="&#xfe;" horiz-adv-x="497" 
d="M88 1020v0q4 -2 7 -7q-4 82 -12 165q2 -23 3 -58t1 -61q1 -15 1 -20v-12v-7zM436 652v0q5 65 1 136.5t-38 122.5q-40 52 -94 45.5t-98 -43.5q-4 -3 -7 -3q-2 -8 -7.5 -12t-11 -1.5t-7.5 12.5q-1 3 -1 6q-1 3 -1 6q-1 4 -1 6l-2 22q-10 70 -16 140q-5 48 -4 96q0 16 2 31
q-22 4 -44 4q17 -160 18.5 -321t-1.5 -322q-3 -150 -2 -299.5t14 -298.5l23 -5q6 1 9 -2q13 175 11 351q-4 6 -3.5 12.5t2.5 11.5v5v8q0 7 3 11.5t7 5.5q-1 4 -3 8q-3 8 -0.5 15.5t8 11t11.5 -1.5q39 -36 86 -44q3 -1 5 -1q42 6 77 35q39 39 48 104q13 73 16 148zM385 715v0
q4 -63 4 -127q2 -49 -18 -89q-19 -33 -48 -43.5t-58 3.5q-6 -7 -13.5 -6t-11.5 12q-1 3 -4 5.5t-6 5.5q-6 3 -8 6q-8 10 -10 24q-5 31 -7 63q0 10 -1 21q-8 92 -9 186q0 9 5 14v0q0 1 1 1q5 25 19 43.5t31 32.5q32 27 67 10q37 -22 50.5 -67.5t16.5 -94.5zM330 788v0
q14 -15 24 -36q-4 29 -15 54q0 -6 -2.5 -11t-6.5 -7z" />
    <glyph glyph-name="ydieresis" unicode="&#xff;" horiz-adv-x="465" 
d="M16 651q0 -11 112 -256q40 -129 84 -236q20 -3 20 -20l-136 -448q4 -8 4 -12v-12l40 -16q28 0 28 48q36 56 88 248q36 182 96 400q56 211 56 260q0 24 -56 56q-44 -144 -84 -448q4 -8 4 -12l-16 -12h-12q-14 17 -32 84h4q-36 118 -80 232q0 37 -56 140q0 6 -16 16z
M93 1123v0q-18 -30 -7 -64q4 3 9 3h1h1q-13 19 -8 45q1 7 4 16zM225 1085v0q3 22 -14 37q-23 23 -54 30q-2 -7 -12 -7q-10 1 -16 -9t-8 -19q-1 -1 -1 -2q-4 -12 -4 -23t9 -22q9 -8 21 -12q14 -2 27 -3q11 -2 19 -7q7 0 13 1q11 4 15 14.5t5 21.5zM344 1082v0q-2 -10 -3 -20
q5 2 11 -1v1q-1 1 -1 2q-5 9 -7 18zM346 1031v0q3 -5 9 -8q11 -6 24 -9q-18 7 -33 17zM472 1053v0q12 15 13 39t-10 39q-14 16 -35 19.5t-41 2.5q-26 -15 -30 -46q-1 -18 8.5 -34t25.5 -25q17 -9 36 -8.5t33 13.5z" />
    <glyph glyph-name="circumflex" unicode="&#x2c6;" horiz-adv-x="1024" 
d="M313 1006v0q9 5 19 10q-9 -2 -19 -6v-3v-1zM503 1082v0l2 -4q-2 5 -3 10q-2 8 -5 16zM525 1023v0q1 -1 4.5 0t7.5 2q-10 1 -17 11q1 -1 1 -2q1 0 1 -1q1 -4 0 -8q1 -1 3 -2zM638 1074v0v0h1q-4 1 -6 6l-101 178q-1 1 -1 2q-2 4 -4 6t-4.5 2.5t-7.5 0.5l-16 -2
q-4 -1 -8 -1q-9 -2 -18 -3q-18 -2 -37 -5q-12 -1 -18 -7t-11 -17q-1 0 -1 -1t-1 -1v0v-1q-2 -9 -5 -18q0 -1 -1 -2q1 -3 -1 -7q-1 -2 -2 -5q-1 -1 -1 -3q-26 -78 -63 -152q17 4 35 3q3 -1 10 -2q5 -1 10.5 -2t7.5 0q3 2 6 9t5 15q1 5 2 8q27 67 61 131q5 8 13.5 6.5
t11.5 -9.5q17 -51 33 -101l8 -24q2 -4 3 -7l4 -12q0 -2 1 -4q1 -1 1.5 -2t-0.5 -1q3 -1 10 1l14 4q5 2 7 2z" />
    <glyph glyph-name="tilde" unicode="&#x2dc;" horiz-adv-x="1024" 
d="M248 1116v0q23 -4 44 -12q25 54 79 63q5 1 10 1q27 0 50 -14t43 -30v0q10 -7 19 -13q75 -54 128 -42q61 16 75 74q1 4 3 8q-6 9 -13 18q-25 -39 -68 -46q-25 -3 -45.5 7.5t-38.5 25.5l-16 12q-55 38 -111 42q-110 3 -159 -94z" />
    <glyph glyph-name="endash" unicode="&#x2013;" horiz-adv-x="1108" 
d="M199 545v0q-2 -44 0 -87q39 -4 77 1q2 1 5 1q43 4 87 8q87 6 174 8q153 3 306 -9q10 1 20 1q10 1 20 1v0v0q4 27 2 54q-61 4 -123 8q-142 11 -284 17t-284 -3z" />
    <glyph glyph-name="emdash" unicode="&#x2014;" horiz-adv-x="2048" 
d="M1561 525v0q-735 5 -1470 -10l6 -32q2 -16 5 -32q116 5 233 -5q81 -7 162 -8q116 0 232 4q69 2 137 3q186 3 372 4q363 1 725 -6q6 37 1 74q-201 7 -403 8zM82 418v0q2 -7 5.5 -9.5t13.5 -1.5q12 1 25 1q-1 0 -3 1h-3q-8 1 -12.5 5t-4.5 9h-1q-8 -1 -15 -1h-6v-1
q1 -1 1 -3z" />
    <glyph glyph-name="quoteleft" unicode="&#x2018;" horiz-adv-x="557" 
d="M349 1522v0q-15 -23 -30 -47q16 23 31 47h-1v0zM260 1367v0q-2 1 -3 1q0 -2 1 -4q2 -2 9 -3.5t14 -2.5t11 -2q24 -7 41 -25q12 -15 17 -32q3 7 3 14v2q-6 11 -16 20.5t-18 15.5q-28 15 -59 16zM231 1450v0q-4 -5 -7 -9q-33 -38 -51 -79.5t10 -88.5q16 -26 40.5 -41
t55.5 -11q2 0 5 1v0q3 5 10 6q30 3 48 24t11 51q-9 28 -38 36q-8 3 -17 4q-17 2 -30 9q-17 14 -8.5 35t21.5 39q4 7 7 12q24 41 51 82h-1q-1 0 -2 1q-6 1 -16 6q-9 5 -18 8t-14 0q-3 -2 -5.5 -6t-4.5 -8q-2 -3 -3 -6q-7 -12 -15 -25q-14 -21 -29 -40z" />
    <glyph glyph-name="quoteright" unicode="&#x2019;" horiz-adv-x="557" 
d="M161 1227v0q15 23 29 46q-16 -22 -30 -46v0h1zM249 1381v0q2 0 4 -1q0 3 -1 5q-2 2 -9 3.5t-15 2.5q-7 1 -10 2q-25 6 -42 25q-11 14 -16 32q-3 -7 -3 -15v-2q6 -11 15.5 -20.5t18.5 -15.5q27 -14 58 -16zM310 1309v0q3 5 7 9q32 38 50.5 79.5t-10.5 88.5q-16 26 -40 41
t-56 11q-2 -1 -4 -1v0q-4 -5 -11 -6q-29 -3 -47.5 -24t-11.5 -51q10 -28 38 -36q8 -3 17 -4q17 -2 30 -9q17 -14 9 -35.5t-21 -38.5q-5 -7 -8 -12q-24 -42 -50 -82h1q0 -1 1 -1q7 -2 16 -6q10 -5 18.5 -8t14.5 0q3 1 5 5.5t4 8.5q2 3 3 6q7 12 15 24q14 22 30 41z" />
    <glyph glyph-name="quotesinglbase" unicode="&#x201a;" horiz-adv-x="557" 
d="M100 -118v0q15 23 29 46q-16 -22 -30 -46v0h1zM188 36v0h4q0 2 -1 4q-2 2 -9 3.5t-15 2.5q-7 1 -10 2q-25 6 -42 25q-11 14 -16 32q-3 -7 -3 -14v-3q6 -10 15.5 -19.5t18.5 -15.5q27 -15 58 -17zM249 -35v0q3 4 7 8q32 38 50.5 79.5t-10.5 88.5q-16 26 -40 41t-56 11
q-2 0 -4 -1h-1q-3 -5 -10 -6q-29 -3 -47.5 -24t-11.5 -51q10 -28 38 -36q8 -2 17 -4q17 -1 30 -9q17 -14 8.5 -35t-20.5 -39q-5 -7 -8 -12q-24 -41 -50 -82h1l1 -1q7 -1 16 -6t18 -8t15 0q3 2 5 6l4 8q2 3 3 6q7 12 15 25q14 21 30 41z" />
    <glyph glyph-name="quotedblleft" unicode="&#x201c;" horiz-adv-x="822" 
d="M348 1522v0q-15 -23 -30 -47q16 23 31 47h-1v0zM259 1367v0q-2 1 -3 1q0 -2 1 -4q2 -2 9 -3.5t14 -2.5t11 -2q24 -7 41 -25q12 -15 17 -32q3 7 3 14v2q-6 11 -16 20.5t-18 15.5q-28 15 -59 16zM230 1450v0q-4 -5 -7 -9q-33 -38 -51 -79.5t10 -88.5q16 -26 40.5 -41
t55.5 -11q2 0 5 1v0q3 5 10 6q30 3 48 24t11 51q-9 28 -38 36q-8 3 -17 4q-17 2 -30 9q-17 14 -8.5 35t21.5 39q4 7 7 12q24 41 51 82h-1q-1 0 -2 1q-6 1 -16 6q-9 5 -18 8t-14 0q-3 -2 -5.5 -6t-4.5 -8q-2 -3 -3 -6q-7 -12 -15 -25q-14 -21 -29 -40zM613 1522v0
q-15 -23 -30 -47q16 23 31 47h-1v0zM524 1367v0q-2 1 -3 1q0 -2 1 -4q2 -2 9 -3.5t14 -2.5t11 -2q24 -7 41 -25q12 -15 17 -32q3 7 3 14v2q-6 11 -16 20.5t-18 15.5q-28 15 -59 16zM495 1450v0q-4 -5 -7 -9q-33 -38 -51 -79.5t10 -88.5q16 -26 40.5 -41t55.5 -11q2 0 5 1v0
q3 5 10 6q30 3 48 24t11 51q-9 28 -38 36q-8 3 -17 4q-17 2 -30 9q-17 14 -8.5 35t21.5 39q4 7 7 12q24 41 51 82h-1q-1 0 -2 1q-6 1 -16 6q-9 5 -18 8t-14 0q-3 -2 -5.5 -6t-4.5 -8q-2 -3 -3 -6q-7 -12 -15 -25q-14 -21 -29 -40z" />
    <glyph glyph-name="quotedblright" unicode="&#x201d;" horiz-adv-x="862" 
d="M161 1227v0q15 23 29 46q-16 -22 -30 -46v0h1zM249 1381v0q2 0 4 -1q0 3 -1 5q-2 2 -9 3.5t-15 2.5q-7 1 -10 2q-25 6 -42 25q-11 14 -16 32q-3 -7 -3 -15v-2q6 -11 15.5 -20.5t18.5 -15.5q27 -14 58 -16zM310 1309v0q3 5 7 9q32 38 50.5 79.5t-10.5 88.5q-16 26 -40 41
t-56 11q-2 -1 -4 -1v0q-4 -5 -11 -6q-29 -3 -47.5 -24t-11.5 -51q10 -28 38 -36q8 -3 17 -4q17 -2 30 -9q17 -14 9 -35.5t-21 -38.5q-5 -7 -8 -12q-24 -42 -50 -82h1q0 -1 1 -1q7 -2 16 -6q10 -5 18.5 -8t14.5 0q3 1 5 5.5t4 8.5q2 3 3 6q7 12 15 24q14 22 30 41zM466 1227
v0q15 23 29 46q-16 -22 -30 -46v0h1zM554 1381v0q2 0 4 -1q0 3 -1 5q-2 2 -9 3.5t-15 2.5q-7 1 -10 2q-25 6 -42 25q-11 14 -16 32q-3 -7 -3 -15v-2q6 -11 15.5 -20.5t18.5 -15.5q27 -14 58 -16zM615 1309v0q3 5 7 9q32 38 50.5 79.5t-10.5 88.5q-16 26 -40 41t-56 11
q-2 -1 -4 -1v0q-4 -5 -11 -6q-29 -3 -47.5 -24t-11.5 -51q10 -28 38 -36q8 -3 17 -4q17 -2 30 -9q17 -14 9 -35.5t-21 -38.5q-5 -7 -8 -12q-24 -42 -50 -82h1q0 -1 1 -1q7 -2 16 -6q10 -5 18.5 -8t14.5 0q3 1 5 5.5t4 8.5q2 3 3 6q7 12 15 24q14 22 30 41z" />
    <glyph glyph-name="quotedblbase" unicode="&#x201e;" horiz-adv-x="862" 
d="M161 -154v0q15 23 29 46q-16 -22 -30 -46v0h1zM249 0v0q2 0 4 -1q0 3 -1 5q-2 2 -9 3.5t-15 2.5q-7 1 -10 2q-25 6 -42 25q-11 14 -16 32q-3 -7 -3 -15v-2q6 -11 15.5 -20.5t18.5 -15.5q27 -14 58 -16zM310 -72v0q3 5 7 9q32 38 50.5 79.5t-10.5 88.5q-16 26 -40 41
t-56 11q-2 -1 -4 -1v0q-4 -5 -11 -6q-29 -3 -47.5 -24t-11.5 -51q10 -28 38 -36q8 -3 17 -4q17 -2 30 -9q17 -14 9 -35.5t-21 -38.5q-5 -7 -8 -12q-24 -42 -50 -82h1q0 -1 1 -1q7 -2 16 -6q10 -5 18.5 -8t14.5 0q3 1 5 5.5t4 8.5q2 3 3 6q7 12 15 24q14 22 30 41zM466 -154
v0q15 23 29 46q-16 -22 -30 -46v0h1zM554 0v0q2 0 4 -1q0 3 -1 5q-2 2 -9 3.5t-15 2.5q-7 1 -10 2q-25 6 -42 25q-11 14 -16 32q-3 -7 -3 -15v-2q6 -11 15.5 -20.5t18.5 -15.5q27 -14 58 -16zM615 -72v0q3 5 7 9q32 38 50.5 79.5t-10.5 88.5q-16 26 -40 41t-56 11
q-2 -1 -4 -1v0q-4 -5 -11 -6q-29 -3 -47.5 -24t-11.5 -51q10 -28 38 -36q8 -3 17 -4q17 -2 30 -9q17 -14 9 -35.5t-21 -38.5q-5 -7 -8 -12q-24 -42 -50 -82h1q0 -1 1 -1q7 -2 16 -6q10 -5 18.5 -8t14.5 0q3 1 5 5.5t4 8.5q2 3 3 6q7 12 15 24q14 22 30 41z" />
    <glyph glyph-name="dagger" unicode="&#x2020;" 
d="M237 787v0q4 -3 13 -2q-12 9 -18 25q1 -8 2 -14.5t3 -8.5zM774 829v0q3 32 6 63q1 9 1 17q-114 3 -227 -13q-10 0 -12.5 9.5t1.5 19.5q7 194 19 387h-50h-51q2 -3 2 -8q10 -193 11 -387q0 -12 -8 -16q0 -6 -3.5 -10t-9.5 -4q-100 11 -200 8v-5q-3 -21 -1.5 -44.5
t18.5 -31.5q21 -6 45 -3q9 1 18 1l107 1q4 4 9.5 4t9.5 -4h3q8 -1 11.5 -9.5t1 -17.5t-11.5 -11v-17q5 -1 8.5 -5t3.5 -13q1 -504 21 -1009q0 -7 -3 -12q14 5 28 6v0q13 1 28 -2q0 23 -1 45q-5 500 -11 1000q0 8 4 13t10 6h2v0v1q10 19 27 21t35 -1q8 -1 14 -1q60 -4 119 -7
q5 0 8 -4h5.5t4.5 1q4 4 5.5 11.5t1.5 15.5q0 3 1 5z" />
    <glyph glyph-name="daggerdbl" unicode="&#x2021;" 
d="M215 824v0q3 -3 12 -2q-11 10 -17 25q0 -8 1.5 -14t3.5 -9zM218 216v0h35l-46 2q-3 0 -5 1v-2v0v-1h16zM520 250v0v3v2l1 1q2 12 13 13q121 7 242 -6v78q-123 8 -246 3q-10 0 -12.5 11t2.5 20h-1v0q-2 215 -5 430q0 8 4 13.5t10 5.5h2v0v1q10 19 27.5 21t34.5 -1
q8 -1 15 -1q59 -3 118 -7q5 0 8 -4h5.5t4.5 1q4 4 5.5 11.5t1.5 15.5q1 3 1 6q3 31 6 63l2 16q-115 3 -228 -13q-10 0 -12.5 9.5t1.5 19.5q7 194 19 387h-50h-51q2 -3 2 -8q11 -193 12 -386q-1 -13 -8 -17q-1 -6 -4.5 -10t-8.5 -3q-101 10 -201 7v-5q-3 -21 -1.5 -44.5
t18.5 -31.5q21 -5 45 -2q9 0 18 1h107q4 5 9.5 5t9.5 -5h3q9 -1 12 -9.5t0.5 -17.5t-10.5 -10v-18q4 0 8 -4.5t4 -13.5q0 -194 3 -388h1h1q9 0 12 -9t0 -18t-12 -10q-123 -4 -245 -9l6 -88q114 -2 227 -14v0v0q2 0 5 1q4 0 8 1q5 -237 14 -474q0 -8 -3 -12q14 4 28 5h1
q13 1 27 -1l-4 326q-1 81 -2 163v0v0z" />
    <glyph glyph-name="bullet" unicode="&#x2022;" horiz-adv-x="1024" 
d="M262 863v0q-20 -34 -24 -72v-1v-1q4 11 15 12q1 31 9 62zM237 781v0q0 -13 2 -25q-1 6 -1 12q-1 6 -1 13zM629 761v0q4 82 -40.5 150.5t-132.5 72.5q-55 -1 -106 -33q-1 -4 -4 -7q-67 -71 -58 -168q16 -91 101 -127q15 -5 31 -9q28 -2 56 -1q7 -1 11 -4q30 0 59 3
q49 2 68 47q13 37 15 76z" />
    <glyph glyph-name="ellipsis" unicode="&#x2026;" horiz-adv-x="2048" 
d="M190 74v0q16 25 22.5 54.5t-8.5 57.5q-17 27 -46 41q-13 9 -24 11l-4 -2q-31 -9 -64 -29t-46 -51q-5 -17 -1.5 -36.5t12.5 -34.5q20 -28 53 -40v0q15 -8 33 -13.5t34 1.5q13 7 22 18.5t17 22.5zM873 74v0q16 25 22.5 54.5t-8.5 57.5q-17 27 -46 41q-13 9 -24 11l-4 -2
q-31 -9 -64 -29t-46 -51q-5 -17 -1.5 -36.5t12.5 -34.5q20 -28 53 -40v0q15 -8 33 -13.5t34 1.5q13 7 22 18.5t17 22.5zM1556 74v0q16 25 22.5 54.5t-8.5 57.5q-17 27 -46 41q-13 9 -24 11l-4 -2q-31 -9 -64 -29t-46 -51q-5 -17 -1.5 -36.5t12.5 -34.5q20 -28 53 -40v0
q15 -8 33 -13.5t34 1.5q13 7 22 18.5t17 22.5z" />
    <glyph glyph-name="guilsinglleft" unicode="&#x2039;" horiz-adv-x="631" 
d="M389 185v0q2 -3 3 -6q2 -4 4.5 -5.5t8.5 1.5v0h1q-9 2 -11 11q-1 -1 -2 -1h-4zM272 502v0q40 65 79 130l102 170q-33 1 -67 0q-1 -1 -2 -3q-56 -73 -105 -151q-25 -41 -49 -83l-22 -38q0 -2 -2 -5q-3 -4 -5.5 -8t-2.5 -7q0 -5 2.5 -8.5t5.5 -6.5q2 -1 3 -2
q114 -123 182 -277q10 2 21 3l28 4l-32 54q-21 37 -42 73l-16 30q-30 61 -76 108q-3 3 -3.5 8t1.5 9z" />
    <glyph glyph-name="guilsinglright" unicode="&#x203a;" horiz-adv-x="944" 
d="M440 170h-3q-1 0 -3 1q-1 -9 -10 -11v0v0q6 -3 8.5 -1.5t4.5 5.5q1 3 3 6v0zM557 487q3 -4 2 -9t-4 -8q-46 -48 -75 -108q-8 -15 -17 -30q-21 -36 -42 -73q-16 -27 -31 -54l28 -4q10 -2 20 -3q68 153 182 276l3 3q3 3 5.5 6.5t2.5 8.5q0 2 -2.5 6.5t-4.5 8.5q-2 3 -3 4
q-11 20 -21 39q-24 42 -50 83q-49 78 -105 151q-1 2 -1 3q-34 1 -68 -1q51 -84 103 -169l78 -130v0z" />
    <glyph glyph-name="Euro" unicode="&#x20ac;" horiz-adv-x="582" 
d="M373 1262v0q7 0 14 -2v0v0q-3 5 -3 10q-12 -2 -23 -7q6 0 12 -1zM479 1211v0q18 25 28 55l-24 -46l-4 -8v-1v0zM230 208v0h3q-5 16 -10 33q3 -17 7 -33zM410 62v0q21 12 36 34q-9 -11 -20 -21q-7 -7 -16 -13zM487 127v0q6 16 10 33q-9 -13 -19 -25q6 -2 9 -8zM273 562v0
q0 7 4 11.5t10 4.5q108 5 213 30q4 1 7 0q5 11 8 24q3 8 5 15l7 18q-133 -12 -264 -41q-6 -1 -10.5 2.5t-5.5 8.5q-1 0 -2 1h-2q-8 78 -13 157q-9 0 -11.5 7.5t0.5 15t12 9.5q6 0 11 1q4 0 7 1q1 9 8 15q8 6 15.5 1.5t8.5 -12.5q60 7 120 16q45 6 89 14q12 2 16.5 8.5
t6.5 20.5q3 16 3 32q-136 -12 -273 -11q-9 1 -12 8t-1 15h-3h-4q-4 115 2 229q1 8 5 12.5t10 4.5q34 73 97 108q38 22 78 16q33 -11 57 -41q16 32 33 65q4 8 7 15q-45 26 -91.5 36t-95.5 -13q-80 -47 -123 -143q1 -5 -3 -10q-32 -60 -39.5 -131.5t-4.5 -143.5q-5 1 -10 1h-2
q3 -7 1 -13.5t-10 -8.5l-91 -16q0 -6 -4 -11q-19 -26 -32 -56q74 8 148 6q7 0 10.5 -6t2.5 -13t-6 -11q7 -85 19 -170q-3 1 -6 1h-4q-2 -1 -5 -2q-54 -10 -108 -21q2 -5 -2 -12q-15 -21 -26 -45q-2 -4 -4 -11q52 5 105 8h8v0v0v0h1q17 1 35 2q9 0 12 -8h3h3q14 -118 39 -233
q14 -68 39 -131q12 -29 27 -56.5t38 -44.5q28 -16 51.5 -1t42.5 40q29 36 59 74l20 26q-24 36 -42 76q-20 -45 -50 -83.5t-70 -21.5q-37 22 -52.5 70.5t-19.5 95.5q-10 75 -19 149q-6 5 -6.5 13t3.5 14v4q-1 2 -1 5q11 0 22 -1q-1 8 -1 15z" />
    <glyph glyph-name="trademark" unicode="&#x2122;" horiz-adv-x="978" 
d="M191 1207v0q2 -1 4 -1q-2 39 -3 78q-1 -39 -1 -77zM194 999v0v-19q-1 -22 3 -42q1 -7 4 -11v4v3v0v2v1v1l-8 98v-10q1 -13 1 -27zM278 1410v0q44 0 87 2q-1 21 -4 42q-123 -4 -246 -3v-26v-5v-8t1 -6q1 -3 2.5 -4t3.5 -1q1 0 3 -1q12 -1 26 2q6 1 11 2l38 4q6 0 10 -4.5
t4 -9.5q13 -222 14 -443q9 0 18 1q12 -3 10 8q0 8 1 16v39q0 10 1 20q0 30 1 59q0 30 1 60l4 242q1 5 5 9t9 5zM739 914v0q1 -8 1 -15v-2q18 5 35 10q-12 0 -23 -1q-9 1 -13 8zM552 1163v0q2 1 3 1q-9 39 -19 77l-2 -38zM593 1126v0q10 -48 18 -97q5 -24 8 -49q1 -3 1 -7
q0 -5 0.5 -9.5t2.5 -7.5q3 -5 8 -5.5t10 0.5h4q4 1 9 1q10 1 19.5 3.5t13.5 10.5q5 15 6 32q1 8 2 15l17 101l35 210q2 7 8.5 9t12.5 -1.5t7 -11.5q-5 -193 -9 -385q23 1 45 3h6q5 0 10.5 1t8.5 4t3 8.5v11.5q-1 4 -1 6q1 58 0 115q0 103 -3 206q-1 52 -3 104v16q1 19 -2 35
q-1 7 -4 9.5t-10 2.5t-14 -1q-3 -1 -6 -1q-5 -1 -11 -1q-10 -1 -20.5 -2t-14.5 -6q-4 -4 -6.5 -12.5t-4.5 -16.5q-1 -7 -3 -12q-14 -47 -27 -95q-26 -96 -44 -193q-2 -8 -8.5 -9.5t-12.5 2.5t-7 11q-15 121 -41 241q-6 30 -13 60q-1 3 -2 7q-1 8 -4 14q-5 8 -11 9t-13 -1
q-3 0 -6 -1q-39 -6 -79 -14h-2q-9 -247 -14 -494q24 1 49 5q-2 121 4 241q-6 3 -8.5 10t2.5 14q1 0 1 1l6 6v1h1q3 51 7 101q1 8 6.5 11.5t12 2t8.5 -9.5q30 -98 52 -199z" />
  </font>
</defs>
</svg>
